#N canvas 0 22 640 752 10;
#N canvas 0 24 1280 722 beatmangle 1;
#X obj 7 7 cnv 15 305 30 empty empty beatmangle 5 16 1 32 -261682 -66577
0;
#X obj 277 44 bng 15 250 50 0 empty empty empty 17 7 0 10 -262144 -1
-1;
#X obj 13 286 hsl 295 8 0 176400 0 0 empty empty empty -2 -8 0 10 -262144
-1 -1 29400 1;
#X obj 443 549 outlet~;
#X obj 496 548 outlet~;
#X msg 327 253 range 0 \$1;
#X obj 443 494 *~;
#X obj 327 229 r \$0-sample_count;
#X obj 327 207 r \$0-sample_position;
#X obj 458 469 r \$0-sample_count;
#X obj 443 521 tabread4~ \$0-sampleloop;
#N canvas 0 22 450 300 (subpatch) 0;
#X array \$0-sampleloop 882000 float 2;
#X coords 0 1 882000 -1 300 200 1;
#X restore -5 83 graph;
#X obj 294 523 snapshot~;
#X obj 294 546 s \$0-sample_position;
#X obj 294 499 metro 100;
#X obj 294 471 r \$0-sample_count;
#X obj 708 -62 r \$0-sample_count;
#X obj 607 -13 t f f;
#X obj 611 111 /;
#N canvas 530 461 271 159 len2freq 0;
#X obj 18 9 inlet;
#X obj 18 33 t b f;
#X msg 18 61 1;
#X obj 30 96 /;
#X obj 30 121 outlet;
#X text 69 6 Calculate the frequency required in order to play a single
loop at the correct tempo.;
#X connect 0 0 1 0;
#X connect 1 0 2 0;
#X connect 1 1 3 1;
#X connect 2 0 3 0;
#X connect 3 0 4 0;
#X restore 525 189 pd len2freq;
#X obj 653 247 t b f;
#X text 641 111 Calculate the length of the sample in seconds;
#X text 688 30 <- Change beat sample rate here;
#X obj 653 271 metro;
#X text 694 272 Metro will bang every 8th note;
#X obj 653 339 sel 0;
#X text 710 318 50% change of changing the loop settings;
#N canvas 482 195 621 386 randloop 0;
#X obj 20 15 inlet~;
#X obj 21 182 *~;
#X obj 21 208 wrap~;
#X obj 21 240 /~;
#X obj 21 273 outlet~;
#X text 165 16 Make the phasor loop over a smaller \, randomly chosen
\, range.;
#X msg 177 229 2;
#X msg 214 230 0;
#X obj 177 273 outlet;
#X text 246 228 This is the chance that the next 8th note will have
different settings: 50% for 2nd to 32nd notes \, 100% for 64th or 128th
note loops. This lowers the chance of having prolonged periods of 64th/128th
notes.;
#X obj 94 74 route 0 1 2 3 4 5 6 7;
#X msg 178 45 5;
#X obj 107 37 inlet;
#X msg 340 102 128;
#X msg 305 102 64;
#X msg 271 102 32;
#X msg 236 102 16;
#X msg 199 102 8;
#X msg 163 102 4;
#X msg 128 102 2;
#X msg 94 102 1;
#X connect 0 0 1 0;
#X connect 1 0 2 0;
#X connect 2 0 3 0;
#X connect 3 0 4 0;
#X connect 6 0 8 0;
#X connect 7 0 8 0;
#X connect 10 0 20 0;
#X connect 10 1 19 0;
#X connect 10 2 18 0;
#X connect 10 3 17 0;
#X connect 10 4 16 0;
#X connect 10 5 15 0;
#X connect 10 6 14 0;
#X connect 10 7 13 0;
#X connect 11 0 10 0;
#X connect 12 0 10 0;
#X connect 13 0 1 1;
#X connect 13 0 3 1;
#X connect 13 0 7 0;
#X connect 14 0 1 1;
#X connect 14 0 3 1;
#X connect 14 0 7 0;
#X connect 15 0 1 1;
#X connect 15 0 3 1;
#X connect 15 0 6 0;
#X connect 16 0 1 1;
#X connect 16 0 3 1;
#X connect 16 0 6 0;
#X connect 17 0 1 1;
#X connect 17 0 3 1;
#X connect 17 0 6 0;
#X connect 18 0 1 1;
#X connect 18 0 3 1;
#X connect 18 0 6 0;
#X connect 19 0 1 1;
#X connect 19 0 3 1;
#X connect 19 0 6 0;
#X connect 20 0 1 1;
#X connect 20 0 3 1;
#X connect 20 0 6 0;
#X restore 443 375 pd randloop;
#N canvas 791 433 519 256 randoffset 0;
#X obj 81 127 outlet;
#X text 159 51 Randomize the playhead position to any 8th note by generating
an offset. This will be added to the phasor and wrapped to the valid
loop range.;
#X obj 96 14 inlet;
#X obj 96 38 * 8;
#X obj 81 99 /;
#X floatatom 142 111 5 0 0 0 - - -;
#X floatatom 24 150 5 0 7 0 - - -;
#X obj 23 12 inlet;
#X connect 2 0 3 0;
#X connect 3 0 4 1;
#X connect 3 0 5 0;
#X connect 4 0 0 0;
#X connect 6 0 4 0;
#X connect 7 0 4 0;
#X restore 653 368 pd randoffset;
#X obj 443 413 +~;
#X obj 443 441 wrap~;
#X obj 443 317 phasor~;
#X text 743 369 Randomize playhead position;
#X text 293 375 Randomize loop settings;
#X text 201 563 Update the playhead visual indicator;
#X text 103 42 Click here to load beat loop;
#X floatatom 277 64 5 1 8 0 - - -;
#X obj 329 -8 loadbang;
#X msg 329 16 1;
#X obj 322 107 s \$0-bars;
#X obj 745 131 r \$0-bars;
#X msg 694 179 250;
#X obj 653 224 *;
#X obj 706 203 /;
#X obj 694 155 t b b f;
#X text 139 63 Number of bars in loop;
#X obj 634 57 t b f;
#X msg 634 11 44100;
#X floatatom 634 32 8 0 0 0 - - -;
#X text 5 307 [beatmangle / Colin Barry / www.loomer.co.uk colin@loomer.co.uk]
;
#X obj 653 316 random 1;
#X floatatom 544 352 5 0 7 0 - - -;
#X floatatom 686 424 5 0 0 0 - - -;
#X floatatom 587 303 5 0 7 0 - - -;
#X obj 506 218 vsl 15 128 0 7 0 0 empty empty empty 0 -9 0 10 -262144
-1 -1 0 1;
#X obj 526 296 int;
#X msg 715 533 \; pd dsp 1;
#X text 1362 159 1st argument: name of delay line;
#X floatatom 1127 136 0 0 0 0 - - -;
#X text 1162 138 float input (delay time in ms);
#X text 1138 193 signal output (delayed signal);
#X floatatom 1394 60 0 0 0 0 - - -;
#X obj 1127 258 snapshot~;
#X floatatom 1127 282 0 0 0 0 - - -;
#X obj 1035 129 loadbang;
#X obj 1035 196 metro 200;
#X msg 1043 156 \; pd dsp 1;
#X text 1435 59 input to delay line;
#X obj 1394 84 sig~;
#X text 1362 175 2nd argument: (initial) delay time in ms;
#X obj 1273 227 bng 15 250 50 0 empty empty empty 17 7 0 10 -262144
-1 -1;
#X msg 1187 -30 44100;
#X obj 1224 8 *;
#X obj 1241 254 tabwrite~ \$0-sampleloop;
#X floatatom 122 589 10 0 0 0 - - -;
#X obj 1103 43 s \$0-sample_count;
#X obj 1206 -78 bng 15 250 50 0 empty empty empty 17 7 0 10 -262144
-1 -1;
#X msg 785 533 \; pd dsp 0;
#X msg 1264 -30 4;
#X obj 1164 -59 pipe 50;
#X obj 1116 -106 loadbang;
#X obj 1345 -2 inlet~;
#X obj 1410 -3 inlet;
#X obj 1457 -4 inlet;
#X obj 1505 -4 inlet;
#X obj 1394 109 delwrite~ \$0-del_example 4000;
#X obj 1127 169 delread~ \$0-del_example 4000;
#X connect 5 0 2 0;
#X connect 6 0 10 0;
#X connect 6 0 12 0;
#X connect 7 0 5 0;
#X connect 8 0 2 0;
#X connect 9 0 6 1;
#X connect 10 0 4 0;
#X connect 10 0 3 0;
#X connect 12 0 13 0;
#X connect 12 0 74 0;
#X connect 14 0 12 0;
#X connect 15 0 14 0;
#X connect 16 0 17 0;
#X connect 17 0 18 0;
#X connect 17 1 47 0;
#X connect 18 0 19 0;
#X connect 18 0 42 0;
#X connect 19 0 31 0;
#X connect 20 0 23 0;
#X connect 20 1 23 1;
#X connect 23 0 50 0;
#X connect 27 0 29 0;
#X connect 27 1 50 1;
#X connect 28 0 29 1;
#X connect 28 0 52 0;
#X connect 29 0 30 0;
#X connect 30 0 6 0;
#X connect 31 0 27 0;
#X connect 36 0 39 0;
#X connect 37 0 38 0;
#X connect 38 0 36 0;
#X connect 40 0 44 0;
#X connect 40 0 28 1;
#X connect 41 0 43 0;
#X connect 42 0 20 0;
#X connect 43 0 42 1;
#X connect 44 0 42 0;
#X connect 44 1 41 0;
#X connect 44 2 43 1;
#X connect 46 0 18 0;
#X connect 46 1 18 1;
#X connect 47 0 48 0;
#X connect 48 0 46 0;
#X connect 50 0 25 0;
#X connect 51 0 27 1;
#X connect 53 0 28 0;
#X connect 54 0 55 0;
#X connect 55 0 51 0;
#X connect 58 0 86 0;
#X connect 61 0 68 0;
#X connect 62 0 63 0;
#X connect 64 0 65 0;
#X connect 64 0 66 0;
#X connect 65 0 62 0;
#X connect 68 0 85 0;
#X connect 70 0 73 0;
#X connect 71 0 72 0;
#X connect 72 0 75 0;
#X connect 76 0 78 0;
#X connect 76 0 79 0;
#X connect 78 0 72 1;
#X connect 79 0 71 0;
#X connect 80 0 76 0;
#X connect 81 0 85 0;
#X connect 82 0 70 0;
#X connect 83 0 54 0;
#X connect 84 0 53 0;
#X connect 86 0 62 0;
#X connect 86 0 73 0;
#X coords 0 -1 1 1 310 295 2 5 5;
#X restore -78 13 pd beatmangle;
#X text -80 351 [colin@loomer.co.uk];
#X obj 83 321 outlet~;
#X obj -69 -18 inlet~;
#X obj -4 -18 inlet;
#X obj 39 -16 inlet;
#X obj 82 -17 inlet;
#X connect 0 0 2 0;
#X connect 0 1 2 0;
#X connect 3 0 0 0;
#X connect 4 0 0 1;
#X connect 5 0 0 2;
#X connect 6 0 0 3;
