#N canvas 312 554 441 230 10;
#X obj 39 33 inlet~ signal;
#X obj 164 34 inlet bypass;
#X obj 271 35 inlet;
#X obj 337 36 inlet;
#X obj 39 93 bypass~;
#X obj 51 139 beatmangle3;
#X obj 73 66 t f f;
#X obj 37 178 outlet~;
#X connect 0 0 4 0;
#X connect 1 0 6 0;
#X connect 2 0 5 2;
#X connect 3 0 5 3;
#X connect 4 0 7 0;
#X connect 4 1 5 0;
#X connect 5 0 7 0;
#X connect 6 0 5 1;
#X connect 6 1 4 1;
