#N canvas 377 217 579 425 10;
#X obj 407 46 vsl 15 128 0 1 0 0 empty empty empty 0 -9 0 10 -262144
-1 -1 11800 1;
#X obj 183 232 delay~ 88200;
#X obj 300 183 * 88200;
#X obj 300 50 vsl 15 128 0 1 0 0 empty empty empty 0 -9 0 10 -262144
-1 -1 2540 1;
#X obj 300 26 inlet delayTime;
#X obj 160 311 outlet~;
#X obj 66 234 delay~ 88200;
#X obj 50 320 outlet~;
#X obj 16 90 inlet~;
#X obj 142 89 inlet~;
#X obj 407 1 inlet volume;
#X obj 456 128 vsl 15 128 0 1 0 0 empty empty empty 0 -9 0 10 -262144
-1 -1 5990 1;
#X obj 456 26 inlet feedback;
#X obj 206 85 inlet bypass;
#X obj 17 126 bypass~;
#X obj 140 123 bypass~;
#X obj 103 291 s~ \$0-L;
#X obj 235 289 s~ \$0-R;
#X obj 87 205 r~ \$0-R;
#X obj 206 199 r~ \$0-L;
#X obj 72 176 *~;
#X obj 187 176 *~;
#X obj 235 263 *~;
#X obj 104 268 *~;
#X obj 338 0 loadbang;
#X obj 169 262 +~;
#X obj 57 278 +~;
#X obj 272 211 line \$1 100;
#X msg 239 31 0.5714;
#X msg 427 54 0.2;
#X msg 359 58 0.2;
#X obj 458 85 maxlib/scale 0 1 0.1 0.6;
#X connect 0 0 20 1;
#X connect 0 0 21 1;
#X connect 1 0 22 0;
#X connect 1 0 25 1;
#X connect 2 0 27 0;
#X connect 3 0 2 0;
#X connect 4 0 3 0;
#X connect 6 0 23 0;
#X connect 6 0 26 1;
#X connect 8 0 14 0;
#X connect 9 0 15 0;
#X connect 10 0 0 0;
#X connect 11 0 22 1;
#X connect 11 0 23 1;
#X connect 12 0 31 0;
#X connect 13 0 14 1;
#X connect 13 0 15 1;
#X connect 14 0 7 0;
#X connect 14 1 20 0;
#X connect 14 1 26 0;
#X connect 15 0 5 0;
#X connect 15 1 21 0;
#X connect 15 1 25 0;
#X connect 18 0 6 0;
#X connect 19 0 1 0;
#X connect 20 0 6 0;
#X connect 21 0 1 0;
#X connect 22 0 17 0;
#X connect 23 0 16 0;
#X connect 24 0 30 0;
#X connect 24 0 29 0;
#X connect 24 0 28 0;
#X connect 25 0 5 0;
#X connect 26 0 7 0;
#X connect 27 0 1 1;
#X connect 27 0 6 1;
#X connect 28 0 3 0;
#X connect 29 0 11 0;
#X connect 30 0 0 0;
#X connect 31 0 11 0;
