#N canvas 1305 99 470 862 10;
#X declare -lib cyclone;
#X declare -lib cyclone;
#X obj 199 774 inlet mute;
#X obj 274 774 inlet volume;
#X obj 57 99 pan/gpan~;
#X obj 57 15 inlet~ L;
#X obj 113 15 inlet~ R;
#X obj 57 129 st-bypass13~ \$1-DJef1;
#N canvas 0 22 458 199 volume 0;
#X obj 75 93 *~ 1;
#X obj 158 92 *~ 1;
#X obj 73 49 inlet~ R;
#X obj 160 50 inlet~ L;
#X obj 335 52 inlet volume;
#X obj 72 165 outlet~ R;
#X obj 157 159 outlet~ L;
#X obj 72 131 spigot~;
#X obj 157 127 spigot~;
#X obj 245 49 inlet mute;
#X connect 0 0 7 0;
#X connect 1 0 8 0;
#X connect 2 0 0 0;
#X connect 3 0 1 0;
#X connect 4 0 0 1;
#X connect 4 0 1 1;
#X connect 7 0 5 0;
#X connect 8 0 6 0;
#X connect 9 0 7 1;
#X connect 9 0 8 1;
#X restore 58 791 pd volume;
#X obj 57 252 st-bypass13~ \$1-DJef2;
#X obj 57 394 st-bypass13~ \$1-DJef3;
#X obj 57 535 st-bypass13~ \$1-DJef4;
#X obj 58 680 st-bypass13~ \$1-DJef5;
#X obj 287 702 r DJAef5;
#X obj 170 15 receive13 \$1-pos;
#X obj 58 736 st-filter;
#X obj 290 721 hsl 128 15 0 1 0 0 empty empty empty -2 -8 0 10 -262144
-1 -1 12700 1;
#X obj 297 165 hsl 128 15 0 1 0 0 empty empty empty -2 -8 0 10 -262144
-1 -1 0 1;
#X obj 301 284 hsl 128 15 0 1 0 0 empty empty empty -2 -8 0 10 -262144
-1 -1 0 1;
#X obj 306 426 hsl 128 15 0 1 0 0 empty empty empty -2 -8 0 10 -262144
-1 -1 0 1;
#X obj 299 571 hsl 128 15 0 1 0 0 empty empty empty -2 -8 0 10 -262144
-1 -1 0 1;
#X obj 294 146 r DJAef1;
#X obj 298 265 r DJAef2;
#X obj 303 407 r DJAef3;
#X obj 296 552 r DJAef4;
#X obj 57 299 st-bitcrusher /bitcrusher;
#X obj 56 180 st-wavedistort /distor;
#X obj 57 441 st-delayfb /delay;
#X obj 57 586 st-pureverb /reverb;
#X obj 293 108 loadbang;
#X msg 293 128 0;
#X obj 298 225 loadbang;
#X msg 298 245 0;
#X obj 303 367 loadbang;
#X msg 303 387 0;
#X obj 296 512 loadbang;
#X msg 296 532 0;
#X obj 288 662 loadbang;
#X msg 288 682 1;
#X obj 58 822 master_bus~ \$1;
#X obj 57 232 +~;
#X obj 180 231 +~;
#X obj 57 373 +~;
#X obj 180 373 +~;
#X obj 57 512 +~;
#X obj 179 513 +~;
#X obj 58 658 +~;
#X obj 181 659 +~;
#X obj 58 766 +~;
#X obj 89 765 +~;
#X connect 0 0 6 2;
#X connect 1 0 6 3;
#X connect 2 0 5 0;
#X connect 2 1 5 1;
#X connect 3 0 2 0;
#X connect 4 0 2 1;
#X connect 5 0 38 0;
#X connect 5 1 39 0;
#X connect 5 2 24 0;
#X connect 5 3 24 1;
#X connect 6 0 37 0;
#X connect 6 1 37 1;
#X connect 7 0 40 0;
#X connect 7 1 41 0;
#X connect 7 2 23 0;
#X connect 7 3 23 1;
#X connect 8 0 42 0;
#X connect 8 1 43 0;
#X connect 8 2 25 0;
#X connect 8 3 25 1;
#X connect 9 0 44 0;
#X connect 9 1 45 0;
#X connect 9 2 26 0;
#X connect 9 3 26 1;
#X connect 10 0 46 0;
#X connect 10 1 47 0;
#X connect 10 2 13 0;
#X connect 10 3 13 1;
#X connect 11 0 14 0;
#X connect 12 0 2 2;
#X connect 13 0 46 1;
#X connect 13 1 47 1;
#X connect 14 0 13 2;
#X connect 15 0 24 2;
#X connect 16 0 23 2;
#X connect 17 0 25 2;
#X connect 18 0 26 2;
#X connect 19 0 15 0;
#X connect 20 0 16 0;
#X connect 21 0 17 0;
#X connect 22 0 18 0;
#X connect 23 0 40 1;
#X connect 23 1 41 1;
#X connect 24 0 38 1;
#X connect 24 1 39 1;
#X connect 25 0 42 1;
#X connect 25 1 43 1;
#X connect 26 0 44 1;
#X connect 26 1 45 1;
#X connect 27 0 28 0;
#X connect 28 0 15 0;
#X connect 29 0 30 0;
#X connect 30 0 16 0;
#X connect 31 0 32 0;
#X connect 32 0 17 0;
#X connect 33 0 34 0;
#X connect 34 0 18 0;
#X connect 35 0 36 0;
#X connect 36 0 14 0;
#X connect 38 0 7 0;
#X connect 39 0 7 1;
#X connect 40 0 8 0;
#X connect 41 0 8 1;
#X connect 42 0 9 0;
#X connect 43 0 9 1;
#X connect 44 0 10 0;
#X connect 45 0 10 1;
#X connect 46 0 6 0;
#X connect 47 0 6 1;
