#N canvas 0 22 1440 843 10;
#X obj 521 189 hsl 128 15 0 10 0 0 empty empty empty -2 -8 0 10 -262144
-1 -1 787 1;
#X obj 391 301 *~ 2;
#X obj 391 321 +~ 2;
#X obj 430 343 *~ 2;
#X obj 429 366 +~ 2;
#X obj 430 299 wrap~;
#X obj 400 244 phasor~;
#X obj 429 278 +~ 0.5;
#X obj 391 278 cos~;
#X obj 430 319 cos~;
#X obj 556 291 hsl 128 15 0 3 0 0 empty empty empty -2 -8 0 10 -262144
-1 -1 12700 1;
#X obj 429 415 *~ 0.8;
#X obj 389 485 *~ 0.8;
#X obj 585 410 hsl 128 15 -0.9 0.9 0 0 empty empty empty -2 -8 0 10
-262144 -1 -1 10583 1;
#X text 305 209 <-- Write to delay lines;
#X text 501 389 <-- Read from delay line 2;
#X text 495 453 <-- Read from delay line 1;
#X text 463 244 <-- Low Frequency Oscillator (LFO);
#X floatatom 550 218 5 0 0 0 - - -;
#X floatatom 554 317 5 0 0 0 - - -;
#X floatatom 582 431 5 0 0 0 - - -;
#X text 693 190 <-- Speed (try 0.7);
#X text 698 289 <-- Depth (try 2.4);
#X text 725 410 <-- Feedback (try -0.3);
#X text 496 584 comment;
#X obj 71 142 inlet~;
#X obj 154 635 outlet~;
#X obj 60 580 spigot~;
#X obj 202 585 spigot~;
#X obj 99 555 tgl 15 0 empty empty empty 17 7 0 10 -262144 -1 -1 1
1;
#X obj 241 560 tgl 15 0 empty empty empty 17 7 0 10 -262144 -1 -1 1
1;
#X obj 240 528 tgl 15 0 empty empty empty 17 7 0 10 -262144 -1 -1 1
1;
#X obj 291 511 inlet;
#X obj 500 503 s~ \$0-output;
#X obj 202 447 r~ \$0-output;
#X obj 840 152 inlet;
#X obj 854 317 loadbang;
#X msg 774 378 0.6;
#X msg 783 343 0;
#X obj 178 215 delwrite~ \$0-phase1 100;
#X obj 171 304 delwrite~ \$0-phase2 100;
#X obj 392 453 vd~ \$0-phase1;
#X obj 429 392 vd~ \$0-phase2;
#X msg 781 314 0.472;
#X connect 0 0 6 0;
#X connect 0 0 18 0;
#X connect 1 0 2 0;
#X connect 2 0 41 0;
#X connect 3 0 4 0;
#X connect 4 0 42 0;
#X connect 5 0 9 0;
#X connect 6 0 7 0;
#X connect 6 0 8 0;
#X connect 7 0 5 0;
#X connect 8 0 1 0;
#X connect 9 0 3 0;
#X connect 10 0 1 1;
#X connect 10 0 3 1;
#X connect 10 0 2 1;
#X connect 10 0 4 1;
#X connect 10 0 19 0;
#X connect 11 0 40 0;
#X connect 12 0 39 0;
#X connect 13 0 12 1;
#X connect 13 0 11 1;
#X connect 13 0 20 0;
#X connect 25 0 27 0;
#X connect 25 0 28 0;
#X connect 25 0 39 0;
#X connect 25 0 40 0;
#X connect 27 0 26 0;
#X connect 28 1 26 0;
#X connect 29 0 27 1;
#X connect 30 0 28 1;
#X connect 31 0 30 0;
#X connect 31 0 29 0;
#X connect 32 0 31 0;
#X connect 34 0 28 0;
#X connect 35 0 10 0;
#X connect 36 0 38 0;
#X connect 36 0 37 0;
#X connect 36 0 43 0;
#X connect 37 0 13 0;
#X connect 38 0 10 0;
#X connect 41 0 12 0;
#X connect 41 0 33 0;
#X connect 42 0 11 0;
#X connect 42 0 33 0;
#X connect 43 0 0 0;
