#N canvas 0 24 1280 743 10;
#X obj 102 169 freeverb~;
#X obj 5 128 inlet~;
#X obj 66 132 inlet~;
#X msg 315 136 roomsize \$1;
#X obj 318 116 hsl 128 15 0.5 1.02 1 0 empty roomsize room_size -2
-6 0 8 -262144 -1 -1 7921 1;
#X floatatom 271 136 5 0 0 0 - - -;
#X msg 319 75 damping \$1;
#X obj 322 54 hsl 128 15 0 1 0 0 empty damping damping -2 -6 0 8 -262144
-1 -1 1587 1;
#X msg 326 217 wet \$1;
#X msg 325 275 dry \$1;
#X obj 328 197 hsl 128 15 0 1 0 0 empty wet wet -2 -6 0 8 -262144 -1
-1 0 1;
#X obj 328 254 hsl 128 15 0 1 0 0 empty dry dry -2 -6 0 8 -262144 -1
-1 12700 1;
#X floatatom 413 225 5 0 0 0 - - -;
#X obj 578 131 loadbang;
#X msg 519 126 0.78;
#X floatatom 265 56 5 0 0 0 - - -;
#X msg 516 70 0.125;
#X obj 323 483 outlet~;
#X obj 229 428 spigot~;
#X obj 371 433 spigot~;
#X obj 268 403 tgl 15 0 empty empty empty 17 7 0 10 -262144 -1 -1 1
1;
#X obj 410 408 tgl 15 0 empty empty empty 17 7 0 10 -262144 -1 -1 1
1;
#X obj 409 376 tgl 15 0 empty empty empty 17 7 0 10 -262144 -1 -1 1
1;
#X obj 460 359 inlet;
#X obj 21 487 outlet~;
#X obj -73 432 spigot~;
#X obj 69 437 spigot~;
#X obj -34 407 tgl 15 0 empty empty empty 17 7 0 10 -262144 -1 -1 1
1;
#X obj 108 412 tgl 15 0 empty empty empty 17 7 0 10 -262144 -1 -1 1
1;
#X obj 107 380 tgl 15 0 empty empty empty 17 7 0 10 -262144 -1 -1 1
1;
#X obj 206 347 inlet;
#X obj 696 222 inlet;
#X msg 527 242 1;
#X msg 567 180 0;
#X connect 0 0 26 0;
#X connect 0 1 19 0;
#X connect 1 0 0 0;
#X connect 1 0 25 0;
#X connect 2 0 0 1;
#X connect 2 0 18 0;
#X connect 3 0 0 0;
#X connect 4 0 3 0;
#X connect 4 0 5 0;
#X connect 6 0 0 0;
#X connect 7 0 6 0;
#X connect 7 0 15 0;
#X connect 8 0 0 0;
#X connect 9 0 0 0;
#X connect 10 0 8 0;
#X connect 10 0 12 0;
#X connect 11 0 9 0;
#X connect 13 0 33 0;
#X connect 13 0 14 0;
#X connect 13 0 16 0;
#X connect 13 0 32 0;
#X connect 14 0 4 0;
#X connect 16 0 7 0;
#X connect 18 0 17 0;
#X connect 19 1 17 0;
#X connect 20 0 18 1;
#X connect 21 0 19 1;
#X connect 22 0 21 0;
#X connect 22 0 20 0;
#X connect 23 0 22 0;
#X connect 25 0 24 0;
#X connect 26 1 24 0;
#X connect 27 0 25 1;
#X connect 28 0 26 1;
#X connect 29 0 28 0;
#X connect 29 0 27 0;
#X connect 30 0 29 0;
#X connect 31 0 10 0;
#X connect 32 0 11 0;
#X connect 33 0 10 0;
