#N canvas 540 742 622 251 10;
#X obj 260 109 bypass~;
#X obj 442 107 bypass~;
#X obj 260 162 outlet~ dryR;
#X obj 425 161 outlet~ wetR;
#X obj 320 194 outlet~ dryL;
#X obj 481 137 outlet~ wetL;
#X obj 206 35 inlet~ signalR;
#X obj 389 34 inlet~ signalL;
#X obj 101 119 tgl 15 0 \$0-bypass empty empty 17 7 0 10 -258113 -1
-1 0 1;
#X obj 101 46 receive13 \$1;
#X obj 299 84 r \$0-bypass;
#X obj 481 83 r \$0-bypass;
#X connect 0 0 2 0;
#X connect 0 1 3 0;
#X connect 1 0 4 0;
#X connect 1 1 5 0;
#X connect 6 0 0 0;
#X connect 7 0 1 0;
#X connect 9 0 8 0;
#X connect 10 0 0 1;
#X connect 11 0 1 1;
#X coords 0 -1 1 1 90 35 1 100 100;
