#N canvas 524 231 449 432 10;
#N canvas 820 462 290 206 clear 0;
#X obj 21 8 r \$0-sclear;
#X obj 147 152 s buttonhelp;
#N canvas 780 391 307 303 single/doubleclick 0;
#X obj 92 12 inlet;
#X obj 123 272 outlet;
#X obj 92 167 realtime;
#X obj 92 73 +;
#X msg 92 42 1;
#X obj 92 123 sel 1 2;
#X obj 92 99 & 3;
#X msg 147 56 0;
#X msg 138 194 1;
#X obj 147 29 delay 300;
#X obj 123 247 f;
#X obj 123 221 delay 300;
#X text 166 196 single click;
#X text 11 192 double click;
#X msg 92 194 0;
#X connect 0 0 4 0;
#X connect 0 0 9 0;
#X connect 2 0 14 0;
#X connect 3 0 6 0;
#X connect 4 0 3 0;
#X connect 5 0 2 0;
#X connect 5 0 11 0;
#X connect 5 0 8 0;
#X connect 5 1 2 1;
#X connect 6 0 3 1;
#X connect 6 0 5 0;
#X connect 7 0 3 1;
#X connect 8 0 10 1;
#X connect 9 0 7 0;
#X connect 10 0 1 0;
#X connect 11 0 10 0;
#X connect 14 0 10 1;
#X restore 21 43 pd single/doubleclick;
#X obj 21 71 sel 0 1;
#N canvas 0 22 300 265 clear-all 0;
#X obj 164 117 sel 0 1;
#X text 7 87 clear tables:;
#X msg 34 139 arrayviewlistnew;
#X obj 164 92 change;
#X msg 164 49 0;
#X msg 196 49 1;
#X obj 92 57 loadbang;
#X msg 22 111 const -1;
#X msg 92 89 const 0;
#X obj 92 111 s \$0-audio;
#X obj 22 164 s \$0-cuepoints;
#X obj 10 193 s \$0-resetcueindex;
#X obj 196 21 r \$0-newpoint;
#X obj 164 230 s \$0-rclear;
#X msg 164 203 color \$1 \$2 \$3;
#X obj 164 145 pack \$2 14 1;
#X obj 183 175 pack \$2 14 22;
#X obj 10 18 inlet;
#X connect 0 0 15 0;
#X connect 0 1 16 0;
#X connect 2 0 10 0;
#X connect 3 0 0 0;
#X connect 4 0 3 0;
#X connect 5 0 3 0;
#X connect 6 0 7 0;
#X connect 6 0 8 0;
#X connect 6 0 15 0;
#X connect 7 0 10 0;
#X connect 8 0 9 0;
#X connect 12 0 5 0;
#X connect 14 0 13 0;
#X connect 15 0 14 0;
#X connect 16 0 14 0;
#X connect 17 0 7 0;
#X connect 17 0 4 0;
#X connect 17 0 11 0;
#X restore 21 165 pd clear-all;
#N canvas 467 180 328 298 clear-last 0;
#X obj -25 12 inlet;
#X obj -10 234 tabwrite \$0-cuepoints;
#X obj 11 60 r \$0-cueindex;
#X obj -25 85 f;
#X obj 6 181 + 1;
#X msg -10 206 -1;
#X text 21 10 clear last cuepoints;
#X obj -25 112 t f b f b f;
#X floatatom 11 85 5 0 0 0 - - -;
#X obj 113 207 * 2;
#X obj 6 151 * 2;
#N canvas 0 22 197 170 minus-one 0;
#X obj 20 80 - 1;
#X obj 62 19 r \$0-nslices;
#X obj 20 51 +;
#X obj 20 104 &;
#X obj 62 87 - 1;
#X obj 20 20 inlet;
#X obj 20 130 outlet;
#X connect 0 0 3 0;
#X connect 1 0 2 1;
#X connect 1 0 4 0;
#X connect 2 0 0 0;
#X connect 3 0 6 0;
#X connect 4 0 3 1;
#X connect 5 0 2 0;
#X restore -10 36 pd minus-one;
#X obj -25 263 s \$0-lastcueindex;
#X text 75 35 in case you want to clear more;
#X connect 0 0 3 0;
#X connect 2 0 3 1;
#X connect 2 0 8 0;
#X connect 3 0 7 0;
#X connect 4 0 1 1;
#X connect 5 0 1 0;
#X connect 7 0 11 0;
#X connect 7 0 12 0;
#X connect 7 1 5 0;
#X connect 7 2 10 0;
#X connect 7 3 5 0;
#X connect 7 4 9 0;
#X connect 9 0 1 1;
#X connect 10 0 4 0;
#X connect 11 0 3 1;
#X connect 11 0 8 0;
#X restore 40 128 pd clear-last;
#X floatatom 80 71 5 0 0 0 - - -;
#X msg 147 127 slices.cleared;
#X msg 159 98 slice.cleared;
#X connect 0 0 2 0;
#X connect 2 0 3 0;
#X connect 2 0 6 0;
#X connect 3 0 4 0;
#X connect 3 0 7 0;
#X connect 3 1 8 0;
#X connect 3 1 5 0;
#X connect 7 0 1 0;
#X connect 8 0 1 0;
#X restore 27 23 pd clear;
#X obj 20 50 bng 50 250 50 0 \$0-sclear \$0-rclear //// 8 28 1 30 -195568
-260818 -1;
#N canvas 467 421 522 279 pattern 0;
#X text 169 223 to [pd playback] > [pd Fourierpatterns] > [pd variation]
;
#X obj 71 38 loadbang;
#X obj 23 7 r \$0-spattern;
#X obj 118 7 r pattern-slicycle\$1;
#X obj 23 80 f;
#X obj 38 32 + 1;
#X obj 38 53 % 3;
#X obj 23 114 sel 0 1 2;
#X msg 23 215 color \$1 \$2 \$3;
#X obj 23 192 pack \$2 14 11;
#X obj 23 243 s \$0-rpattern;
#X msg 57 141 color 14 14 22;
#X obj 139 244 s \$0-randompattern;
#X obj 204 150 == 0;
#X obj 204 192 s \$0-randomtrigger;
#X obj 289 97 == 2;
#X obj 212 172 tgl 15 0 empty empty empty 17 7 0 10 -262144 -1 -1 0
1;
#X obj 296 120 tgl 15 0 empty empty empty 17 7 0 10 -262144 -1 -1 1
1;
#X obj 139 204 != 2;
#X obj 146 225 tgl 15 0 empty empty empty 17 7 0 10 -262144 -1 -1 0
1;
#X obj 289 139 s \$0-tonegrid;
#X text 316 118 to [pd playback] > [speed];
#X text 242 169 to [pd recycle] > [pd forward-ticks];
#X msg 40 165 color 14 14 0;
#N canvas 268 108 197 262 helpbutton 0;
#X obj 12 24 inlet;
#X obj 12 62 sel 0 1 2;
#X msg 29 131 synched.timing;
#X msg 12 163 random.timing&speeds;
#X msg 46 101 harmonic.speeds;
#X obj 12 198 s buttonhelp;
#X connect 0 0 1 0;
#X connect 1 0 3 0;
#X connect 1 1 2 0;
#X connect 1 2 4 0;
#X connect 2 0 5 0;
#X connect 3 0 5 0;
#X connect 4 0 5 0;
#X restore 138 104 pd helpbutton;
#X msg 71 63 2;
#X connect 1 0 25 0;
#X connect 2 0 4 0;
#X connect 3 0 4 0;
#X connect 4 0 5 0;
#X connect 4 0 7 0;
#X connect 4 0 13 0;
#X connect 4 0 15 0;
#X connect 4 0 18 0;
#X connect 4 0 24 0;
#X connect 5 0 6 0;
#X connect 6 0 4 1;
#X connect 7 0 9 0;
#X connect 7 1 23 0;
#X connect 7 2 11 0;
#X connect 8 0 10 0;
#X connect 9 0 8 0;
#X connect 11 0 10 0;
#X connect 13 0 14 0;
#X connect 13 0 16 0;
#X connect 15 0 17 0;
#X connect 15 0 20 0;
#X connect 18 0 12 0;
#X connect 18 0 19 0;
#X connect 23 0 10 0;
#X connect 25 0 4 0;
#X restore 102 237 pd pattern;
#X obj 70 50 bng 50 250 50 0 \$0-snslices \$0-rnslices 8 18 27 1 25
-195568 -260818 -1;
#N canvas 276 199 261 398 nslices 0;
#X obj 18 214 pow;
#X obj 18 162 t b f;
#X msg 18 188 2;
#X obj 18 305 makesymbol;
#X msg 18 334 label \$1;
#X obj 31 35 loadbang;
#X obj 18 11 r \$0-snslices;
#X obj 44 249 s \$0-nslices;
#X obj 29 136 s \$0-log2slices;
#X obj 18 361 s \$0-rnslices;
#X msg 95 332 color \$1 \$2 \$3;
#X obj 110 11 r nslices-slicycle\$1;
#X obj 95 309 pack \$2 14 22;
#X msg 140 123 nr.of.slices;
#X obj 140 147 s buttonhelp;
#X obj 18 83 tgl 15 0 empty empty empty 17 7 0 10 -262144 -1 -1 1 1
;
#X obj 18 106 + 2;
#X msg 31 57 1;
#N canvas 249 116 386 393 avoid-stale-cuepoints 0;
#X obj 28 97 r \$0-cueindex;
#X obj 43 144 + 1;
#X obj 28 184 f 0;
#X msg 135 146 0;
#X obj 28 209 sel 3;
#X obj 28 314 tabwrite \$0-cuepoints;
#X obj 28 259 t b f;
#X msg 28 287 -1;
#X msg 28 121 bang;
#X obj 116 9 inlet;
#X obj 116 36 t f f b;
#X obj 135 95 -;
#X obj 155 65 f;
#X obj 135 120 moses 0;
#X obj 110 209 s \$0-resetcueindex;
#X msg 110 181 bang;
#X obj 28 234 for++ 8 32;
#X msg 174 146 4;
#X text 25 345 when some slices are recorded \, clear old cuepoints
higher than nr of slices;
#X connect 0 0 8 0;
#X connect 1 0 2 1;
#X connect 2 0 1 0;
#X connect 2 0 4 0;
#X connect 3 0 2 1;
#X connect 4 0 16 0;
#X connect 6 0 7 0;
#X connect 6 1 5 1;
#X connect 7 0 5 0;
#X connect 8 0 2 0;
#X connect 9 0 10 0;
#X connect 10 0 12 1;
#X connect 10 1 11 0;
#X connect 10 2 12 0;
#X connect 11 0 13 0;
#X connect 12 0 11 1;
#X connect 12 0 16 0;
#X connect 13 0 3 0;
#X connect 13 0 15 0;
#X connect 13 1 17 0;
#X connect 15 0 14 0;
#X connect 16 0 6 0;
#X connect 17 0 2 1;
#X restore 32 276 pd avoid-stale-cuepoints;
#X connect 0 0 3 0;
#X connect 0 0 7 0;
#X connect 0 0 18 0;
#X connect 1 0 2 0;
#X connect 1 1 0 1;
#X connect 2 0 0 0;
#X connect 3 0 4 0;
#X connect 4 0 9 0;
#X connect 5 0 12 0;
#X connect 5 0 17 0;
#X connect 6 0 15 0;
#X connect 10 0 9 0;
#X connect 11 0 15 0;
#X connect 12 0 10 0;
#X connect 13 0 14 0;
#X connect 15 0 16 0;
#X connect 16 0 1 0;
#X connect 16 0 8 0;
#X connect 16 0 13 0;
#X connect 17 0 15 0;
#X restore 83 23 pd nslices;
#N canvas 178 333 390 350 filtertype 0;
#X obj 28 109 f;
#X obj 43 61 + 1;
#X obj 43 82 & 3;
#X obj 28 160 sel 0 1 2 3;
#X obj 77 36 loadbang;
#X msg 77 60 0;
#X obj 28 11 r \$0-sfiltertype;
#X obj 38 134 s \$0-filtertype;
#X obj 28 318 s \$0-rfiltertype;
#X msg 28 265 label all;
#X msg 103 288 color \$1 \$2 \$3;
#X obj 135 11 r filtertype-slicycle\$1;
#X msg 75 184 label hi \, color 14 14 22;
#X msg 59 208 label bnd \, color 14 14 22;
#X msg 43 232 label lo \, color 14 14 22;
#X obj 103 265 pack \$2 1 11;
#X obj 247 163 sel 0 1 2 3;
#X msg 278 213 bandpassfilter;
#X msg 294 190 hipassfilter;
#X msg 247 264 allpassfilter;
#X msg 262 235 lopassfilter;
#X obj 247 291 s buttonhelp;
#X connect 0 0 1 0;
#X connect 0 0 3 0;
#X connect 0 0 7 0;
#X connect 0 0 16 0;
#X connect 1 0 2 0;
#X connect 2 0 0 1;
#X connect 3 0 9 0;
#X connect 3 0 15 0;
#X connect 3 1 14 0;
#X connect 3 2 13 0;
#X connect 3 3 12 0;
#X connect 4 0 5 0;
#X connect 5 0 0 0;
#X connect 6 0 0 0;
#X connect 9 0 8 0;
#X connect 10 0 8 0;
#X connect 11 0 0 0;
#X connect 12 0 8 0;
#X connect 13 0 8 0;
#X connect 14 0 8 0;
#X connect 15 0 10 0;
#X connect 16 0 19 0;
#X connect 16 1 20 0;
#X connect 16 2 17 0;
#X connect 16 3 18 0;
#X connect 17 0 21 0;
#X connect 18 0 21 0;
#X connect 19 0 21 0;
#X connect 20 0 21 0;
#X restore 171 237 pd filtertype;
#N canvas 549 429 418 338 filtermod 0;
#X obj 25 91 f;
#X obj 40 43 + 1;
#X obj 40 64 % 3;
#X obj 25 149 sel 0 1 2;
#X obj 73 42 loadbang;
#X msg 73 65 0;
#X obj 25 16 r \$0-sfiltermod;
#X obj 34 125 s \$0-filtermod;
#X obj 25 303 s \$0-rfiltermod;
#X msg 100 273 color \$1 \$2 \$3;
#X obj 127 16 r filtermod-slicycle\$1;
#X obj 100 250 pack \$2 14 11;
#X obj 221 157 sel 0 1 2;
#X msg 221 244 no.modulation;
#X msg 238 219 step.modulation;
#X msg 255 195 sine.modulation;
#X obj 221 279 s buttonhelp;
#X msg 42 224 label ---- \, color 14 14 22;
#X msg 59 200 label ~~ \, color 14 14 22;
#X msg 25 250 label ----;
#X connect 0 0 1 0;
#X connect 0 0 3 0;
#X connect 0 0 7 0;
#X connect 0 0 12 0;
#X connect 1 0 2 0;
#X connect 2 0 0 1;
#X connect 3 0 19 0;
#X connect 3 0 11 0;
#X connect 3 1 17 0;
#X connect 3 2 18 0;
#X connect 4 0 5 0;
#X connect 5 0 0 0;
#X connect 6 0 0 0;
#X connect 9 0 8 0;
#X connect 10 0 0 0;
#X connect 11 0 9 0;
#X connect 12 0 13 0;
#X connect 12 1 14 0;
#X connect 12 2 15 0;
#X connect 13 0 16 0;
#X connect 14 0 16 0;
#X connect 15 0 16 0;
#X connect 17 0 8 0;
#X connect 18 0 8 0;
#X connect 19 0 8 0;
#X restore 261 237 pd filtermod;
#X obj 170 50 bng 50 100 50 0 \$0-soutput \$0-routput < 13 25 1 40
-195568 -260818 -128992;
#X obj 20 175 bng 50 100 50 0 \$0-sinterrupt \$0-rinterrupt |||| 10
29 1 30 -195568 -260818 -128992;
#X obj 70 175 bng 50 100 50 0 \$0-spattern \$0-rpattern == 4 25 1 35
-260818 -260818 -1;
#X obj 170 175 bng 50 100 50 0 \$0-sfiltermod \$0-rfiltermod ---- 0
27 1 40 -195568 -260818 -128992;
#X obj 120 175 bng 50 100 50 0 \$0-sfiltertype \$0-rfiltertype all
12 26 1 20 -195568 -166441 -128992;
#N canvas 363 316 218 329 recycle 0;
#X obj 19 83 tgl 15 0 empty empty empty 17 7 0 10 -262144 -1 -1 0 1
;
#X obj 32 36 loadbang;
#X msg 32 60 1;
#X obj 19 10 r \$0-soutput;
#X obj 19 302 s \$0-routput;
#X obj 19 196 sel 0 1;
#X msg 19 274 color \$1 \$2 \$3;
#X obj 74 59 r recycle-slicycle\$1;
#X obj 38 247 pack 14 14 22;
#X obj 19 222 pack \$2 14 11;
#N canvas 739 345 220 265 forward-ticks 0;
#X obj 51 51 inlet;
#X obj 18 76 spigot;
#X obj 18 16 r globalticks;
#X obj 66 77 tgl 15 0 empty empty empty 17 7 0 10 -262144 -1 -1 0 1
;
#X obj 18 197 pipe 0;
#X obj 51 142 bang;
#X obj 51 116 spigot;
#X obj 98 78 t b f;
#X msg 98 143 0;
#X obj 51 167 random 400;
#X obj 18 233 s \$0-localticks;
#X obj 98 51 r \$0-randomtrigger;
#X obj 125 107 tgl 15 0 empty empty empty 17 7 0 10 -262144 -1 -1 0
1;
#X connect 0 0 1 1;
#X connect 0 0 3 0;
#X connect 1 0 4 0;
#X connect 1 0 6 0;
#X connect 2 0 1 0;
#X connect 4 0 10 0;
#X connect 5 0 9 0;
#X connect 6 0 5 0;
#X connect 7 0 8 0;
#X connect 7 1 6 1;
#X connect 7 1 12 0;
#X connect 8 0 4 1;
#X connect 9 0 4 1;
#X connect 11 0 7 0;
#X restore 29 138 pd forward-ticks;
#X obj 47 108 s \$0-recyclestatus;
#X msg 113 172 recycle.slices;
#X obj 113 199 s buttonhelp;
#X connect 0 0 10 0;
#X connect 0 0 5 0;
#X connect 0 0 11 0;
#X connect 0 0 12 0;
#X connect 1 0 2 0;
#X connect 2 0 0 0;
#X connect 3 0 0 0;
#X connect 5 0 9 0;
#X connect 5 1 8 0;
#X connect 6 0 4 0;
#X connect 7 0 0 0;
#X connect 8 0 6 0;
#X connect 9 0 6 0;
#X connect 12 0 13 0;
#X restore 247 23 pd recycle;
#N canvas 879 111 326 306 slicycle 0;
#N canvas 286 410 408 327 cuepoints 0;
#X obj 15 56 change;
#X obj 15 30 inlet;
#X obj 114 216 f;
#X obj 114 238 + 1;
#X obj 49 216 f;
#X obj 15 81 t f b b b;
#X obj 148 192 * 2;
#X text 13 292 write pairs of start- and stop points;
#X obj 312 181 outlet monitor;
#X obj 293 32 inlet;
#X obj 293 70 sel 0 1;
#X text 49 30 start&stop points;
#X msg 294 262 arrayviewlistnew;
#X obj 190 141 - 1;
#X floatatom 218 141 5 0 0 0 - - -;
#X obj 163 116 + 1;
#X obj 148 140 f 0;
#X obj 148 165 & 7;
#X msg 169 84 0;
#X msg 312 92 color 22 8 13;
#X msg 293 121 color 22 11 13;
#X obj 66 116 s \$0-newpoint;
#X obj 190 115 r \$0-nslices;
#X obj 169 62 r \$0-resetcueindex;
#X obj 294 291 s \$0-cuepoints;
#X obj 158 264 s \$0-cueindex;
#X obj 15 264 tabwrite \$0-cuepoints;
#X text 335 34 rec status;
#X obj 163 33 r \$0-lastcueindex;
#X obj 293 219 s \$0-recmonitor;
#X connect 0 0 5 0;
#X connect 1 0 0 0;
#X connect 2 0 3 0;
#X connect 3 0 26 1;
#X connect 4 0 26 0;
#X connect 5 0 4 1;
#X connect 5 0 26 0;
#X connect 5 1 2 0;
#X connect 5 2 4 0;
#X connect 5 3 16 0;
#X connect 5 3 21 0;
#X connect 6 0 2 1;
#X connect 6 0 26 1;
#X connect 9 0 10 0;
#X connect 10 0 20 0;
#X connect 10 1 19 0;
#X connect 12 0 24 0;
#X connect 13 0 17 1;
#X connect 15 0 16 1;
#X connect 16 0 17 0;
#X connect 17 0 15 0;
#X connect 17 0 6 0;
#X connect 17 0 8 0;
#X connect 17 0 25 0;
#X connect 17 0 29 0;
#X connect 18 0 16 1;
#X connect 18 0 29 0;
#X connect 19 0 8 0;
#X connect 19 0 29 0;
#X connect 20 0 8 0;
#X connect 20 0 29 0;
#X connect 22 0 13 0;
#X connect 22 0 14 0;
#X connect 23 0 18 0;
#X connect 28 0 16 1;
#X connect 28 0 29 0;
#X restore 14 168 pd cuepoints;
#N canvas 131 315 230 349 receive-settings 0;
#X obj 36 322 outlet;
#X msg 68 292 timeconstant \$1;
#X msg 36 58 attackstep \$1;
#X msg 70 213 silencethresh \$1;
#X msg 55 133 attackthresh \$1;
#X floatatom 44 38 5 0 0 0 - - -;
#X floatatom 64 111 5 0 0 0 - - -;
#X floatatom 79 192 5 0 0 0 - - -;
#X floatatom 76 271 5 0 0 0 - - -;
#X obj 36 17 r attackstep;
#X obj 55 90 r attackthreshold;
#X obj 70 169 r silencethreshold;
#X obj 68 248 r timeconstant;
#X connect 1 0 0 0;
#X connect 2 0 0 0;
#X connect 3 0 0 0;
#X connect 4 0 0 0;
#X connect 9 0 2 0;
#X connect 9 0 5 0;
#X connect 10 0 4 0;
#X connect 10 0 6 0;
#X connect 11 0 3 0;
#X connect 11 0 7 0;
#X connect 12 0 1 0;
#X connect 12 0 8 0;
#X restore 23 81 pd receive-settings;
#X obj 13 272 outlet~;
#N canvas 764 302 297 206 manual-start 0;
#X obj 26 171 outlet;
#X obj 26 140 spigot;
#X obj 26 49 r module-\$1;
#X obj 26 77 route start;
#X text 25 18 manual rec start \, triggered from keyboard;
#X obj 59 110 r \$0-input;
#X connect 1 0 0 0;
#X connect 2 0 3 0;
#X connect 3 0 1 0;
#X connect 5 0 1 1;
#X restore 48 107 pd manual-start;
#N canvas 391 347 417 396 beats 0;
#X obj 208 321 pack;
#X obj 22 364 outlet~;
#X obj 235 219 * 2;
#X obj 235 243 + 1;
#X obj 208 243 f;
#X obj 208 194 t b f;
#X obj 22 111 int;
#X obj 208 77 spigot;
#X text 254 76 no trigger when speed = 0;
#X text 45 151 modulate;
#X obj 22 196 +;
#N canvas 57 255 398 404 Fourierpatterns 0;
#X obj 33 35 inlet;
#X obj 92 35 inlet;
#X obj 119 293 outlet;
#X obj 92 188 >> 1;
#X floatatom 127 189 5 0 100 0 - - -;
#X obj 206 38 hradio 15 1 1 4 empty empty empty 0 -8 0 10 -262144 -260097
-1 3;
#N canvas 520 141 185 269 changepattern 0;
#X obj 15 10 inlet;
#X obj 15 78 +;
#X obj 15 206 outlet;
#X obj 15 156 << 1;
#X obj 110 10 inlet;
#X obj 110 207 outlet;
#X text 107 227 pattern nr;
#X text 48 130 pattern nr;
#X text 50 154 upsample;
#X text 50 179 make odd;
#X text 9 226 odd numbers;
#X obj 15 131 & 3;
#X obj 15 103 + 4;
#N canvas 600 122 247 300 increment 0;
#X obj 26 19 inlet;
#X obj 26 48 delta;
#X obj 26 75 clip -1 1;
#X obj 70 235 spigot;
#X msg 53 209 0;
#X msg 104 153 stop;
#X obj 103 181 delay 400;
#X obj 53 128 t b f b b;
#X msg 103 209 1;
#X obj 26 102 sel 0;
#X obj 174 180 loadbang;
#X obj 70 264 outlet;
#X connect 0 0 1 0;
#X connect 1 0 2 0;
#X connect 2 0 9 0;
#X connect 3 0 11 0;
#X connect 4 0 3 1;
#X connect 5 0 6 0;
#X connect 6 0 8 0;
#X connect 7 0 4 0;
#X connect 7 1 3 0;
#X connect 7 2 6 0;
#X connect 7 3 5 0;
#X connect 8 0 3 1;
#X connect 9 1 7 0;
#X connect 10 0 8 0;
#X restore 15 40 pd increment;
#X obj 15 181 + 5;
#X connect 0 0 13 0;
#X connect 1 0 12 0;
#X connect 3 0 14 0;
#X connect 4 0 3 0;
#X connect 4 0 5 0;
#X connect 11 0 1 1;
#X connect 11 0 3 0;
#X connect 11 0 5 0;
#X connect 12 0 11 0;
#X connect 13 0 1 0;
#X connect 14 0 2 0;
#X restore 113 66 pd changepattern;
#N canvas 1003 81 136 170 shift 0;
#X msg 13 67 4;
#X obj 13 42 t b f;
#X obj 13 92 -;
#X obj 13 118 outlet;
#X obj 13 20 r \$0-log2slices;
#X connect 0 0 2 0;
#X connect 1 0 0 0;
#X connect 1 1 2 1;
#X connect 2 0 3 0;
#X connect 4 0 1 0;
#X restore 113 162 pd shift to nr of slices;
#X text 13 14 speed fader;
#X obj 206 292 outlet;
#X text 25 337 There are 16 unique Fourier patterns for a 16 pt array.
Of these \, 8 patterns contain only even numbers. These patterns are
not used.;
#X obj 278 292 outlet;
#X text 190 271 pattern nr;
#X text 202 17 change pattern by hand;
#X obj 92 214 t f f;
#X obj 92 141 & 15;
#X text 262 314 for cuepoint trigger;
#X text 43 313 for playback speed;
#X obj 119 241 +;
#X obj 278 263 & 7;
#X floatatom 127 92 5 0 100 0 - - -;
#X obj 293 236 - 1;
#X text 177 188 downsampled Fourier pattern;
#X obj 92 92 * 13;
#X obj 232 118 bang;
#X floatatom 278 98 5 0 0 0 - - -;
#X text 229 57 randomize playback speed;
#X obj 232 141 random 8;
#X obj 232 97 spigot;
#X obj 265 74 r \$0-randompattern;
#X text 91 14 ticks;
#X floatatom 33 109 5 0 0 0 - - -;
#X obj 293 212 r \$0-nslices;
#X floatatom 326 282 5 0 0 0 - - -;
#X obj 119 268 & 7;
#X connect 0 0 6 0;
#X connect 0 0 18 1;
#X connect 1 0 23 0;
#X connect 1 0 28 0;
#X connect 1 0 31 0;
#X connect 3 0 14 0;
#X connect 5 0 6 1;
#X connect 6 0 20 0;
#X connect 6 0 23 1;
#X connect 6 1 9 0;
#X connect 7 0 3 1;
#X connect 7 0 4 0;
#X connect 14 0 19 0;
#X connect 14 1 18 0;
#X connect 15 0 3 0;
#X connect 18 0 34 0;
#X connect 19 0 11 0;
#X connect 19 0 33 0;
#X connect 21 0 19 1;
#X connect 23 0 15 0;
#X connect 24 0 27 0;
#X connect 27 0 18 1;
#X connect 28 0 24 0;
#X connect 29 0 28 1;
#X connect 29 0 25 0;
#X connect 29 0 24 0;
#X connect 32 0 21 0;
#X connect 34 0 2 0;
#X restore 103 128 pd Fourierpatterns;
#X obj 103 152 *;
#X obj 32 169 t b f;
#X floatatom 35 292 5 0 0 0 - - -;
#N canvas 840 288 245 299 speed 0;
#X obj 24 16 inlet;
#X obj 143 267 outlet;
#X obj 143 190 * 0.0078125;
#X obj 143 216 * 0.25;
#X obj 75 191 >> 7;
#X obj 75 216 * 0.25;
#X obj 24 163 moses 128;
#X obj 24 192 >> 6;
#X obj 24 216 * 0.125;
#X obj 24 137 + 63;
#X obj 188 86 != 1;
#X obj 69 87 == 1;
#X obj 143 112 spigot 1;
#X text 24 239 harmonic speeds;
#X text 148 240 all speeds;
#X obj 24 112 spigot 1;
#X obj 24 57 f;
#X obj 63 40 t b f;
#X obj 63 16 r \$0-tonegrid;
#X connect 0 0 16 0;
#X connect 2 0 3 0;
#X connect 3 0 1 0;
#X connect 4 0 5 0;
#X connect 5 0 1 0;
#X connect 6 0 7 0;
#X connect 6 1 4 0;
#X connect 7 0 8 0;
#X connect 8 0 1 0;
#X connect 9 0 6 0;
#X connect 10 0 12 1;
#X connect 11 0 15 1;
#X connect 12 0 2 0;
#X connect 15 0 9 0;
#X connect 16 0 15 0;
#X connect 16 0 12 0;
#X connect 17 0 16 0;
#X connect 17 1 10 0;
#X connect 17 1 11 0;
#X connect 18 0 17 0;
#X restore 22 221 pd speed;
#N canvas 556 127 196 206 reverse 0;
#X obj 14 18 inlet;
#X obj 61 18 inlet;
#X obj 14 135 * 1;
#X obj 14 171 outlet;
#X msg 106 105 1;
#X obj 61 105 f -1;
#X obj 82 79 r enable-reverse;
#X obj 61 50 sel 0 14;
#X connect 0 0 2 0;
#X connect 1 0 7 0;
#X connect 2 0 3 0;
#X connect 4 0 2 1;
#X connect 5 0 2 1;
#X connect 6 0 5 1;
#X connect 7 0 5 0;
#X connect 7 1 5 0;
#X connect 7 2 4 0;
#X restore 22 246 pd reverse;
#N canvas 443 343 206 178 settings 0;
#X obj 17 146 outlet;
#X obj 17 17 r \$0-amplitude-compensation;
#X msg 17 63 compensation \$1;
#X floatatom 27 42 5 0 0 0 - - -;
#X msg 32 117 interrupt \$1;
#X obj 32 87 r \$0-interrupt;
#X connect 1 0 2 0;
#X connect 1 0 3 0;
#X connect 2 0 0 0;
#X connect 4 0 0 0;
#X connect 5 0 4 0;
#X restore 32 313 pd settings;
#X obj 22 87 << 1;
#X obj 22 37 unpack;
#X obj 118 54 - 475;
#X obj 22 338 sliceplay~ \$0-audio;
#X obj 229 267 tabread \$0-cuepoints;
#X obj 208 295 tabread \$0-cuepoints;
#X obj 22 9 r beat\$1;
#N canvas 0 22 213 158 globalpitcher 0;
#X obj 6 24 inlet;
#X obj 6 114 outlet;
#X obj 6 86 * 1;
#X obj 21 52 r globalpitcher;
#X connect 0 0 2 0;
#X connect 2 0 1 0;
#X connect 3 0 2 1;
#X restore 22 270 pd globalpitcher;
#X obj 208 16 inlet;
#X obj 118 77 * -0.25;
#X connect 0 0 21 1;
#X connect 2 0 3 0;
#X connect 2 0 4 1;
#X connect 3 0 22 0;
#X connect 4 0 23 0;
#X connect 5 0 4 0;
#X connect 5 1 2 0;
#X connect 6 0 10 0;
#X connect 6 0 11 0;
#X connect 6 0 7 1;
#X connect 7 0 11 1;
#X connect 10 0 15 0;
#X connect 11 0 12 0;
#X connect 11 0 16 1;
#X connect 11 2 5 0;
#X connect 12 0 13 0;
#X connect 13 0 10 0;
#X connect 13 1 10 1;
#X connect 15 0 16 0;
#X connect 16 0 25 0;
#X connect 17 0 21 0;
#X connect 18 0 6 0;
#X connect 19 0 18 0;
#X connect 19 1 20 0;
#X connect 20 0 27 0;
#X connect 21 0 1 0;
#X connect 22 0 0 1;
#X connect 23 0 0 0;
#X connect 24 0 19 0;
#X connect 25 0 21 0;
#X connect 25 0 14 0;
#X connect 26 0 7 0;
#X connect 27 0 12 1;
#X restore 13 247 pd beats;
#X obj 79 272 outlet~;
#X obj 153 274 outlet~;
#N canvas 622 249 390 386 quavers 0;
#X obj 221 304 pack;
#X obj 14 353 outlet~;
#X obj 248 197 * 2;
#X obj 248 221 + 1;
#X obj 221 221 f;
#X obj 221 172 t b f;
#X obj 14 82 int;
#X obj 221 40 spigot;
#X text 169 351 no trigger when speed = 0;
#X text 142 131 modulate;
#X obj 24 148 t b f;
#X obj 14 175 +;
#X obj 236 146 hradio 15 1 0 8 empty empty empty 0 -8 0 10 -262144
-260097 -1 0;
#N canvas 268 22 395 417 Fourierpatterns 0;
#X obj 33 35 inlet;
#X obj 92 35 inlet;
#X obj 119 316 outlet;
#X obj 206 38 hradio 15 1 1 4 empty empty empty 0 -8 0 10 -262144 -260097
-1 3;
#X text 13 14 speed fader;
#X text 91 14 triggers;
#X obj 190 317 outlet;
#X text 202 17 change pattern by hand;
#X obj 92 196 t f f;
#X obj 92 116 & 15;
#X obj 119 224 +;
#X obj 190 290 & 7;
#X floatatom 127 92 5 0 100 0 - - -;
#X obj 205 264 - 1;
#N canvas 541 352 199 316 changepattern 0;
#X obj 29 11 inlet;
#X obj 29 257 outlet;
#X obj 92 11 inlet;
#X obj 111 256 outlet;
#X text 104 277 pattern nr;
#X text 57 151 pattern nr;
#N canvas 600 122 247 300 increment 0;
#X obj 26 19 inlet;
#X obj 26 48 delta;
#X obj 26 75 clip -1 1;
#X obj 70 235 spigot;
#X msg 53 209 0;
#X msg 104 153 stop;
#X obj 103 181 delay 400;
#X obj 53 128 t b f b b;
#X msg 103 209 1;
#X obj 26 102 sel 0;
#X obj 174 180 loadbang;
#X obj 70 264 outlet;
#X connect 0 0 1 0;
#X connect 1 0 2 0;
#X connect 2 0 9 0;
#X connect 3 0 11 0;
#X connect 4 0 3 1;
#X connect 5 0 6 0;
#X connect 6 0 8 0;
#X connect 7 0 4 0;
#X connect 7 1 3 0;
#X connect 7 2 6 0;
#X connect 7 3 5 0;
#X connect 8 0 3 1;
#X connect 9 1 7 0;
#X connect 10 0 8 0;
#X restore 29 41 pd increment;
#X obj 29 152 f;
#X obj 29 70 +;
#X text 20 278 'frequency';
#X obj 29 179 << 1;
#X floatatom 38 205 5 0 0 0 - - -;
#X obj 29 123 & 3;
#X obj 29 95 + 4;
#X obj 29 230 + 5;
#X connect 0 0 6 0;
#X connect 2 0 7 0;
#X connect 6 0 8 0;
#X connect 7 0 3 0;
#X connect 7 0 10 0;
#X connect 8 0 13 0;
#X connect 10 0 11 0;
#X connect 10 0 14 0;
#X connect 12 0 8 1;
#X connect 12 0 7 0;
#X connect 13 0 12 0;
#X connect 14 0 1 0;
#X restore 113 67 pd changepattern;
#X obj 92 92 * 13;
#X obj 134 196 f;
#N canvas 355 249 159 190 shift 0;
#X msg 36 81 4;
#X obj 36 56 t b f;
#X obj 36 106 -;
#X obj 15 156 outlet;
#X obj 15 132 >> 1;
#X obj 15 10 inlet;
#X obj 36 32 r \$0-log2slices;
#X connect 0 0 2 0;
#X connect 1 0 0 0;
#X connect 1 1 2 1;
#X connect 2 0 4 1;
#X connect 4 0 3 0;
#X connect 5 0 4 0;
#X connect 6 0 1 0;
#X restore 108 146 pd shift to nr of slices;
#N canvas 727 189 320 223 variation 0;
#X obj 24 27 r \$0-localticks;
#X obj 24 138 outlet;
#X obj 153 138 outlet;
#X text 24 154 restore;
#X obj 153 111 random 8;
#X obj 24 55 & 127;
#X obj 153 84 bang;
#X text 22 193 randomize playback speed;
#X obj 153 57 spigot;
#X obj 197 57 sel 0;
#X text 152 155 vary;
#X obj 24 83 sel 0 119;
#X obj 186 30 r \$0-randompattern;
#X connect 0 0 5 0;
#X connect 0 0 8 0;
#X connect 4 0 2 0;
#X connect 5 0 11 0;
#X connect 6 0 4 0;
#X connect 8 0 6 0;
#X connect 9 0 1 0;
#X connect 11 0 1 0;
#X connect 11 1 4 0;
#X connect 12 0 8 1;
#X connect 12 0 9 0;
#X restore 134 169 pd variation;
#X text 22 371 There are 16 unique Fourier patterns for a 16 pt array.
Of these \, 4 patterns are used.;
#X text 188 336 slice selection pattern;
#X text 14 336 speed modulation pattern;
#X obj 205 241 r \$0-nslices;
#X floatatom 131 248 5 0 0 0 - - -;
#X floatatom 152 223 5 0 0 0 - - -;
#X floatatom 127 296 5 0 0 0 - - -;
#X floatatom 75 228 5 0 0 0 - - -;
#X floatatom 241 300 5 0 0 0 - - -;
#X obj 119 269 & 7;
#X connect 0 0 14 0;
#X connect 0 0 16 0;
#X connect 1 0 15 0;
#X connect 3 0 14 1;
#X connect 8 0 26 0;
#X connect 8 1 10 0;
#X connect 9 0 17 0;
#X connect 10 0 11 0;
#X connect 10 0 23 0;
#X connect 10 0 28 0;
#X connect 11 0 6 0;
#X connect 11 0 27 0;
#X connect 13 0 11 1;
#X connect 14 0 15 1;
#X connect 14 0 12 0;
#X connect 15 0 9 0;
#X connect 16 0 10 1;
#X connect 16 0 24 0;
#X connect 17 0 8 0;
#X connect 18 0 16 0;
#X connect 18 1 10 1;
#X connect 22 0 13 0;
#X connect 28 0 2 0;
#X connect 28 0 25 0;
#X restore 116 99 pd Fourierpatterns;
#X obj 116 131 *;
#X text 235 123 play slices by hand;
#X floatatom 25 272 5 0 0 0 - - -;
#N canvas 478 328 245 299 speed 0;
#X obj 24 16 inlet;
#X obj 143 267 outlet;
#X obj 143 190 * 0.0078125;
#X obj 143 216 * 0.25;
#X obj 75 191 >> 7;
#X obj 75 216 * 0.25;
#X obj 24 163 moses 128;
#X obj 24 192 >> 6;
#X obj 24 216 * 0.125;
#X obj 24 137 + 63;
#X obj 24 112 spigot;
#X obj 188 86 != 1;
#X obj 57 87 == 1;
#X obj 24 58 f;
#X obj 143 112 spigot 1;
#X obj 63 41 t b f;
#X text 24 239 harmonic speeds;
#X text 148 240 all speeds;
#X obj 63 16 r \$0-tonegrid;
#X connect 0 0 13 0;
#X connect 2 0 3 0;
#X connect 3 0 1 0;
#X connect 4 0 5 0;
#X connect 5 0 1 0;
#X connect 6 0 7 0;
#X connect 6 1 4 0;
#X connect 7 0 8 0;
#X connect 8 0 1 0;
#X connect 9 0 6 0;
#X connect 10 0 9 0;
#X connect 11 0 14 1;
#X connect 12 0 10 1;
#X connect 13 0 10 0;
#X connect 13 0 14 0;
#X connect 14 0 2 0;
#X connect 15 0 13 0;
#X connect 15 1 12 0;
#X connect 15 1 11 0;
#X connect 18 0 15 0;
#X restore 14 200 pd speed;
#N canvas 556 127 200 217 reverse 0;
#X obj 24 28 inlet;
#X obj 71 28 inlet;
#X obj 24 145 * 1;
#X obj 24 181 outlet;
#X msg 116 115 1;
#X obj 71 115 f -1;
#X obj 92 89 r enable-reverse;
#X obj 71 60 sel 1 15;
#X connect 0 0 2 0;
#X connect 1 0 7 0;
#X connect 2 0 3 0;
#X connect 4 0 2 1;
#X connect 5 0 2 1;
#X connect 6 0 5 1;
#X connect 7 0 5 0;
#X connect 7 1 5 0;
#X connect 7 2 4 0;
#X restore 14 223 pd reverse;
#X obj 14 59 << 1;
#X obj 14 32 unpack;
#X obj 131 49 - 475;
#X obj 14 321 sliceplay~ \$0-audio;
#X obj 248 248 tabread \$0-cuepoints;
#X obj 221 277 tabread \$0-cuepoints;
#X obj 14 7 r quaver\$1;
#N canvas 443 343 206 178 settings 0;
#X obj 17 146 outlet;
#X obj 17 17 r \$0-amplitude-compensation;
#X msg 17 63 compensation \$1;
#X floatatom 27 42 5 0 0 0 - - -;
#X msg 32 117 interrupt \$1;
#X obj 32 87 r \$0-interrupt;
#X connect 1 0 2 0;
#X connect 1 0 3 0;
#X connect 2 0 0 0;
#X connect 4 0 0 0;
#X connect 5 0 4 0;
#X restore 23 297 pd settings;
#N canvas 0 22 213 158 globalpitcher 0;
#X obj 6 24 inlet;
#X obj 6 114 outlet;
#X obj 6 86 * 1;
#X obj 21 52 r globalpitcher;
#X connect 0 0 2 0;
#X connect 2 0 1 0;
#X connect 3 0 2 1;
#X restore 14 249 pd globalpitcher;
#X obj 221 8 inlet;
#X obj 131 73 * -0.25;
#X connect 0 0 22 1;
#X connect 2 0 3 0;
#X connect 2 0 4 1;
#X connect 3 0 23 0;
#X connect 4 0 24 0;
#X connect 5 0 4 0;
#X connect 5 1 2 0;
#X connect 6 0 11 0;
#X connect 6 0 13 0;
#X connect 6 0 7 1;
#X connect 7 0 13 1;
#X connect 10 0 11 0;
#X connect 10 1 11 1;
#X connect 11 0 17 0;
#X connect 12 0 5 0;
#X connect 13 0 14 0;
#X connect 13 0 18 1;
#X connect 13 1 5 0;
#X connect 14 0 10 0;
#X connect 17 0 18 0;
#X connect 18 0 27 0;
#X connect 19 0 6 0;
#X connect 20 0 19 0;
#X connect 20 1 21 0;
#X connect 21 0 29 0;
#X connect 22 0 1 0;
#X connect 23 0 0 1;
#X connect 24 0 0 0;
#X connect 25 0 20 0;
#X connect 26 0 22 0;
#X connect 27 0 22 0;
#X connect 27 0 16 0;
#X connect 28 0 7 0;
#X connect 29 0 14 1;
#X restore 79 246 pd quavers;
#N canvas 381 333 399 404 semiquavers 0;
#X obj 233 294 pack;
#X obj 18 373 outlet~;
#X obj 260 174 * 2;
#X obj 260 198 + 1;
#X obj 233 198 f;
#X obj 233 144 t b f;
#X obj 18 97 int;
#X obj 233 42 spigot;
#X text 168 372 no trigger when speed = 0;
#X obj 18 193 +;
#X obj 261 116 hradio 15 1 0 8 empty empty empty 0 -8 0 10 -262144
-260097 -1 0;
#X obj 128 143 *;
#X obj 32 160 t b f;
#X text 270 140 play slices by hand;
#N canvas 798 314 245 299 speed 0;
#X obj 24 11 inlet;
#X obj 143 267 outlet;
#X obj 143 190 * 0.0078125;
#X obj 143 216 * 0.25;
#X obj 75 191 >> 7;
#X obj 75 216 * 0.25;
#X obj 24 163 moses 128;
#X obj 24 192 >> 6;
#X obj 24 216 * 0.125;
#X obj 24 137 + 63;
#X obj 24 112 spigot;
#X obj 188 86 != 1;
#X obj 57 87 == 1;
#X obj 24 57 f;
#X obj 143 112 spigot 1;
#X obj 62 40 t b f;
#X text 24 239 harmonic speeds;
#X text 148 240 all speeds;
#X obj 62 11 r \$0-tonegrid;
#X connect 0 0 13 0;
#X connect 2 0 3 0;
#X connect 3 0 1 0;
#X connect 4 0 5 0;
#X connect 5 0 1 0;
#X connect 6 0 7 0;
#X connect 6 1 4 0;
#X connect 7 0 8 0;
#X connect 8 0 1 0;
#X connect 9 0 6 0;
#X connect 10 0 9 0;
#X connect 11 0 14 1;
#X connect 12 0 10 1;
#X connect 13 0 10 0;
#X connect 13 0 14 0;
#X connect 14 0 2 0;
#X connect 15 0 13 0;
#X connect 15 1 12 0;
#X connect 15 1 11 0;
#X connect 18 0 15 0;
#X restore 18 217 pd speed;
#X floatatom 27 291 5 0 0 0 - - -;
#N canvas 556 127 220 202 reverse 0;
#X obj 23 17 inlet;
#X obj 70 17 inlet;
#X obj 23 134 * 1;
#X obj 23 170 outlet;
#X msg 115 104 1;
#X obj 70 104 f -1;
#X obj 91 78 r enable-reverse;
#X obj 70 49 sel 2 14;
#X connect 0 0 2 0;
#X connect 1 0 7 0;
#X connect 2 0 3 0;
#X connect 4 0 2 1;
#X connect 5 0 2 1;
#X connect 6 0 5 1;
#X connect 7 0 5 0;
#X connect 7 1 5 0;
#X connect 7 2 4 0;
#X restore 18 243 pd reverse;
#N canvas 566 327 376 381 Fourierpatterns 0;
#X obj 33 35 inlet;
#X obj 92 35 inlet;
#X obj 92 291 outlet;
#X obj 206 38 hradio 15 1 1 4 empty empty empty 0 -8 0 10 -262144 -260097
-1 3;
#X text 13 14 speed fader;
#X text 91 14 triggers;
#X obj 190 292 outlet;
#X text 202 17 change pattern by hand;
#X obj 92 116 & 15;
#X obj 92 224 +;
#X obj 190 267 & 7;
#X floatatom 127 92 5 0 100 0 - - -;
#X obj 205 244 - 1;
#N canvas 927 464 178 311 changepattern 0;
#X obj 29 11 inlet;
#X obj 29 259 outlet;
#X obj 92 11 inlet;
#X obj 111 258 outlet;
#X text 104 279 pattern nr;
#X text 57 151 pattern nr;
#N canvas 407 442 247 300 increment 0;
#X obj 26 19 inlet;
#X obj 26 48 delta;
#X obj 26 75 clip -1 1;
#X obj 70 235 spigot;
#X msg 53 209 0;
#X msg 104 153 stop;
#X obj 103 181 delay 400;
#X obj 53 128 t b f b b;
#X msg 103 209 1;
#X obj 26 102 sel 0;
#X obj 174 180 loadbang;
#X obj 70 264 outlet;
#X connect 0 0 1 0;
#X connect 1 0 2 0;
#X connect 2 0 9 0;
#X connect 3 0 11 0;
#X connect 4 0 3 1;
#X connect 5 0 6 0;
#X connect 6 0 8 0;
#X connect 7 0 4 0;
#X connect 7 1 3 0;
#X connect 7 2 6 0;
#X connect 7 3 5 0;
#X connect 8 0 3 1;
#X connect 9 1 7 0;
#X connect 10 0 8 0;
#X restore 29 41 pd increment;
#X obj 29 152 f;
#X obj 29 70 +;
#X text 20 280 'frequency';
#X obj 29 179 << 1;
#X floatatom 37 234 5 0 0 0 - - -;
#X obj 29 123 & 3;
#X obj 29 95 + 4;
#X obj 29 205 + 5;
#X connect 0 0 6 0;
#X connect 2 0 7 0;
#X connect 6 0 8 0;
#X connect 7 0 3 0;
#X connect 7 0 10 0;
#X connect 8 0 13 0;
#X connect 10 0 14 0;
#X connect 12 0 8 1;
#X connect 12 0 7 0;
#X connect 13 0 12 0;
#X connect 14 0 1 0;
#X connect 14 0 11 0;
#X restore 113 67 pd changepattern;
#X obj 92 92 * 13;
#X obj 107 196 f;
#N canvas 681 311 159 190 shift 0;
#X msg 36 81 4;
#X obj 36 56 t b f;
#X obj 36 106 -;
#X obj 15 156 outlet;
#X obj 15 132 >> 1;
#X obj 15 10 inlet;
#X obj 36 32 r \$0-log2slices;
#X floatatom 67 156 5 0 0 0 - - -;
#X connect 0 0 2 0;
#X connect 1 0 0 0;
#X connect 1 1 2 1;
#X connect 2 0 4 1;
#X connect 2 0 7 0;
#X connect 4 0 3 0;
#X connect 5 0 4 0;
#X connect 6 0 1 0;
#X restore 92 148 pd shift to nr of slices;
#N canvas 895 126 306 221 variation 0;
#X obj 24 27 r \$0-localticks;
#X obj 24 138 outlet;
#X obj 153 138 outlet;
#X text 24 154 restore;
#X obj 153 111 random 8;
#X obj 153 84 bang;
#X text 22 193 randomize playback speed;
#X obj 153 57 spigot;
#X obj 197 57 sel 0;
#X text 152 155 vary;
#X obj 24 55 & 63;
#X obj 24 83 sel 0 57;
#X obj 186 29 r \$0-randompattern;
#X floatatom 77 220 5 0 0 0 - - -;
#X connect 0 0 7 0;
#X connect 0 0 10 0;
#X connect 4 0 2 0;
#X connect 5 0 4 0;
#X connect 7 0 5 0;
#X connect 8 0 1 0;
#X connect 10 0 11 0;
#X connect 11 0 1 0;
#X connect 11 1 4 0;
#X connect 12 0 7 1;
#X connect 12 0 8 0;
#X restore 107 169 pd variation;
#X text 15 336 There are 16 unique Fourier patterns for a 16 pt array.
Of these \, 4 patterns are used.;
#X text 189 311 slice selection pattern;
#X text 15 311 speed modulation pattern;
#X obj 205 220 r \$0-nslices;
#X obj 92 262 & 7;
#X connect 0 0 13 0;
#X connect 0 0 15 0;
#X connect 1 0 14 0;
#X connect 3 0 13 1;
#X connect 8 0 16 0;
#X connect 9 0 10 0;
#X connect 9 0 22 0;
#X connect 10 0 6 0;
#X connect 12 0 10 1;
#X connect 13 0 14 1;
#X connect 13 0 11 0;
#X connect 14 0 8 0;
#X connect 15 0 9 1;
#X connect 16 0 9 0;
#X connect 17 0 15 0;
#X connect 17 1 9 1;
#X connect 21 0 12 0;
#X connect 22 0 2 0;
#X restore 128 114 pd Fourierpatterns;
#X obj 18 75 << 1;
#X obj 18 45 unpack;
#X obj 143 62 - 475;
#X obj 18 344 sliceplay~ \$0-audio;
#X obj 18 15 r squaver\$1;
#X obj 260 228 tabread \$0-cuepoints;
#X obj 233 255 tabread \$0-cuepoints;
#N canvas 405 549 206 178 settings 0;
#X obj 17 146 outlet;
#X obj 17 17 r \$0-amplitude-compensation;
#X msg 17 63 compensation \$1;
#X floatatom 27 42 5 0 0 0 - - -;
#X msg 32 117 interrupt \$1;
#X obj 32 87 r \$0-interrupt;
#X connect 1 0 2 0;
#X connect 1 0 3 0;
#X connect 2 0 0 0;
#X connect 4 0 0 0;
#X connect 5 0 4 0;
#X restore 33 316 pd settings;
#N canvas 0 22 213 158 globalpitcher 0;
#X obj 6 24 inlet;
#X obj 6 114 outlet;
#X obj 6 86 * 1;
#X obj 21 52 r globalpitcher;
#X connect 0 0 2 0;
#X connect 2 0 1 0;
#X connect 3 0 2 1;
#X restore 18 268 pd globalpitcher;
#X obj 233 15 inlet;
#X obj 143 87 * -0.25;
#X connect 0 0 21 1;
#X connect 2 0 3 0;
#X connect 2 0 4 1;
#X connect 3 0 23 0;
#X connect 4 0 24 0;
#X connect 5 0 4 0;
#X connect 5 1 2 0;
#X connect 6 0 9 0;
#X connect 6 0 17 0;
#X connect 6 0 7 1;
#X connect 7 0 17 1;
#X connect 9 0 14 0;
#X connect 10 0 5 0;
#X connect 11 0 12 0;
#X connect 12 0 9 0;
#X connect 12 1 9 1;
#X connect 14 0 16 0;
#X connect 16 0 26 0;
#X connect 17 0 11 0;
#X connect 17 0 16 1;
#X connect 17 1 5 0;
#X connect 18 0 6 0;
#X connect 19 0 18 0;
#X connect 19 1 20 0;
#X connect 20 0 28 0;
#X connect 21 0 1 0;
#X connect 22 0 19 0;
#X connect 23 0 0 1;
#X connect 24 0 0 0;
#X connect 25 0 21 0;
#X connect 26 0 21 0;
#X connect 26 0 15 0;
#X connect 27 0 7 0;
#X connect 28 0 11 1;
#X restore 153 247 pd semiquavers;
#N canvas 337 120 432 457 roll 0;
#X obj 265 350 pack;
#X obj 87 421 outlet~;
#X obj 292 243 * 2;
#X obj 292 267 + 1;
#X obj 265 267 f;
#X obj 265 218 t b f;
#X obj 30 95 int;
#X obj 245 33 spigot;
#X text 90 34 no trigger when speed = 0;
#X text 100 101 modulate;
#X obj 30 204 +;
#X obj 277 169 hradio 15 1 0 8 empty empty empty 0 -8 0 10 -262144
-260097 -1 0;
#X obj 140 155 *;
#X obj 44 172 t b f;
#X text 277 153 play slices by hand;
#N canvas 797 310 245 299 speed 0;
#X obj 24 11 inlet;
#X obj 143 267 outlet;
#X obj 143 190 * 0.0078125;
#X obj 143 216 * 0.25;
#X obj 75 191 >> 7;
#X obj 75 216 * 0.25;
#X obj 24 163 moses 128;
#X obj 24 192 >> 6;
#X obj 24 216 * 0.125;
#X obj 24 137 + 63;
#X obj 24 112 spigot;
#X obj 188 86 != 1;
#X obj 57 87 == 1;
#X obj 24 57 f;
#X obj 143 112 spigot 1;
#X obj 62 40 t b f;
#X text 24 239 harmonic speeds;
#X text 148 240 all speeds;
#X obj 62 10 r \$0-tonegrid;
#X connect 0 0 13 0;
#X connect 2 0 3 0;
#X connect 3 0 1 0;
#X connect 4 0 5 0;
#X connect 5 0 1 0;
#X connect 6 0 7 0;
#X connect 6 1 4 0;
#X connect 7 0 8 0;
#X connect 8 0 1 0;
#X connect 9 0 6 0;
#X connect 10 0 9 0;
#X connect 11 0 14 1;
#X connect 12 0 10 1;
#X connect 13 0 10 0;
#X connect 13 0 14 0;
#X connect 14 0 2 0;
#X connect 15 0 13 0;
#X connect 15 1 12 0;
#X connect 15 1 11 0;
#X connect 18 0 15 0;
#X restore 30 228 pd speed;
#X floatatom 101 311 5 0 0 0 - - -;
#N canvas 605 526 225 190 settings 0;
#X obj 17 143 outlet;
#X obj 17 17 r \$0-amplitude-compensation;
#X msg 17 63 compensation \$1;
#X obj 29 88 loadbang;
#X floatatom 27 42 5 0 0 0 - - -;
#X msg 29 115 interrupt 1;
#X connect 1 0 2 0;
#X connect 1 0 4 0;
#X connect 2 0 0 0;
#X connect 3 0 5 0;
#X connect 5 0 0 0;
#X restore 100 338 pd settings;
#N canvas 133 329 384 405 Fourierpatterns 0;
#X obj 33 35 inlet;
#X obj 92 35 inlet;
#X obj 119 297 outlet;
#X obj 206 38 hradio 15 1 1 4 empty empty empty 0 -8 0 10 -262144 -260097
-1 0;
#X text 13 14 speed fader;
#X text 91 14 triggers;
#X obj 190 296 outlet;
#X text 202 17 change pattern by hand;
#X obj 92 196 t f f;
#X obj 92 116 & 15;
#X obj 119 224 +;
#X obj 190 269 & 7;
#X floatatom 127 92 5 0 100 0 - - -;
#X obj 205 246 - 1;
#N canvas 918 148 178 311 changepattern 0;
#X obj 29 11 inlet;
#X obj 29 259 outlet;
#X obj 92 11 inlet;
#X obj 111 258 outlet;
#X text 104 279 pattern nr;
#X text 57 151 pattern nr;
#N canvas 600 122 247 300 increment 0;
#X obj 26 19 inlet;
#X obj 26 48 delta;
#X obj 26 75 clip -1 1;
#X obj 70 235 spigot;
#X msg 53 209 0;
#X msg 104 153 stop;
#X obj 103 181 delay 400;
#X obj 53 128 t b f b b;
#X msg 103 209 1;
#X obj 26 102 sel 0;
#X obj 174 180 loadbang;
#X obj 70 264 outlet;
#X connect 0 0 1 0;
#X connect 1 0 2 0;
#X connect 2 0 9 0;
#X connect 3 0 11 0;
#X connect 4 0 3 1;
#X connect 5 0 6 0;
#X connect 6 0 8 0;
#X connect 7 0 4 0;
#X connect 7 1 3 0;
#X connect 7 2 6 0;
#X connect 7 3 5 0;
#X connect 8 0 3 1;
#X connect 9 1 7 0;
#X connect 10 0 8 0;
#X restore 29 41 pd increment;
#X obj 29 152 f;
#X obj 29 70 +;
#X text 20 280 'frequency';
#X obj 29 179 << 1;
#X floatatom 38 205 5 0 0 0 - - -;
#X obj 29 123 & 3;
#X obj 29 95 + 4;
#X obj 29 232 + 3;
#X connect 0 0 6 0;
#X connect 2 0 7 0;
#X connect 6 0 8 0;
#X connect 7 0 3 0;
#X connect 7 0 10 0;
#X connect 8 0 13 0;
#X connect 10 0 11 0;
#X connect 10 0 14 0;
#X connect 12 0 8 1;
#X connect 12 0 7 0;
#X connect 13 0 12 0;
#X connect 14 0 1 0;
#X restore 113 67 pd changepattern;
#X obj 92 92 * 13;
#X obj 134 196 f;
#N canvas 355 249 159 190 shift 0;
#X obj 36 32 r \$0-log2slices;
#X msg 36 81 4;
#X obj 36 56 t b f;
#X obj 36 106 -;
#X obj 15 156 outlet;
#X obj 15 132 >> 1;
#X obj 15 10 inlet;
#X connect 0 0 2 0;
#X connect 1 0 3 0;
#X connect 2 0 1 0;
#X connect 2 1 3 1;
#X connect 3 0 5 1;
#X connect 5 0 4 0;
#X connect 6 0 5 0;
#X restore 92 143 pd shift to nr of slices;
#N canvas 895 126 309 218 variation 0;
#X obj 24 27 r \$0-localticks;
#X obj 24 138 outlet;
#X obj 153 138 outlet;
#X text 24 154 restore;
#X obj 153 111 random 8;
#X obj 153 84 bang;
#X text 22 193 randomize playback speed;
#X obj 153 57 spigot;
#X obj 197 57 sel 0;
#X text 152 155 vary;
#X obj 24 55 & 63;
#X obj 24 83 sel 0 57;
#X obj 186 30 r \$0-randompattern;
#X connect 0 0 7 0;
#X connect 0 0 10 0;
#X connect 4 0 2 0;
#X connect 5 0 4 0;
#X connect 7 0 5 0;
#X connect 8 0 1 0;
#X connect 10 0 11 0;
#X connect 11 0 1 0;
#X connect 11 1 4 0;
#X connect 12 0 7 1;
#X connect 12 0 8 0;
#X restore 134 169 pd variation;
#X text 15 347 There are 16 unique Fourier patterns for a 16 pt array.
Of these \, 4 patterns are used.;
#X text 188 317 slice selection pattern;
#X text 12 317 speed modulation pattern;
#X obj 119 267 & 15;
#X obj 205 221 r \$0-nslices;
#X floatatom 234 248 5 0 0 0 - - -;
#X connect 0 0 14 0;
#X connect 0 0 16 0;
#X connect 1 0 15 0;
#X connect 3 0 14 1;
#X connect 8 1 10 0;
#X connect 9 0 17 0;
#X connect 10 0 11 0;
#X connect 10 0 22 0;
#X connect 11 0 6 0;
#X connect 13 0 11 1;
#X connect 14 0 15 1;
#X connect 14 0 12 0;
#X connect 15 0 9 0;
#X connect 16 0 10 1;
#X connect 17 0 8 0;
#X connect 18 0 16 0;
#X connect 18 1 10 1;
#X connect 22 0 2 0;
#X connect 23 0 13 0;
#X connect 23 0 24 0;
#X restore 140 127 pd Fourierpatterns;
#X obj 265 194 f;
#N canvas 136 284 174 292 crescendo 0;
#X obj 19 11 inlet~;
#X obj 19 252 outlet~;
#X obj 34 140 line~;
#X obj 34 60 * 2;
#X obj 19 223 *~;
#X obj 83 11 inlet;
#X obj 34 166 *~;
#X floatatom 44 91 5 0 0 0 - - -;
#X obj 34 190 *~;
#X msg 34 115 0.1 \, 1.2 \$1;
#X connect 0 0 4 0;
#X connect 2 0 6 0;
#X connect 2 0 6 1;
#X connect 3 0 9 0;
#X connect 3 0 7 0;
#X connect 4 0 1 0;
#X connect 5 0 3 0;
#X connect 6 0 8 0;
#X connect 6 0 8 1;
#X connect 8 0 4 1;
#X connect 9 0 2 0;
#X restore 87 395 pd crescendo;
#X obj 30 60 << 1;
#X obj 30 36 unpack;
#X obj 155 77 abs;
#X obj 155 53 - 475;
#X obj 87 367 sliceplay~ \$0-audio;
#X obj 292 290 tabread \$0-cuepoints;
#X obj 265 318 tabread \$0-cuepoints;
#X obj 30 10 r squaver\$1;
#N canvas 0 22 213 158 globalpitcher 0;
#X obj 6 24 inlet;
#X obj 6 114 outlet;
#X obj 6 86 * 1;
#X obj 21 52 r globalpitcher;
#X connect 0 0 2 0;
#X connect 2 0 1 0;
#X connect 3 0 2 1;
#X restore 87 282 pd globalpitcher;
#X obj 245 8 inlet;
#X obj 155 101 * 0.25;
#X obj 245 57 random 256;
#X obj 30 253 moses 0.75;
#X obj 265 386 bng 15 50 50 0 empty empty empty 17 7 0 10 -262144 -1
-1;
#N canvas 323 512 195 197 rolltriggers 0;
#X obj 19 16 inlet;
#X obj 19 162 outlet;
#X obj 19 138 bang;
#X obj 19 113 for++ 0 3 200;
#X obj 19 80 t b f;
#X obj 19 48 * 0.666666;
#X floatatom 110 83 8 0 0 0 - - -;
#X connect 0 0 5 0;
#X connect 2 0 1 0;
#X connect 3 0 2 0;
#X connect 4 0 3 0;
#X connect 4 1 3 2;
#X connect 5 0 4 0;
#X connect 5 0 6 0;
#X restore 265 116 pd rolltriggers;
#N canvas 631 393 180 232 rolltiming 0;
#X obj 20 16 inlet;
#X floatatom 48 159 5 0 0 0 - - -;
#X obj 35 122 r ticklength;
#X obj 20 191 outlet;
#X obj 20 94 + 1;
#X obj 20 159 *;
#X obj 20 41 bng 15 250 50 0 empty empty empty 17 7 0 10 -262144 -1
-1;
#X obj 20 66 tgl 15 0 empty empty empty 17 7 0 10 -262144 -1 -1 1 1
;
#X connect 0 0 6 0;
#X connect 2 0 1 0;
#X connect 2 0 5 1;
#X connect 4 0 5 0;
#X connect 5 0 3 0;
#X connect 6 0 7 0;
#X connect 7 0 4 0;
#X restore 265 85 pd rolltiming;
#N canvas 0 22 424 307 delays 0;
#X obj 25 37 inlet~;
#X obj 25 271 outlet~;
#X obj 73 116 delay~ 15000;
#X obj 97 165 delay~ 15000;
#X obj 97 213 delay~ 15000;
#X obj 255 34 inlet;
#X text 299 36 rolltiming;
#X obj 255 58 * 44.1;
#X obj 255 84 moses 15000;
#X obj 318 110 >> 1;
#X obj 318 133 moses 15000;
#X obj 381 156 >> 1;
#X obj 255 173 f;
#X obj 25 74 *~ 0.05;
#X obj 73 139 *~ 2;
#X obj 97 189 *~ 3;
#X obj 97 238 *~ 4;
#X connect 0 0 13 0;
#X connect 2 0 14 0;
#X connect 3 0 15 0;
#X connect 4 0 16 0;
#X connect 5 0 7 0;
#X connect 7 0 8 0;
#X connect 8 0 12 0;
#X connect 8 1 9 0;
#X connect 9 0 10 0;
#X connect 10 0 12 0;
#X connect 10 1 11 0;
#X connect 11 0 12 0;
#X connect 12 0 2 1;
#X connect 12 0 3 1;
#X connect 12 0 4 1;
#X connect 13 0 2 0;
#X connect 13 0 1 0;
#X connect 14 0 3 0;
#X connect 14 0 1 0;
#X connect 15 0 4 0;
#X connect 16 0 1 0;
#X restore 187 409 pd delays;
#X connect 0 0 25 1;
#X connect 0 0 34 0;
#X connect 2 0 3 0;
#X connect 2 0 4 1;
#X connect 3 0 26 0;
#X connect 4 0 27 0;
#X connect 5 0 4 0;
#X connect 5 1 2 0;
#X connect 6 0 10 0;
#X connect 6 0 18 0;
#X connect 6 0 7 1;
#X connect 7 0 32 0;
#X connect 10 0 15 0;
#X connect 11 0 19 0;
#X connect 12 0 13 0;
#X connect 13 0 10 0;
#X connect 13 1 10 1;
#X connect 15 0 33 0;
#X connect 17 0 25 0;
#X connect 18 0 12 0;
#X connect 18 1 19 1;
#X connect 19 0 5 0;
#X connect 20 0 1 0;
#X connect 21 0 6 0;
#X connect 22 0 21 0;
#X connect 22 1 24 0;
#X connect 23 0 31 0;
#X connect 24 0 23 0;
#X connect 25 0 20 0;
#X connect 26 0 0 1;
#X connect 27 0 0 0;
#X connect 28 0 22 0;
#X connect 29 0 25 0;
#X connect 29 0 16 0;
#X connect 30 0 7 0;
#X connect 31 0 12 1;
#X connect 32 0 18 1;
#X connect 32 0 36 0;
#X connect 33 1 29 0;
#X connect 35 0 19 0;
#X connect 36 0 35 0;
#X connect 36 0 20 1;
#X restore 248 247 pd roll;
#X obj 119 170 tgl 15 0 empty empty empty 17 7 0 10 -262144 -1 -1 0
1;
#X msg 167 107 arrayviewlistnew;
#X obj 14 59 *~ 1;
#X obj 46 60 tgl 15 0 empty empty empty 17 7 0 10 -262144 -1 -1 0 1
;
#X obj 35 36 r \$0-inputstatus;
#X obj 14 135 slicerec~ \$0-audio;
#X obj 167 60 table \$0-cuepoints 32;
#X obj 167 132 s \$0-cuepoints;
#X obj 14 8 inlet~;
#X obj 166 35 table \$0-audio 1.05e+06;
#X text 155 216 [playback] subpatches:;
#N canvas 834 430 280 307 ticks 0;
#X obj 6 -81 r \$0-localticks;
#X obj 6 56 >> 1;
#X obj 6 82 change;
#X obj 6 116 >> 1;
#X obj 6 142 change;
#X obj 6 169 outlet;
#X obj 63 169 outlet;
#X obj 135 170 outlet;
#X text 5 189 beats;
#X text 62 190 quavers;
#X text 132 190 s.quavers;
#X obj 210 171 outlet;
#X text 209 190 roll;
#N canvas 808 475 244 247 rollswitch 0;
#X obj 24 9 inlet;
#X obj 24 184 outlet;
#X obj 137 183 outlet;
#X obj 24 157 spigot;
#X obj 57 67 & 31;
#X obj 24 37 t f f;
#X msg 57 124 1;
#X text 24 -10 ticks;
#X text 23 205 ticks;
#X text 133 203 roll bang;
#X obj 78 38 r rollmask;
#X text 149 38 from settings;
#X obj 100 98 sel 30;
#X obj 133 67 r rollselect;
#X msg 100 124 0;
#X floatatom 100 156 5 0 0 0 - - -;
#X obj 57 99 sel 0;
#X connect 0 0 5 0;
#X connect 3 0 1 0;
#X connect 4 0 12 0;
#X connect 4 0 16 0;
#X connect 5 0 3 0;
#X connect 5 1 4 0;
#X connect 6 0 3 1;
#X connect 6 0 15 0;
#X connect 10 0 4 1;
#X connect 12 0 14 0;
#X connect 12 0 2 0;
#X connect 13 0 12 1;
#X connect 14 0 15 0;
#X connect 14 0 3 1;
#X connect 16 0 6 0;
#X restore 135 127 pd rollswitch;
#X obj 129 -53 r ticklength;
#X obj 116 -81 r slicycle\$1-tickdelay;
#X obj 6 22 pipe 0;
#X obj 129 -23 t b f;
#X obj 116 5 *;
#X floatatom 116 34 5 0 0 0 - - -;
#X floatatom 145 148 5 0 0 0 - - -;
#N canvas 0 22 179 265 tick-offset 0;
#X obj 30 23 inlet;
#X obj 30 231 outlet;
#X obj 77 24 r rollcycle;
#X obj 77 49 >> 1;
#X obj 92 106 f \$1;
#X obj 92 134 - 1;
#X obj 92 79 loadbang;
#X floatatom 106 159 5 0 0 0 - - -;
#X obj 77 158 *;
#X obj 30 175 +;
#X obj 30 203 & 255;
#X connect 0 0 9 0;
#X connect 2 0 3 0;
#X connect 3 0 8 0;
#X connect 4 0 5 0;
#X connect 5 0 7 0;
#X connect 5 0 8 1;
#X connect 6 0 4 0;
#X connect 8 0 9 1;
#X connect 9 0 10 0;
#X connect 10 0 1 0;
#X restore 6 -39 pd tick-offset;
#X connect 0 0 21 0;
#X connect 1 0 2 0;
#X connect 2 0 3 0;
#X connect 2 0 6 0;
#X connect 3 0 4 0;
#X connect 4 0 5 0;
#X connect 13 0 7 0;
#X connect 13 0 20 0;
#X connect 13 1 11 0;
#X connect 14 0 17 0;
#X connect 15 0 18 0;
#X connect 16 0 1 0;
#X connect 16 0 13 0;
#X connect 17 0 18 0;
#X connect 17 1 18 1;
#X connect 18 0 16 1;
#X connect 18 0 19 0;
#X connect 21 0 16 0;
#X restore 13 214 pd ticks;
#X connect 1 0 15 0;
#X connect 3 0 15 0;
#X connect 4 0 2 0;
#X connect 7 0 5 0;
#X connect 8 0 6 0;
#X connect 9 0 6 0;
#X connect 11 0 17 0;
#X connect 12 0 15 0;
#X connect 14 0 12 1;
#X connect 14 0 13 0;
#X connect 15 0 0 0;
#X connect 15 1 0 0;
#X connect 15 2 0 1;
#X connect 15 2 10 0;
#X connect 18 0 12 0;
#X connect 21 0 4 0;
#X connect 21 1 7 0;
#X connect 21 2 8 0;
#X connect 21 3 9 0;
#X restore 24 304 pd slicycle;
#N canvas 836 292 225 447 cripple 0;
#N canvas 184 258 334 380 stereoreverb 0;
#X obj 24 24 inlet~;
#X obj 24 316 outlet~;
#X obj 190 317 outlet~;
#X obj 76 288 freeverb~;
#X obj 24 106 *~ 1;
#X obj 190 106 *~ 1;
#X obj 127 106 *~ 0;
#X obj 76 107 *~ 0;
#N canvas 0 220 184 255 crossover 0;
#X obj 20 15 inlet;
#X obj 20 198 outlet;
#X obj 92 103 sin;
#X text 97 215 wet;
#X text 27 216 dry;
#X obj 92 198 outlet;
#X obj 20 103 cos;
#X obj 20 129 pow 1.2;
#X obj 92 130 pow 2;
#X obj 100 73 * 1.5708;
#X obj 100 43 * 0.0007;
#X obj 20 73 * 0.002252;
#X connect 0 0 11 0;
#X connect 2 0 8 0;
#X connect 6 0 7 0;
#X connect 7 0 1 0;
#X connect 8 0 5 0;
#X connect 10 0 9 0;
#X connect 11 0 2 0;
#X connect 11 0 6 0;
#X restore 79 67 pd crossover;
#X obj 127 23 inlet~;
#X obj 76 189 lop~ 700;
#X obj 127 238 lop~ 700;
#X msg 43 157 damping 0.9 \, roomsize 0.9 \, dry 0 \, wet 0.8;
#X obj 43 130 loadbang;
#X obj 127 261 +~ 1e-06;
#X obj 76 210 +~ 1e-06;
#X text 41 344 prevent subnormals in freeverb~;
#N canvas 895 138 178 219 roomsize 0;
#X obj 32 19 inlet;
#X obj 32 45 * 0.002;
#X msg 32 125 roomsize \$1;
#X floatatom 43 99 5 0 0 0 - - -;
#X obj 32 157 outlet;
#X obj 32 71 sqrt;
#X connect 0 0 1 0;
#X connect 1 0 5 0;
#X connect 2 0 4 0;
#X connect 5 0 2 0;
#X connect 5 0 3 0;
#X restore 187 67 pd roomsize;
#N canvas 614 152 143 206 reverbdata 0;
#X obj 22 161 outlet;
#X obj 67 161 outlet;
#X obj 67 134 abs;
#X obj 67 109 - 475;
#X obj 22 71 unpack;
#X obj 22 19 r reverb\$1;
#X connect 2 0 1 0;
#X connect 3 0 2 0;
#X connect 4 0 0 0;
#X connect 4 1 3 0;
#X connect 5 0 4 0;
#X restore 187 23 pd reverbdata;
#X connect 0 0 4 0;
#X connect 0 0 7 0;
#X connect 3 0 1 0;
#X connect 3 1 2 0;
#X connect 4 0 1 0;
#X connect 5 0 2 0;
#X connect 6 0 11 0;
#X connect 7 0 10 0;
#X connect 8 0 4 1;
#X connect 8 0 5 1;
#X connect 8 1 7 1;
#X connect 8 1 6 1;
#X connect 9 0 5 0;
#X connect 9 0 6 0;
#X connect 10 0 15 0;
#X connect 11 0 14 0;
#X connect 12 0 3 0;
#X connect 13 0 12 0;
#X connect 14 0 3 1;
#X connect 15 0 3 0;
#X connect 17 0 3 0;
#X connect 18 0 17 0;
#X connect 18 1 8 0;
#X restore 35 387 pd stereoreverb;
#N canvas 261 357 573 292 state-variable-filters 0;
#X obj 37 24 inlet~;
#X obj 347 108 route 0 1 2 3;
#N canvas 468 22 267 130 allpass 0;
#X obj 30 17 inlet;
#X obj 30 79 s \$0-lo;
#X obj 100 80 s \$0-band;
#X obj 169 80 s \$0-hi;
#X msg 169 54 1 300;
#X msg 30 54 1 300;
#X msg 100 54 1.414 300;
#X connect 0 0 5 0;
#X connect 0 0 6 0;
#X connect 0 0 4 0;
#X connect 4 0 3 0;
#X connect 5 0 1 0;
#X connect 6 0 2 0;
#X restore 347 204 pd allpass;
#N canvas 410 235 218 124 lopass 0;
#X obj 29 17 inlet;
#X obj 29 82 s \$0-lo;
#X obj 94 82 s \$0-band;
#X obj 161 82 s \$0-hi;
#X msg 161 55 0 300;
#X msg 94 54 0 300;
#X msg 29 54 1 300;
#X connect 0 0 6 0;
#X connect 0 0 5 0;
#X connect 0 0 4 0;
#X connect 4 0 3 0;
#X connect 5 0 2 0;
#X connect 6 0 1 0;
#X restore 365 179 pd lopass;
#N canvas 225 138 216 130 hipass 0;
#X obj 30 17 inlet;
#X obj 30 81 s \$0-lo;
#X obj 83 81 s \$0-band;
#X obj 149 81 s \$0-hi;
#X msg 30 53 0 300;
#X msg 83 54 0.5 300;
#X msg 149 55 0.5 300;
#X connect 0 0 4 0;
#X connect 0 0 5 0;
#X connect 0 0 6 0;
#X connect 4 0 1 0;
#X connect 5 0 2 0;
#X connect 6 0 3 0;
#X restore 403 132 pd hipass;
#N canvas 360 442 220 123 bandpass 0;
#X obj 30 17 inlet;
#X obj 30 81 s \$0-lo;
#X obj 83 81 s \$0-band;
#X obj 149 81 s \$0-hi;
#X msg 30 54 0 300;
#X msg 149 55 0 300;
#X msg 83 54 1.5 300;
#X connect 0 0 4 0;
#X connect 0 0 6 0;
#X connect 0 0 5 0;
#X connect 4 0 1 0;
#X connect 5 0 3 0;
#X connect 6 0 2 0;
#X restore 384 154 pd bandpass;
#X obj 347 56 vradio 10 1 0 4 empty empty empty 0 -8 0 10 -262144 -260097
-1 0;
#X text 360 64 lopass;
#X text 361 74 bandpass;
#X text 361 85 hipass;
#X text 167 224 freq;
#X text 344 8 filter type;
#X floatatom 115 223 8 0 0 0 - - -;
#X floatatom 163 81 5 0 0 0 - - -;
#X obj 88 195 f;
#X obj 474 26 inlet~;
#X text 361 53 allpass;
#N canvas 951 214 187 242 freq 0;
#X obj 58 41 inlet;
#X obj 57 174 outlet;
#X obj 58 98 t f f;
#X obj 58 120 *;
#X obj 57 149 + 20;
#X obj 58 69 * 0.1;
#X connect 0 0 5 0;
#X connect 2 0 3 0;
#X connect 2 1 3 1;
#X connect 3 0 4 0;
#X connect 4 0 1 0;
#X connect 5 0 2 0;
#X restore 88 96 pd freq;
#N canvas 695 486 450 304 random-steps 0;
#X obj 128 31 inlet;
#X obj 31 277 outlet;
#X obj 31 249 mtof;
#N canvas 365 153 194 329 mesh 0;
#X obj 17 27 inlet;
#X obj 61 27 inlet;
#X obj 32 224 f;
#X obj 17 248 & 3;
#X obj 17 273 sel 3;
#X floatatom 46 248 5 0 0 0 - - -;
#X text 78 156 eighth notes;
#X msg 83 207 -1;
#X text 113 206 off;
#X obj 17 303 outlet;
#X text 61 127 quarter notes;
#X msg 49 157 1;
#X text 15 9 ticks;
#X text 62 9 units;
#X msg 66 180 0;
#X text 94 180 sixteenth notes;
#X obj 32 74 sel 2 1 0;
#X msg 32 128 1;
#X connect 0 0 3 0;
#X connect 1 0 16 0;
#X connect 2 0 3 1;
#X connect 2 0 4 1;
#X connect 2 0 5 0;
#X connect 3 0 4 0;
#X connect 4 0 9 0;
#X connect 7 0 2 0;
#X connect 11 0 2 0;
#X connect 14 0 2 0;
#X connect 16 0 17 0;
#X connect 16 1 11 0;
#X connect 16 2 14 0;
#X connect 16 3 7 0;
#X connect 17 0 2 0;
#X restore 31 107 pd mesh;
#X obj 31 31 r globalticks;
#X obj 31 224 + 44;
#X obj 31 198 random 48;
#X obj 262 33 inlet;
#X text 124 12 stepper;
#X text 258 15 freq;
#X obj 262 107 ftom;
#X floatatom 135 51 5 0 0 0 - - -;
#X obj 82 126 t b f;
#X msg 82 150 92;
#X obj 82 176 -;
#X obj 262 82 + 100;
#X text 120 155 The freq fader will set a lower boundary on the filter
modulation \, between 100 and 550 Hz.;
#X msg 128 90 2;
#X msg 161 90 3;
#X obj 42 134 bng 15 250 50 0 empty empty empty 17 7 0 10 -262144 -1
-1;
#X obj 128 68 sel 1;
#X obj 313 57 * 0.39;
#X obj 262 57 * 0.8;
#X connect 0 0 11 0;
#X connect 0 0 20 0;
#X connect 2 0 1 0;
#X connect 3 0 6 0;
#X connect 3 0 19 0;
#X connect 4 0 3 0;
#X connect 5 0 2 0;
#X connect 6 0 5 0;
#X connect 7 0 22 0;
#X connect 10 0 12 0;
#X connect 10 0 5 1;
#X connect 12 0 13 0;
#X connect 12 1 14 1;
#X connect 13 0 14 0;
#X connect 14 0 6 1;
#X connect 15 0 10 0;
#X connect 17 0 3 1;
#X connect 18 0 3 1;
#X connect 20 0 17 0;
#X connect 20 1 18 0;
#X connect 22 0 15 0;
#X restore 193 149 pd random-steps;
#X obj 225 99 vradio 10 1 1 3 empty empty empty 0 -8 0 10 -262144 -260097
-1 0;
#N canvas 51 193 288 350 svf-left 0;
#X obj 23 30 inlet~;
#X obj 85 309 outlet~;
#X obj 38 226 r \$0-lo;
#X obj 161 228 r \$0-band;
#X obj 100 228 r \$0-hi;
#X obj 23 276 *~;
#X obj 38 250 line~;
#X obj 85 277 *~;
#X obj 146 279 *~;
#X obj 100 252 line~;
#X obj 161 254 line~;
#X obj 23 136 svf~ 400 0;
#X obj 51 110 line~;
#X msg 51 88 \$1 5;
#X obj 76 30 inlet;
#X obj 162 30 inlet;
#X text 114 30 freq;
#X text 204 29 Q;
#X obj 23 188 delay~ 1 1;
#X obj 61 162 delay~ 1 1;
#X obj 51 62 clip 1 5000;
#X connect 0 0 11 0;
#X connect 2 0 6 0;
#X connect 3 0 10 0;
#X connect 4 0 9 0;
#X connect 5 0 1 0;
#X connect 6 0 5 1;
#X connect 7 0 1 0;
#X connect 8 0 1 0;
#X connect 9 0 7 1;
#X connect 10 0 8 1;
#X connect 11 0 18 0;
#X connect 11 1 7 0;
#X connect 11 2 19 0;
#X connect 12 0 11 1;
#X connect 13 0 12 0;
#X connect 14 0 20 0;
#X connect 15 0 11 2;
#X connect 18 0 5 0;
#X connect 19 0 8 0;
#X connect 20 0 13 0;
#X restore 37 223 pd svf-left;
#X text 199 256 random stepper;
#N canvas 545 166 264 335 svf-right 0;
#X obj 23 30 inlet~;
#X obj 85 300 outlet~;
#X obj 38 217 r \$0-lo;
#X obj 161 219 r \$0-band;
#X obj 100 219 r \$0-hi;
#X obj 23 267 *~;
#X obj 38 241 line~;
#X obj 85 268 *~;
#X obj 146 270 *~;
#X obj 100 243 line~;
#X obj 161 245 line~;
#X obj 23 136 svf~ 400 0;
#X obj 51 110 line~;
#X msg 51 85 \$1 5;
#X obj 76 30 inlet;
#X obj 162 30 inlet;
#X text 114 30 freq;
#X text 204 29 Q;
#X obj 23 190 delay~ 1 1;
#X obj 61 162 delay~ 1 1;
#X obj 51 62 clip 1 5000;
#X connect 0 0 11 0;
#X connect 2 0 6 0;
#X connect 3 0 10 0;
#X connect 4 0 9 0;
#X connect 5 0 1 0;
#X connect 6 0 5 1;
#X connect 7 0 1 0;
#X connect 8 0 1 0;
#X connect 9 0 7 1;
#X connect 10 0 8 1;
#X connect 11 0 18 0;
#X connect 11 1 7 0;
#X connect 11 2 19 0;
#X connect 12 0 11 1;
#X connect 13 0 12 0;
#X connect 14 0 20 0;
#X connect 15 0 11 2;
#X connect 18 0 5 0;
#X connect 19 0 8 0;
#X connect 20 0 13 0;
#X restore 474 228 pd svf-right;
#X floatatom 96 123 8 0 0 0 - - -;
#N canvas 685 119 145 174 reset-freq 0;
#X obj 33 31 inlet;
#X obj 33 119 outlet;
#X obj 33 86 delay 10;
#X obj 33 60 sel 0;
#X connect 0 0 3 0;
#X connect 2 0 1 0;
#X connect 3 0 2 0;
#X restore 238 60 pd reset-freq;
#X obj 37 252 outlet~;
#X obj 474 255 outlet~;
#N canvas 453 195 261 321 sinemod 0;
#X obj 21 20 inlet;
#X obj 21 298 outlet;
#X obj 21 194 * 6.28319;
#X obj 21 137 +;
#X obj 21 219 sin;
#X obj 21 167 zexy/wrap;
#X msg 21 110 0.01;
#X obj 21 272 * 1000;
#X obj 21 246 + 1.1;
#X obj 21 88 metro 100;
#X msg 21 66 1;
#X msg 53 66 0;
#X obj 141 18 inlet;
#X obj 141 111 + 1.1;
#X obj 21 44 sel 2;
#X obj 155 68 * 0.0005;
#X obj 141 43 * 0.001;
#X connect 0 0 14 0;
#X connect 2 0 4 0;
#X connect 3 0 5 0;
#X connect 4 0 8 0;
#X connect 5 0 2 0;
#X connect 5 0 3 1;
#X connect 6 0 3 0;
#X connect 7 0 1 0;
#X connect 8 0 7 0;
#X connect 9 0 6 0;
#X connect 10 0 9 0;
#X connect 11 0 9 0;
#X connect 12 0 16 0;
#X connect 13 0 8 1;
#X connect 14 0 10 0;
#X connect 14 1 11 0;
#X connect 16 0 13 0;
#X restore 225 178 pd sinemod;
#X text 239 96 no mod;
#X text 239 106 square;
#X text 239 116 sine;
#X obj 302 252 * 0.00088;
#X obj 163 52 * 0.0018;
#N canvas 547 330 173 198 filterdata 0;
#X obj 22 167 outlet;
#X obj 78 167 outlet;
#X obj 78 140 abs;
#X obj 78 115 - 475;
#X obj 22 69 unpack;
#X obj 22 25 r filter\$1;
#X connect 2 0 1 0;
#X connect 3 0 2 0;
#X connect 4 0 0 0;
#X connect 4 1 3 0;
#X connect 5 0 4 0;
#X restore 88 25 pd filterdata;
#X text 149 51 Q;
#X text 85 50 freq;
#X obj 225 27 r \$0-filtermod;
#X obj 347 28 r \$0-filtertype;
#X connect 0 0 20 0;
#X connect 1 0 2 0;
#X connect 1 1 3 0;
#X connect 1 2 5 0;
#X connect 1 3 4 0;
#X connect 6 0 1 0;
#X connect 14 0 12 0;
#X connect 14 0 20 1;
#X connect 14 0 22 1;
#X connect 15 0 22 0;
#X connect 17 0 14 0;
#X connect 17 0 23 0;
#X connect 18 0 14 0;
#X connect 19 0 18 0;
#X connect 19 0 27 0;
#X connect 20 0 25 0;
#X connect 22 0 26 0;
#X connect 24 0 17 0;
#X connect 27 0 14 0;
#X connect 32 0 13 0;
#X connect 32 0 20 2;
#X connect 32 0 22 2;
#X connect 33 0 17 0;
#X connect 33 0 18 1;
#X connect 33 0 27 1;
#X connect 33 1 32 0;
#X connect 36 0 19 0;
#X connect 36 0 24 0;
#X connect 37 0 6 0;
#X restore 35 185 pd state-variable-filters;
#N canvas 346 367 435 231 inlets 0;
#X obj -1 16 inlet~;
#X obj 127 18 inlet~;
#X obj 267 15 inlet~;
#X obj -1 195 outlet~;
#X obj 267 194 outlet~;
#X obj -1 75 +~;
#X obj 267 75 +~;
#X obj 127 71 *~ 0.707;
#X obj 350 17 inlet;
#X obj 51 134 *~ 0.5;
#X obj 164 135 *~ 0.5;
#X obj -1 103 *~ 0.85;
#X obj 267 100 *~ 0.85;
#X obj 51 160 delay~ 20 20;
#X obj 164 161 delay~ 20 20;
#X obj 233 113 * 20;
#X obj 127 104 delay~ 4 4;
#X obj 184 79 * 4;
#X text 112 197 'stereo';
#X connect 0 0 5 0;
#X connect 1 0 7 0;
#X connect 2 0 6 0;
#X connect 5 0 9 0;
#X connect 5 0 11 0;
#X connect 6 0 10 0;
#X connect 6 0 12 0;
#X connect 7 0 4 0;
#X connect 7 0 16 0;
#X connect 8 0 15 0;
#X connect 8 0 17 0;
#X connect 9 0 13 0;
#X connect 10 0 14 0;
#X connect 11 0 3 0;
#X connect 12 0 4 0;
#X connect 13 0 4 0;
#X connect 14 0 3 0;
#X connect 15 0 13 1;
#X connect 15 0 14 1;
#X connect 16 0 3 0;
#X connect 17 0 16 1;
#X restore 35 98 pd inlets;
#X obj 35 415 outlet~;
#X obj 122 415 outlet~;
#N canvas 519 466 399 218 delayfeedback 0;
#N canvas 328 343 181 218 crossover 0;
#X obj 20 15 inlet;
#X obj 20 168 outlet;
#X text 97 185 wet;
#X text 27 186 dry;
#X obj 91 168 outlet;
#X floatatom 29 62 5 0 0 0 - - -;
#X obj 20 114 cos;
#X obj 20 85 * 1.5708;
#X obj 91 115 sin;
#X obj 20 141 pow 0.8;
#X obj 91 142 pow 1.5;
#X obj 20 39 * 0.002;
#X connect 0 0 11 0;
#X connect 6 0 9 0;
#X connect 7 0 6 0;
#X connect 7 0 8 0;
#X connect 8 0 10 0;
#X connect 9 0 1 0;
#X connect 10 0 4 0;
#X connect 11 0 5 0;
#X connect 11 0 7 0;
#X restore 110 62 pd crossover;
#X obj 23 29 inlet~;
#X obj 110 30 inlet;
#X obj 221 29 inlet~;
#X obj 258 118 r~ \$0-feedback-left;
#X obj 60 116 r~ \$0-feedback-right;
#X obj 23 179 outlet~;
#X obj 221 182 outlet~;
#X obj 23 143 *~ 1;
#X obj 221 149 *~ 1;
#X obj 60 143 *~ 0;
#X obj 258 149 *~ 0;
#X floatatom 179 90 5 0 0 0 - - -;
#X floatatom 110 90 5 0 0 0 - - -;
#X text 98 6 feedback amount;
#X connect 0 0 9 1;
#X connect 0 0 8 1;
#X connect 0 0 13 0;
#X connect 0 1 10 1;
#X connect 0 1 12 0;
#X connect 0 1 11 1;
#X connect 1 0 8 0;
#X connect 2 0 0 0;
#X connect 3 0 9 0;
#X connect 4 0 11 0;
#X connect 5 0 10 0;
#X connect 8 0 6 0;
#X connect 9 0 7 0;
#X connect 10 0 6 0;
#X connect 11 0 7 0;
#X restore 35 273 pd delayfeedback;
#X obj 35 10 inlet~;
#X obj 52 31 inlet~;
#X obj 69 52 inlet~;
#X obj 89 78 hsl 66 12 0 1 0 1 empty digitcolor stereo 15 6 0 12 -228856
-260097 -128992 5200 0;
#N canvas 614 152 169 227 delaydata 0;
#X obj 22 169 outlet;
#X obj 89 169 outlet;
#X obj 89 142 abs;
#X obj 89 117 - 475;
#X obj 22 68 unpack;
#X obj 22 19 r delay\$1;
#X connect 2 0 1 0;
#X connect 3 0 2 0;
#X connect 4 0 0 0;
#X connect 4 1 3 0;
#X connect 5 0 4 0;
#X restore 12 245 pd delaydata;
#X obj 89 304 vradio 10 1 1 4 empty empty empty 0 -8 0 10 -262144 -260097
-1 2;
#X text 105 309 quaver;
#X text 105 299 semiquaver;
#X text 105 321 1 beat;
#X text 105 331 2 beats;
#N canvas 827 317 192 190 krunchdata 0;
#X obj 22 163 outlet;
#X obj 73 163 outlet;
#X obj 73 111 - 475;
#X obj 22 74 unpack;
#X obj 22 19 r krunch\$1;
#X obj 73 134 * -0.001;
#X connect 2 0 5 0;
#X connect 3 0 0 0;
#X connect 3 1 2 0;
#X connect 4 0 3 0;
#X connect 5 0 1 0;
#X restore 75 125 pd krunchdata;
#N canvas 587 466 571 270 stereodelay 0;
#X obj 21 16 inlet~;
#X obj 21 237 outlet~;
#X text 183 0 delay time;
#N canvas 123 323 465 398 delaytime 0;
#X obj 20 13 inlet;
#X obj 188 340 outlet~;
#X obj 188 312 line~;
#X obj 47 144 + 5;
#X obj 20 63 pow 2;
#X msg 188 285 \$1 100;
#X floatatom 47 168 5 0 0 0 - - -;
#X floatatom 198 85 5 0 0 0 - - -;
#N canvas 808 450 254 245 bpm-to-milliseconds 0;
#X obj 112 33 inlet;
#X obj 51 207 outlet;
#X msg 147 91 0.5;
#X msg 177 91 1;
#X obj 112 123 f;
#X obj 51 128 /;
#X obj 51 84 t b f;
#X floatatom 59 59 5 0 0 0 - - -;
#X obj 51 180 * 1;
#X obj 112 149 t b f;
#X obj 112 62 sel 0 1 2 3;
#X msg 112 91 0.25;
#X msg 51 106 45000;
#X msg 208 91 2;
#X floatatom 173 150 5 0 0 0 - - -;
#X obj 51 9 r beatsperminute;
#X connect 0 0 10 0;
#X connect 2 0 4 0;
#X connect 3 0 4 0;
#X connect 4 0 9 0;
#X connect 4 0 14 0;
#X connect 5 0 8 0;
#X connect 6 0 12 0;
#X connect 6 1 5 1;
#X connect 8 0 1 0;
#X connect 9 0 8 0;
#X connect 9 1 8 1;
#X connect 10 0 11 0;
#X connect 10 1 2 0;
#X connect 10 2 3 0;
#X connect 10 3 13 0;
#X connect 11 0 4 0;
#X connect 12 0 5 0;
#X connect 13 0 4 0;
#X connect 15 0 7 0;
#X connect 15 0 6 0;
#X restore 188 62 pd bpm-to-milliseconds;
#X obj 194 131 sel 0;
#X obj 194 106 int;
#X obj 188 186 f;
#X obj 188 213 spigot;
#X obj 194 159 t b b;
#X msg 221 186 1;
#X msg 255 186 0;
#X text 58 13 fader 'delaytime';
#X text 83 138 milliseconds;
#X text 235 85 milliseconds;
#X obj 20 89 t f f;
#X floatatom 145 285 5 0 0 0 - - -;
#X text 67 285 milliseconds;
#X obj 188 243 f;
#X text 15 365 with fader setting zero \, delaytime is synched to BPM
;
#X obj 188 10 inlet;
#X obj 249 341 outlet~;
#X obj 312 341 outlet;
#X obj 249 260 + 0.5;
#X obj 249 315 line~;
#X msg 249 288 \$1 100;
#X obj 364 251 int;
#X obj 364 277 sel 0;
#X msg 364 304 500;
#X msg 391 304 10000;
#X obj 364 341 outlet;
#X obj 20 39 * 0.0665;
#X connect 0 0 30 0;
#X connect 0 0 35 0;
#X connect 2 0 1 0;
#X connect 3 0 6 0;
#X connect 3 0 22 0;
#X connect 4 0 19 0;
#X connect 5 0 2 0;
#X connect 8 0 7 0;
#X connect 8 0 11 0;
#X connect 9 0 13 0;
#X connect 9 1 15 0;
#X connect 10 0 9 0;
#X connect 11 0 12 0;
#X connect 12 0 22 0;
#X connect 13 0 11 0;
#X connect 13 1 14 0;
#X connect 14 0 12 1;
#X connect 15 0 12 1;
#X connect 19 0 10 0;
#X connect 19 1 3 0;
#X connect 22 0 5 0;
#X connect 22 0 20 0;
#X connect 22 0 26 0;
#X connect 22 0 27 0;
#X connect 24 0 8 0;
#X connect 27 0 29 0;
#X connect 28 0 25 0;
#X connect 29 0 28 0;
#X connect 30 0 31 0;
#X connect 31 0 32 0;
#X connect 31 1 33 0;
#X connect 32 0 34 0;
#X connect 33 0 34 0;
#X connect 35 0 4 0;
#X restore 226 60 pd delaytime;
#X obj 226 18 inlet;
#X text 286 0 sync unit;
#X obj 348 238 outlet~;
#N canvas 714 368 231 219 freqshift 0;
#X obj 18 14 inlet~;
#X obj 18 180 outlet~;
#N canvas 87 305 485 320 olli 0;
#X obj 264 85 delay~ 1 1;
#X obj 264 56 inlet~;
#X obj 39 237 outlet~;
#X obj 264 239 outlet~;
#X text 40 25 Olli Niemitalo's quadrature transformer;
#X text 37 289 y[n]=b1*y[n-1]+b2*y[n-2]+a0*x[n]+a1*x[n-1]+a2*x[n-2]
;
#X text 36 270 Pd's biquad:;
#X obj 39 112 biquad~ 0 0.161758 0.161758 0 -1;
#X obj 39 141 biquad~ 0 0.733029 0.733029 0 -1;
#X obj 39 173 biquad~ 0 0.94535 0.94535 0 -1;
#X obj 39 200 biquad~ 0 0.990598 0.990598 0 -1;
#X obj 264 112 biquad~ 0 0.479401 0.479401 0 -1;
#X obj 264 142 biquad~ 0 0.876218 0.876218 0 -1;
#X obj 264 174 biquad~ 0 0.976599 0.976599 0 -1;
#X obj 264 202 biquad~ 0 0.9975 0.9975 0 -1;
#X text 91 238 first phase;
#X text 320 238 second phase;
#X text 167 238 << 90 degree >>;
#X connect 0 0 11 0;
#X connect 1 0 0 0;
#X connect 1 0 7 0;
#X connect 7 0 8 0;
#X connect 8 0 9 0;
#X connect 9 0 10 0;
#X connect 10 0 2 0;
#X connect 11 0 12 0;
#X connect 12 0 13 0;
#X connect 13 0 14 0;
#X connect 14 0 3 0;
#X restore 18 90 pd olli;
#N canvas 749 93 197 234 complexsinusoid 0;
#X obj 30 149 cos~;
#X obj 117 151 sin~;
#X obj 30 113 phasor~;
#X text 78 112 ramp;
#X text 60 149 cosine;
#X text 148 151 sine;
#X text 75 32 frequency;
#X obj 30 180 outlet~;
#X obj 117 181 outlet~;
#X obj 69 64 sel 0;
#X obj 30 33 inlet;
#X msg 69 88 0;
#X connect 0 0 7 0;
#X connect 1 0 8 0;
#X connect 2 0 0 0;
#X connect 2 0 1 0;
#X connect 9 0 11 0;
#X connect 10 0 2 0;
#X connect 10 0 9 0;
#X connect 11 0 2 1;
#X restore 76 90 pd complexsinusoid;
#X obj 18 125 *~;
#X obj 57 125 *~;
#X text 44 153 a*c-b*d;
#X text 100 153 sum frequencies;
#X obj 76 15 inlet;
#X obj 18 153 -~;
#X obj 76 40 * -0.013333;
#X floatatom 84 63 5 0 0 0 - - -;
#X text 114 16 delaytime;
#X connect 0 0 2 0;
#X connect 2 0 4 0;
#X connect 2 1 5 0;
#X connect 3 0 4 1;
#X connect 3 1 5 1;
#X connect 4 0 9 0;
#X connect 5 0 9 1;
#X connect 8 0 10 0;
#X connect 9 0 1 0;
#X connect 10 0 11 0;
#X connect 10 0 3 0;
#X restore 361 180 pd freqshift;
#X obj 295 19 inlet;
#X obj 31 148 lop~ 500;
#X obj 361 151 lop~ 500;
#X obj 348 19 inlet~;
#N canvas 557 539 237 224 freqshift 0;
#X obj 18 14 inlet~;
#X obj 18 180 outlet~;
#N canvas 87 305 485 320 olli 0;
#X obj 264 85 delay~ 1 1;
#X obj 264 56 inlet~;
#X obj 39 237 outlet~;
#X obj 264 239 outlet~;
#X text 40 25 Olli Niemitalo's quadrature transformer;
#X text 37 289 y[n]=b1*y[n-1]+b2*y[n-2]+a0*x[n]+a1*x[n-1]+a2*x[n-2]
;
#X text 36 270 Pd's biquad:;
#X obj 39 112 biquad~ 0 0.161758 0.161758 0 -1;
#X obj 39 141 biquad~ 0 0.733029 0.733029 0 -1;
#X obj 39 173 biquad~ 0 0.94535 0.94535 0 -1;
#X obj 39 200 biquad~ 0 0.990598 0.990598 0 -1;
#X obj 264 112 biquad~ 0 0.479401 0.479401 0 -1;
#X obj 264 142 biquad~ 0 0.876218 0.876218 0 -1;
#X obj 264 174 biquad~ 0 0.976599 0.976599 0 -1;
#X obj 264 202 biquad~ 0 0.9975 0.9975 0 -1;
#X text 91 238 first phase;
#X text 320 238 second phase;
#X text 167 238 << 90 degree >>;
#X connect 0 0 11 0;
#X connect 1 0 0 0;
#X connect 1 0 7 0;
#X connect 7 0 8 0;
#X connect 8 0 9 0;
#X connect 9 0 10 0;
#X connect 10 0 2 0;
#X connect 11 0 12 0;
#X connect 12 0 13 0;
#X connect 13 0 14 0;
#X connect 14 0 3 0;
#X restore 18 90 pd olli;
#N canvas 749 93 197 234 complexsinusoid 0;
#X obj 30 149 cos~;
#X obj 117 151 sin~;
#X obj 30 113 phasor~;
#X text 78 112 ramp;
#X text 60 149 cosine;
#X text 148 151 sine;
#X text 75 32 frequency;
#X obj 30 180 outlet~;
#X obj 117 181 outlet~;
#X obj 69 64 sel 0;
#X obj 30 33 inlet;
#X msg 69 88 0;
#X connect 0 0 7 0;
#X connect 1 0 8 0;
#X connect 2 0 0 0;
#X connect 2 0 1 0;
#X connect 9 0 11 0;
#X connect 10 0 2 0;
#X connect 10 0 9 0;
#X connect 11 0 2 1;
#X restore 76 90 pd complexsinusoid;
#X obj 18 125 *~;
#X obj 57 125 *~;
#X text 44 153 a*c-b*d;
#X text 100 153 sum frequencies;
#X obj 76 15 inlet;
#X obj 18 153 -~;
#X obj 76 40 * -0.013333;
#X floatatom 84 63 5 0 0 0 - - -;
#X text 113 14 delaytime;
#X connect 0 0 2 0;
#X connect 2 0 4 0;
#X connect 2 1 5 0;
#X connect 3 0 4 1;
#X connect 3 1 5 1;
#X connect 4 0 9 0;
#X connect 5 0 9 1;
#X connect 8 0 10 0;
#X connect 9 0 1 0;
#X connect 10 0 11 0;
#X connect 10 0 3 0;
#X restore 31 176 pd freqshift;
#X obj 31 119 hip~ 5;
#X obj 361 124 hip~ 5;
#X floatatom 295 151 5 0 0 0 - - -;
#X text 217 150 lo-pass freq;
#X obj 32 46 delwrite~ \$0-delay-left 1000;
#X obj 31 89 vd~ \$0-delay-left 100;
#X obj 31 205 s~ \$0-feedback-left;
#X obj 361 50 delwrite~ \$0-delay-right 1000;
#X obj 361 95 vd~ \$0-delay-right 100;
#X obj 361 208 s~ \$0-feedback-right;
#X connect 0 0 1 0;
#X connect 0 0 17 0;
#X connect 3 0 18 0;
#X connect 3 1 21 0;
#X connect 3 2 7 1;
#X connect 3 2 12 1;
#X connect 3 3 10 1;
#X connect 3 3 9 1;
#X connect 3 3 15 0;
#X connect 4 0 3 0;
#X connect 7 0 22 0;
#X connect 8 0 3 1;
#X connect 9 0 12 0;
#X connect 10 0 7 0;
#X connect 11 0 6 0;
#X connect 11 0 20 0;
#X connect 12 0 19 0;
#X connect 13 0 9 0;
#X connect 14 0 10 0;
#X connect 18 0 13 0;
#X connect 21 0 14 0;
#X restore 35 354 pd stereodelay;
#N canvas 351 443 261 276 stereobitflip 0;
#X obj 20 16 inlet~;
#X obj 65 16 inlet;
#X obj 153 14 inlet~;
#X obj 20 238 outlet~;
#X obj 153 240 outlet~;
#N canvas 997 435 203 282 mix 0;
#X obj 35 23 inlet~;
#X obj 35 235 outlet~;
#X obj 50 71 t b f;
#X msg 50 97 1;
#X obj 50 122 -;
#X obj 114 183 line~;
#X msg 114 159 \$1 100;
#X obj 99 22 inlet~;
#X obj 146 23 inlet;
#X obj 99 208 *~;
#X obj 50 178 line~;
#X msg 50 154 \$1 100;
#X obj 35 203 *~;
#X obj 114 124 * 0.3;
#X floatatom 146 71 5 0 0 0 - - -;
#X connect 0 0 12 0;
#X connect 2 0 3 0;
#X connect 2 1 4 1;
#X connect 3 0 4 0;
#X connect 4 0 11 0;
#X connect 5 0 9 1;
#X connect 6 0 5 0;
#X connect 7 0 9 0;
#X connect 8 0 2 0;
#X connect 8 0 13 0;
#X connect 8 0 14 0;
#X connect 9 0 1 0;
#X connect 10 0 12 1;
#X connect 11 0 10 0;
#X connect 12 0 1 0;
#X connect 13 0 6 0;
#X restore 20 211 pd mix;
#N canvas 469 427 227 275 mix 0;
#X obj 35 23 inlet~;
#X obj 35 235 outlet~;
#X obj 51 73 t b f;
#X msg 51 99 1;
#X obj 51 124 -;
#X obj 114 183 line~;
#X msg 114 159 \$1 100;
#X obj 99 22 inlet~;
#X obj 174 23 inlet;
#X obj 99 208 *~;
#X obj 50 178 line~;
#X msg 51 154 \$1 100;
#X obj 35 203 *~;
#X obj 114 113 * 0.3;
#X connect 0 0 12 0;
#X connect 2 0 3 0;
#X connect 2 1 4 1;
#X connect 3 0 4 0;
#X connect 4 0 11 0;
#X connect 5 0 9 1;
#X connect 6 0 5 0;
#X connect 7 0 9 0;
#X connect 8 0 2 0;
#X connect 8 0 13 0;
#X connect 9 0 1 0;
#X connect 10 0 12 1;
#X connect 11 0 10 0;
#X connect 12 0 1 0;
#X connect 13 0 6 0;
#X restore 153 213 pd mix;
#N canvas 930 445 225 295 decimator 0;
#X obj 23 9 inlet~;
#X obj 74 206 phasor~;
#X obj 23 229 samphold~;
#X obj 23 255 outlet~;
#X floatatom 83 179 8 0 0 0 - - -;
#X obj 74 9 inlet;
#X obj 74 76 t b f;
#X obj 74 122 -;
#X msg 74 98 1;
#X obj 126 75 samplerate~;
#X obj 126 10 loadbang;
#X obj 126 98 * 0.5;
#X obj 126 120 t b f;
#X obj 74 153 *;
#X obj 184 11 bng 15 250 50 0 empty empty empty 17 7 0 10 -262144 -1
-1;
#X obj 74 39 pow 0.5;
#X connect 0 0 2 0;
#X connect 1 0 2 1;
#X connect 2 0 3 0;
#X connect 5 0 15 0;
#X connect 6 0 8 0;
#X connect 6 1 7 1;
#X connect 7 0 13 0;
#X connect 8 0 7 0;
#X connect 9 0 11 0;
#X connect 10 0 9 0;
#X connect 11 0 12 0;
#X connect 12 0 13 0;
#X connect 12 1 13 1;
#X connect 13 0 4 0;
#X connect 13 0 1 0;
#X connect 14 0 9 0;
#X connect 15 0 6 0;
#X restore 36 122 pd decimator;
#N canvas 901 406 225 295 decimator 0;
#X obj 23 9 inlet~;
#X obj 74 206 phasor~;
#X obj 23 229 samphold~;
#X obj 23 255 outlet~;
#X floatatom 83 179 8 0 0 0 - - -;
#X obj 74 9 inlet;
#X obj 74 76 t b f;
#X obj 74 122 -;
#X msg 74 98 1;
#X obj 126 75 samplerate~;
#X obj 126 10 loadbang;
#X obj 126 98 * 0.5;
#X obj 126 120 t b f;
#X obj 74 153 *;
#X obj 184 11 bng 15 250 50 0 empty empty empty 17 7 0 10 -262144 -1
-1;
#X obj 74 39 pow 0.5;
#X connect 0 0 2 0;
#X connect 1 0 2 1;
#X connect 2 0 3 0;
#X connect 5 0 15 0;
#X connect 6 0 8 0;
#X connect 6 1 7 1;
#X connect 7 0 13 0;
#X connect 8 0 7 0;
#X connect 9 0 11 0;
#X connect 10 0 9 0;
#X connect 11 0 12 0;
#X connect 12 0 13 0;
#X connect 12 1 13 1;
#X connect 13 0 4 0;
#X connect 13 0 1 0;
#X connect 14 0 9 0;
#X connect 15 0 6 0;
#X restore 169 122 pd decimator;
#X obj 108 90 hsl 128 15 0 1 0 1 empty empty freq 20 8 0 10 -262144
-260097 -1 3500 0;
#N canvas 724 145 308 303 sumbits 0;
#X obj 114 223 plus 0 0 0 0 0 0 0 0;
#X obj 130 20 tgl 15 1 \$0-bangplus empty empty 17 7 0 10 -262144 -1
-1 1 1;
#X obj 145 20 tgl 15 1 \$0-bangplus empty empty 17 7 0 10 -262144 -1
-1 1 1;
#X obj 160 20 tgl 15 1 \$0-bangplus empty empty 17 7 0 10 -262144 -1
-1 0 1;
#X obj 175 20 tgl 15 1 \$0-bangplus empty empty 17 7 0 10 -262144 -1
-1 0 1;
#X obj 190 20 tgl 15 1 \$0-bangplus empty empty 17 7 0 10 -262144 -1
-1 0 1;
#X obj 205 20 tgl 15 1 \$0-bangplus empty empty 17 7 0 10 -262144 -1
-1 0 1;
#X obj 220 20 tgl 15 1 \$0-bangplus empty empty 17 7 0 10 -262144 -1
-1 0 1;
#X floatatom 126 248 5 0 0 0 - - -;
#X obj 214 199 << 1;
#X obj 196 176 << 2;
#X obj 179 153 << 3;
#X obj 163 130 << 4;
#X obj 145 104 << 5;
#X obj 130 77 << 6;
#X obj 23 21 r \$0-bangplus;
#X obj 23 47 delay 10;
#X obj 114 271 outlet;
#X connect 0 0 8 0;
#X connect 0 0 17 0;
#X connect 1 0 14 0;
#X connect 2 0 13 0;
#X connect 3 0 12 0;
#X connect 4 0 11 0;
#X connect 5 0 10 0;
#X connect 6 0 9 0;
#X connect 7 0 0 7;
#X connect 9 0 0 6;
#X connect 10 0 0 5;
#X connect 11 0 0 4;
#X connect 12 0 0 3;
#X connect 13 0 0 2;
#X connect 14 0 0 1;
#X connect 15 0 16 0;
#X connect 16 0 0 0;
#X coords 0 -1 1 1 105 15 2 130 20;
#X restore 93 154 pd sumbits;
#N canvas 744 457 175 305 bitflip 0;
#X floatatom 98 45 4 0 15 0 - - -;
#X obj 25 20 inlet~;
#X obj 25 270 outlet~;
#X obj 88 21 inlet;
#X obj 25 246 hip~ 5;
#X obj 88 143 sig~;
#X obj 25 167 bitxor~ 0 1;
#X obj 25 43 *~ 128;
#X obj 88 119 clip 0 127;
#X obj 25 71 +~ 128;
#X obj 25 95 clip~ 0 255;
#X obj 25 192 -~ 128;
#X obj 25 219 *~ 0.0078125;
#X connect 1 0 7 0;
#X connect 3 0 0 0;
#X connect 3 0 8 0;
#X connect 4 0 2 0;
#X connect 5 0 6 1;
#X connect 6 0 11 0;
#X connect 7 0 9 0;
#X connect 8 0 5 0;
#X connect 9 0 10 0;
#X connect 10 0 6 0;
#X connect 11 0 12 0;
#X connect 12 0 4 0;
#X restore 36 180 pd bitflip;
#X floatatom 70 101 5 0 0 0 - - -;
#N canvas 584 346 168 305 bitflip 0;
#X floatatom 98 45 4 0 15 0 - - -;
#X obj 25 20 inlet~;
#X obj 25 270 outlet~;
#X obj 88 21 inlet;
#X obj 25 246 hip~ 5;
#X obj 88 143 sig~;
#X obj 25 167 bitxor~ 0 1;
#X obj 25 43 *~ 128;
#X obj 88 119 clip 0 127;
#X obj 25 72 +~ 128;
#X obj 25 97 clip~ 0 255;
#X obj 25 193 -~ 128;
#X obj 25 219 *~ 0.0078125;
#X connect 1 0 7 0;
#X connect 3 0 0 0;
#X connect 3 0 8 0;
#X connect 4 0 2 0;
#X connect 5 0 6 1;
#X connect 6 0 11 0;
#X connect 7 0 9 0;
#X connect 8 0 5 0;
#X connect 9 0 10 0;
#X connect 10 0 6 0;
#X connect 11 0 12 0;
#X connect 12 0 4 0;
#X restore 169 182 pd bitflip;
#X connect 0 0 5 0;
#X connect 0 0 7 0;
#X connect 1 0 5 2;
#X connect 1 0 6 2;
#X connect 1 0 12 0;
#X connect 2 0 6 0;
#X connect 2 0 8 0;
#X connect 5 0 3 0;
#X connect 6 0 4 0;
#X connect 7 0 11 0;
#X connect 8 0 13 0;
#X connect 9 0 8 1;
#X connect 9 0 7 1;
#X connect 10 0 11 1;
#X connect 10 0 13 1;
#X connect 11 0 5 1;
#X connect 13 0 6 1;
#X restore 35 157 pd stereobitflip;
#N canvas 633 521 230 206 stereodrive 0;
#X obj 16 16 inlet~;
#X obj 73 16 inlet;
#X obj 136 16 inlet~;
#X obj 73 42 * 0.02;
#X obj 16 164 outlet~;
#X obj 136 164 outlet~;
#X obj 16 133 overdrive~;
#X obj 73 68 clip 1 20;
#X obj 136 132 overdrive~;
#X obj 153 40 loadbang;
#X msg 153 68 1;
#X connect 0 0 6 0;
#X connect 1 0 3 0;
#X connect 2 0 8 0;
#X connect 3 0 7 0;
#X connect 6 0 4 0;
#X connect 7 0 6 1;
#X connect 7 0 8 1;
#X connect 8 0 5 0;
#X connect 9 0 10 0;
#X connect 10 0 6 1;
#X connect 10 0 8 1;
#X restore 35 214 pd stereodrive;
#X connect 0 0 3 0;
#X connect 0 1 4 0;
#X connect 1 0 19 0;
#X connect 1 1 19 2;
#X connect 2 0 18 0;
#X connect 2 1 18 2;
#X connect 5 0 17 0;
#X connect 5 1 17 3;
#X connect 6 0 2 0;
#X connect 7 0 2 1;
#X connect 8 0 2 2;
#X connect 9 0 2 3;
#X connect 10 0 17 1;
#X connect 10 1 5 1;
#X connect 11 0 17 2;
#X connect 16 0 19 1;
#X connect 16 1 18 1;
#X connect 17 0 0 0;
#X connect 17 1 0 1;
#X connect 18 0 1 0;
#X connect 18 1 1 1;
#X connect 19 0 5 0;
#X connect 19 1 5 2;
#X restore 24 330 pd cripple;
#X obj 120 50 bng 50 100 50 0 \$0-sinput \$0-rinput > 15 25 1 40 -195568
-260818 -128992;
#N canvas 905 231 259 307 inputbutton 0;
#X obj 28 110 tgl 15 0 empty empty empty 17 7 0 10 -262144 -1 -1 0
1;
#X obj 28 157 sel 0 1;
#X obj 28 12 r \$0-sinput;
#X obj 39 134 s \$0-inputstatus;
#X obj 28 284 s \$0-rinput;
#X msg 28 258 color \$1 \$2 \$3;
#X obj 72 82 r set-inputstatus-slicycle\$1;
#X obj 47 231 pack 14 14 22;
#X obj 28 207 pack \$2 14 11;
#X obj 55 184 s slicycle\$1-input-on;
#X msg 152 120 slicycle.input;
#X obj 152 150 s buttonhelp;
#X obj 41 41 loadbang;
#X msg 41 66 0;
#X connect 0 0 1 0;
#X connect 0 0 3 0;
#X connect 1 0 8 0;
#X connect 1 1 7 0;
#X connect 1 1 9 0;
#X connect 2 0 0 0;
#X connect 2 0 10 0;
#X connect 5 0 4 0;
#X connect 6 0 0 0;
#X connect 6 0 10 0;
#X connect 7 0 5 0;
#X connect 8 0 5 0;
#X connect 10 0 11 0;
#X connect 12 0 13 0;
#X connect 13 0 0 0;
#X restore 152 23 pd inputbutton;
#X obj 264 353 f \$2;
#X obj 81 374 s~ slicycle\$1-outright;
#X obj 24 396 s~ slicycle\$1-outleft;
#N canvas 551 329 273 345 interrupt 0;
#X obj 17 91 tgl 15 0 empty empty empty 17 7 0 10 -262144 -1 -1 0 1
;
#X obj 31 36 loadbang;
#X msg 31 61 1;
#X obj 17 207 sel 0 1;
#X msg 17 285 color \$1 \$2 \$3;
#X obj 36 258 pack 14 14 22;
#X obj 17 233 pack \$2 14 11;
#X obj 17 311 s \$0-rinterrupt;
#X obj 17 10 r \$0-sinterrupt;
#X obj 91 36 r interrupt-slicycle\$1;
#X msg 28 148 -1;
#X obj 28 124 sel 0;
#X text 55 147 sliceplay interrupt option -1 or 1;
#X obj 28 174 s \$0-interrupt;
#X msg 131 176 interrupt.slices;
#X obj 131 202 s buttonhelp;
#X connect 0 0 3 0;
#X connect 0 0 11 0;
#X connect 0 0 14 0;
#X connect 1 0 2 0;
#X connect 2 0 0 0;
#X connect 3 0 6 0;
#X connect 3 1 5 0;
#X connect 4 0 7 0;
#X connect 5 0 4 0;
#X connect 6 0 4 0;
#X connect 8 0 0 0;
#X connect 9 0 0 0;
#X connect 10 0 13 0;
#X connect 11 0 10 0;
#X connect 11 1 13 0;
#X connect 14 0 15 0;
#X restore 21 237 pd interrupt;
#X obj 264 306 f \$1;
#X floatatom 264 328 5 0 0 0 - - -;
#X floatatom 264 376 5 0 0 0 - - -;
#X obj 264 279 loadbang;
#X text 298 377 button bg color;
#N canvas 0 22 1107 343 about-Fourier-patt. 0;
#X obj 34 165 & 15;
#X obj 34 46 for++ 0 15;
#X obj 49 69 hradio 15 1 1 8 empty empty empty 0 -8 0 10 -262144 -260097
-1 3;
#X obj 34 24 bng 15 250 50 0 empty empty empty 17 7 0 10 -262144 -1
-1;
#X obj 49 203 hradio 15 1 0 5 empty empty empty 0 -8 0 10 -262144 -1
-1 0;
#X floatatom 61 231 5 0 0 0 - - -;
#X obj 34 140 *;
#X obj 34 230 >>;
#X text 189 70 0 3 6 9 12 15 2 5 8 11 14 1 4 7 10 13;
#X text 189 92 0 5 10 15 4 9 14 3 8 13 2 7 12 1 6 11;
#X text 189 113 0 7 14 5 12 3 10 1 8 15 6 13 4 11 2 9;
#X text 189 135 0 9 2 11 4 13 6 15 8 1 10 3 12 5 14 7;
#X text 442 70 0 1 3 4 6 7 1 2 4 5 7 0 2 3 5 6;
#X text 442 91 0 2 5 7 2 4 7 1 4 6 1 3 6 0 3 5;
#X text 442 114 0 3 7 2 6 1 5 0 4 7 3 6 2 5 1 4;
#X text 442 135 0 4 1 5 2 6 3 7 4 0 5 1 6 2 7 3;
#X text 441 24 downsampled to 8 pt:;
#X text 442 49 0 0 1 1 2 2 3 3 4 4 5 5 6 6 7 7;
#X text 189 49 0 1 2 3 4 5 6 7 8 9 10 11 12 13 14 15;
#X text 189 24 original 16 pt series:;
#X text 189 156 0 11 6 1 12 7 2 13 8 3 14 9 4 15 10 5;
#X text 189 177 0 13 10 7 4 1 14 11 8 5 2 15 12 9 6 3;
#X text 189 197 0 15 14 13 12 11 10 9 8 7 6 5 4 3 2 1;
#X obj 49 91 * 2;
#X obj 49 116 + 1;
#X floatatom 61 141 5 0 0 0 - - -;
#X text 442 156 0 5 3 0 6 3 1 6 4 1 7 4 2 7 5 2;
#X text 442 177 0 6 5 3 2 0 7 5 4 2 1 7 6 4 3 1;
#X text 442 197 0 7 7 6 6 5 5 4 4 3 3 2 2 1 1 0;
#X text 661 22 downsampled to 4 pt:;
#X text 661 49 0 0 0 0 1 1 1 1 2 2 2 2 3 3 3 3;
#X text 661 69 0 0 1 2 3 3 0 1 2 2 3 0 1 1 2 3;
#X text 661 90 0 1 2 3 1 2 3 0 2 3 0 1 3 0 1 2;
#X text 661 113 0 1 3 1 3 0 2 0 2 3 1 3 1 2 0 2;
#X text 661 135 0 2 0 2 1 3 1 3 2 0 2 0 3 1 3 1;
#X text 661 156 0 2 1 0 3 1 0 3 2 0 3 2 1 3 2 1;
#X text 661 177 0 3 2 1 1 0 3 2 2 1 0 3 3 2 1 0;
#X text 661 197 0 3 3 3 3 2 2 2 2 1 1 1 1 0 0 0;
#X text 879 22 downsampled to 2 pt:;
#X text 879 48 0 0 0 0 0 0 0 0 1 1 1 1 1 1 1 1;
#X text 879 69 0 0 0 1 1 1 0 0 1 1 1 0 0 0 1 1;
#X text 879 90 0 0 1 1 0 1 1 0 1 1 0 0 1 0 0 1;
#X text 879 112 0 0 1 0 1 0 1 0 1 1 0 1 0 1 0 1;
#X text 879 135 0 1 0 1 0 1 0 1 1 0 1 0 1 0 1 0;
#X text 879 157 0 1 0 0 1 0 0 1 1 0 1 1 0 1 1 0;
#X text 879 178 0 1 1 0 0 0 1 1 1 0 0 1 1 1 0 0;
#X text 879 197 0 1 1 1 1 1 1 1 1 0 0 0 0 0 0 0;
#X text 69 164 modulo 16;
#X floatatom 34 263 5 0 0 0 - - -;
#X text 283 237 I call these series "Fourier patterns" \, analoguous
to the rows with complex exponentials in a Fourier matrix.;
#X text 660 238 These series are used for slice and speed selection
in slicycle's players \, to create series (via downsampling) with optimal
variation for smaller sets. Even frequencies are useless because by
definition they do not contain as many numbers as possible. Frequencies
1 and 15 do not give good result either.;
#X text 99 232 downsampling;
#X connect 0 0 7 0;
#X connect 1 0 6 0;
#X connect 2 0 23 0;
#X connect 3 0 1 0;
#X connect 4 0 5 0;
#X connect 4 0 7 1;
#X connect 6 0 0 0;
#X connect 7 0 48 0;
#X connect 23 0 24 0;
#X connect 24 0 6 1;
#X connect 24 0 25 0;
#X restore 102 304 pd about-Fourier-patt.;
#X text 299 329 slicer instance ID;
#X obj 20 124 Scope~ 200 50 128 3 128 -1.5 1.5 0 0 0 0 102 255 51 0
0 0 0;
#X obj 20 100 hradio 25 1 0 8 \$0-dummysend \$0-recmonitor empty 2
25 1 20 -1 -128992 -258699 4;
#X obj 237 69 loadbang;
#X msg 237 90 brgb 0 0 0 \, range -1.5 1.5 \, 128;
#X obj 36 374 *~ 0.5;
#X obj 24 277 r~ processedinput;
#X obj 20 1 r clear-slicycle\$1;
#X connect 13 0 14 0;
#X connect 13 1 14 1;
#X connect 13 2 14 2;
#X connect 14 0 19 0;
#X connect 14 0 32 0;
#X connect 14 1 18 0;
#X connect 14 1 32 0;
#X connect 17 0 23 0;
#X connect 21 0 22 0;
#X connect 24 0 21 0;
#X connect 24 0 17 0;
#X connect 30 0 31 0;
#X connect 31 0 28 0;
#X connect 32 0 28 0;
#X connect 33 0 13 0;
#X connect 34 0 1 0;
#X coords 0 -1 1 1 200 175 2 20 50;
