#N canvas 474 50 775 680 10;
#X declare -lib cyclone;
#X declare -lib cyclone;
#X obj 187 614 outlet~;
#X obj 327 612 outlet~;
#X obj 295 57 inlet~;
#X obj 136 55 inlet~;
#X obj 624 241 tgl 15 0 empty empty empty 17 7 0 10 -262144 -1 -1 0
1;
#X obj 624 277 tgl 15 0 empty empty empty 17 7 0 10 -262144 -1 -1 0
1;
#X obj 650 341 hsl 128 15 0 1 0 0 empty empty empty -2 -8 0 10 -262144
-1 -1 12700 1;
#X obj 623 341 tgl 15 0 empty empty empty 17 7 0 10 -262144 -1 -1 0
1;
#X obj 652 277 hsl 128 15 0 10 0 0 empty empty empty -2 -8 0 10 -262144
-1 -1 12700 1;
#X obj 651 376 hsl 128 15 127 0 0 0 empty empty empty -2 -8 0 10 -262144
-1 -1 0 1;
#X obj 625 379 tgl 15 0 empty empty empty 17 7 0 10 -262144 -1 -1 0
1;
#X obj 64 245 FX/apdist~-help;
#X obj 181 181 drum-machine1/catalanpan;
#X obj 283 249 FX/apdist~-help;
#X obj 231 365 FX/reberb;
#X obj 174 410 FX/filterSvf~;
#X obj 306 417 FX/filterSvf~;
#X obj 65 284 FX/GuitarExtended-Phaser;
#N canvas 0 22 450 300 beatMangleR 0;
#X obj 89 97 FX/beatmangle3;
#X obj -3 62 inlet~;
#X obj 212 37 inlet;
#X obj 274 47 inlet;
#X obj 328 49 inlet;
#X obj 107 265 outlet~;
#X obj 13 210 spigot~;
#X obj 155 215 spigot~;
#X obj 52 185 tgl 15 0 empty empty empty 17 7 0 10 -262144 -1 -1 0
1;
#X obj 194 190 tgl 15 0 empty empty empty 17 7 0 10 -262144 -1 -1 0
1;
#X obj 193 158 tgl 15 0 empty empty empty 17 7 0 10 -262144 -1 -1 0
1;
#X connect 0 0 7 0;
#X connect 1 0 0 0;
#X connect 1 0 6 0;
#X connect 2 0 0 1;
#X connect 2 0 10 0;
#X connect 3 0 0 2;
#X connect 4 0 0 3;
#X connect 6 0 5 0;
#X connect 7 1 5 0;
#X connect 8 0 6 1;
#X connect 9 0 7 1;
#X connect 10 0 9 0;
#X connect 10 0 8 0;
#X restore 351 464 pd beatMangleR;
#X obj 652 407 hsl 128 15 0 7 0 0 empty empty empty -2 -8 0 10 -262144
-1 -1 3700 1;
#X obj 622 405 tgl 15 0 empty empty empty 17 7 0 10 -262144 -1 -1 0
1;
#X obj 652 429 hsl 128 15 0 7 0 0 empty empty empty -2 -8 0 10 -262144
-1 -1 0 1;
#N canvas 10 86 1270 714 recFX 0;
#X obj 100 -51 receive13 \$1-DJef1;
#X obj 241 -52 receive13 \$1-DJef2;
#X obj 388 -49 receive13 \$1-DJef3;
#X obj 535 -48 receive13 \$1-DJef4;
#X obj 678 -49 receive13 \$1-DJef5;
#X obj 113 -12 outlet;
#X obj 245 -11 outlet;
#X obj 390 -5 outlet;
#X obj 536 -9 outlet;
#X obj 681 -8 outlet;
#X connect 0 0 5 0;
#X connect 1 0 6 0;
#X connect 2 0 7 0;
#X connect 3 0 8 0;
#X connect 4 0 9 0;
#X restore 630 141 pd recFX;
#N canvas 0 25 1280 743 recFXAm 0;
#X obj 107 92 outlet;
#X obj 230 88 outlet;
#X obj 375 94 outlet;
#X obj 521 90 outlet;
#X obj 666 91 outlet;
#X obj 107 10 r DJAef1;
#X obj 234 6 r DJAef2;
#X obj 378 9 r DJAef3;
#X obj 528 10 r DJAef4;
#X obj 672 9 r DJAef5;
#X obj 107 53 * 500;
#X obj 226 49 * 10;
#X obj 374 51 * 1;
#X obj 533 56 * 127;
#X obj 668 59 * 7;
#X connect 5 0 10 0;
#X connect 6 0 11 0;
#X connect 7 0 12 0;
#X connect 8 0 13 0;
#X connect 9 0 14 0;
#X connect 10 0 0 0;
#X connect 11 0 1 0;
#X connect 12 0 2 0;
#X connect 13 0 3 0;
#X connect 14 0 4 0;
#X restore 758 163 pd recFXAm;
#N canvas 0 22 450 300 beatMangleL 0;
#X obj 89 97 FX/beatmangle3;
#X obj -3 62 inlet~;
#X obj 212 37 inlet;
#X obj 274 47 inlet;
#X obj 328 49 inlet;
#X obj 107 265 outlet~;
#X obj 13 210 spigot~;
#X obj 155 215 spigot~;
#X obj 52 185 tgl 15 0 empty empty empty 17 7 0 10 -262144 -1 -1 0
1;
#X obj 194 190 tgl 15 0 empty empty empty 17 7 0 10 -262144 -1 -1 0
1;
#X obj 193 158 tgl 15 0 empty empty empty 17 7 0 10 -262144 -1 -1 0
1;
#X connect 0 0 7 0;
#X connect 1 0 0 0;
#X connect 1 0 6 0;
#X connect 2 0 0 1;
#X connect 2 0 10 0;
#X connect 3 0 0 2;
#X connect 4 0 0 3;
#X connect 6 0 5 0;
#X connect 7 1 5 0;
#X connect 8 0 6 1;
#X connect 9 0 7 1;
#X connect 10 0 9 0;
#X connect 10 0 8 0;
#X restore 183 480 pd beatMangleL;
#X obj 179 547 *~ 1;
#X obj 297 550 *~ 1;
#X obj 180 577 spigot~;
#X obj 301 582 spigot~;
#X obj 375 548 inlet mute;
#X obj 446 517 inlet volume;
#X obj 553 77 inlet pos;
#X obj 652 241 hsl 128 15 0 500 0 0 empty empty empty -2 -8 0 10 -262144
-1 -1 10086 1;
#X obj 283 283 FX/GuitarExtended-Phaser;
#X msg 677 492 2;
#X obj 685 460 loadbang;
#X connect 2 0 12 1;
#X connect 3 0 12 0;
#X connect 4 0 11 1;
#X connect 4 0 13 1;
#X connect 5 0 17 1;
#X connect 5 0 33 1;
#X connect 6 0 14 4;
#X connect 7 0 14 3;
#X connect 7 0 14 2;
#X connect 8 0 17 2;
#X connect 8 0 33 2;
#X connect 9 0 15 2;
#X connect 9 0 16 2;
#X connect 10 0 15 1;
#X connect 10 0 16 1;
#X connect 11 0 17 0;
#X connect 12 0 11 0;
#X connect 12 1 13 0;
#X connect 13 0 33 0;
#X connect 14 0 15 0;
#X connect 14 1 16 0;
#X connect 15 0 24 0;
#X connect 16 0 18 0;
#X connect 17 0 14 0;
#X connect 18 0 26 0;
#X connect 19 0 18 2;
#X connect 19 0 24 2;
#X connect 20 0 18 1;
#X connect 20 0 24 1;
#X connect 21 0 18 3;
#X connect 21 0 24 3;
#X connect 22 0 4 0;
#X connect 22 1 5 0;
#X connect 22 2 7 0;
#X connect 22 3 10 0;
#X connect 22 4 20 0;
#X connect 23 0 32 0;
#X connect 23 1 8 0;
#X connect 23 2 6 0;
#X connect 23 3 9 0;
#X connect 24 0 25 0;
#X connect 25 0 27 0;
#X connect 26 0 28 0;
#X connect 27 0 0 0;
#X connect 28 0 1 0;
#X connect 29 0 28 1;
#X connect 29 0 27 1;
#X connect 30 0 26 1;
#X connect 30 0 25 1;
#X connect 31 0 12 2;
#X connect 32 0 11 2;
#X connect 32 0 13 2;
#X connect 33 0 14 1;
#X connect 34 0 19 0;
#X connect 35 0 34 0;
