#N canvas 381 631 754 333 10;
#X declare -lib cyclone;
#X declare -lib cyclone;
#X declare -lib cyclone;
#X declare -lib cyclone;
#X declare -lib mrpeach;
#X declare -lib cyclone;
#X declare -lib cyclone;
#X declare -lib cyclone;
#X declare -lib cyclone;
#X declare -lib cyclone;
#X declare -lib cyclone;
#X declare -lib cyclone;
#X declare -lib cyclone;
#X declare -lib cyclone;
#X declare -lib cyclone;
#X declare -lib mrpeach;
#X declare -lib cyclone;
#X declare -lib cyclone;
#X declare -lib cyclone;
#X declare -lib cyclone;
#X declare -lib cyclone;
#X declare -lib cyclone;
#X declare -lib cyclone;
#X declare -lib cyclone;
#X declare -lib cyclone;
#X declare -lib cyclone;
#X declare -lib mrpeach;
#X declare -lib cyclone;
#X declare -lib cyclone;
#X declare -lib cyclone;
#X declare -lib cyclone;
#X declare -lib cyclone;
#X declare -lib cyclone;
#X declare -lib cyclone;
#X declare -lib cyclone;
#X declare -lib cyclone;
#X declare -lib cyclone;
#X declare -lib mrpeach;
#X declare -lib cyclone;
#X declare -lib cyclone;
#X declare -lib cyclone;
#X declare -lib cyclone;
#X declare -lib cyclone;
#X declare -lib cyclone;
#X declare -lib cyclone;
#X declare -lib cyclone;
#X declare -lib cyclone;
#X declare -lib cyclone;
#X declare -lib cyclone;
#X declare -lib cyclone;
#X declare -lib cyclone;
#X declare -lib cyclone;
#X obj 218 48 loadbang;
#X obj -155 19 dumpOSC 12000;
#X obj -155 101 OSCroute /1 /2 /3 /4 /5 /6 /7 /8;
#X floatatom 303 112 5 0 0 0 - - -;
#X text 337 111 General Tempo;
#X obj -155 292 beatmachine-midi 1;
#X obj -27 292 drum-machine1/drum-machine1 1;
#X obj -84 225 beatmachine-midi 4;
#X obj -60 201 beatmachine-midi 5;
#X obj 10 132 beatmachine-midi 8;
#X obj -14 155 beatmachine-midi 7;
#X obj -37 179 beatmachine-midi 6;
#X obj -110 247 beatmachine-midi 3;
#X obj 481 36 OSCroute /effect;
#N canvas 96 325 450 300 FXamo 0;
#X obj 57 37 inlet;
#X obj 57 76 OSCroute /0 /1 /2 /3 /4 /5;
#X obj 59 130 s DJAef1;
#X obj 118 131 s DJAef2;
#X obj 173 134 s DJAef3;
#X obj 232 132 s DJAef4;
#X obj 289 133 s DJAef5;
#X obj 351 134 s DJAef6;
#X connect 0 0 1 0;
#X connect 1 0 2 0;
#X connect 1 1 3 0;
#X connect 1 2 4 0;
#X connect 1 3 5 0;
#X connect 1 4 6 0;
#X connect 1 5 7 0;
#X restore 481 65 pd FXamo;
#X obj 303 36 OSCroute /tempo;
#X obj 303 63 maxlib/scale 5 240 240 5;
#X obj 61 201 synth5 5;
#X obj 83 179 synth6 6;
#X obj 104 155 synth7 7;
#X obj 129 132 synth8 8;
#X obj -7 270 drum-machine1/sampler 2;
#X obj 303 88 int;
#X obj 234 137 master_clock;
#X msg 252 95 105;
#X obj 218 71 t b b;
#X obj -132 270 beatmachine-midi 2;
#X obj 12 247 drum-machine1/drum-machine1 3;
#X obj 34 224 drum-machine1/drum-machine1 4;
#X connect 0 0 25 0;
#X connect 1 0 2 0;
#X connect 1 0 13 0;
#X connect 1 0 15 0;
#X connect 2 0 5 0;
#X connect 2 1 26 0;
#X connect 2 2 12 0;
#X connect 2 3 7 0;
#X connect 2 4 8 0;
#X connect 2 5 11 0;
#X connect 2 6 10 0;
#X connect 2 7 9 0;
#X connect 3 0 23 1;
#X connect 13 0 14 0;
#X connect 15 0 16 0;
#X connect 16 0 22 0;
#X connect 22 0 3 0;
#X connect 24 0 3 0;
#X connect 25 0 23 0;
#X connect 25 1 24 0;
