#N canvas 243 214 754 333 10;
#X declare -lib cyclone;
#X declare -lib cyclone;
#X declare -lib mrpeach;
#X declare -lib cyclone;
#X declare -lib cyclone;
#X declare -lib cyclone;
#X declare -lib cyclone;
#X declare -lib cyclone;
#X declare -lib cyclone;
#X declare -lib cyclone;
#X declare -lib cyclone;
#X declare -lib cyclone;
#X declare -lib cyclone;
#X declare -lib mrpeach;
#X declare -lib cyclone;
#X declare -lib cyclone;
#X declare -lib cyclone;
#X declare -lib cyclone;
#X declare -lib cyclone;
#X declare -lib cyclone;
#X declare -lib cyclone;
#X declare -lib cyclone;
#X declare -lib cyclone;
#X declare -lib cyclone;
#X declare -lib mrpeach;
#X declare -lib cyclone;
#X declare -lib cyclone;
#X declare -lib cyclone;
#X declare -lib cyclone;
#X declare -lib cyclone;
#X declare -lib cyclone;
#X declare -lib cyclone;
#X declare -lib cyclone;
#X declare -lib cyclone;
#X declare -lib cyclone;
#X declare -lib mrpeach;
#X declare -lib cyclone;
#X declare -lib cyclone;
#X declare -lib cyclone;
#X declare -lib cyclone;
#X declare -lib cyclone;
#X declare -lib cyclone;
#X declare -lib cyclone;
#X declare -lib cyclone;
#X declare -lib cyclone;
#X declare -lib cyclone;
#X declare -lib cyclone;
#X declare -lib cyclone;
#X declare -lib cyclone;
#X declare -lib cyclone;
#X declare -lib cyclone;
#X declare -lib cyclone;
#X obj 218 48 loadbang;
#X obj -155 19 dumpOSC 12000;
#X obj -155 101 OSCroute /1 /2 /3 /4 /5 /6 /7 /8;
#X floatatom 303 112 5 0 0 0 - - -;
#X text 337 111 General Tempo;
#X obj -155 292 beatmachine-midi 1;
#X obj -27 292 drum-machine1/drum-machine1 1;
#X obj -84 225 beatmachine-midi 4;
#X obj -60 201 beatmachine-midi 5;
#X obj 10 132 beatmachine-midi 8;
#X obj -14 155 beatmachine-midi 7;
#X obj -37 179 beatmachine-midi 6;
#X obj -110 247 beatmachine-midi 3;
#X obj 481 36 OSCroute /effect;
#N canvas 96 325 450 300 FXamo 0;
#X obj 57 37 inlet;
#X obj 57 76 OSCroute /0 /1 /2 /3 /4 /5;
#X obj 59 130 s DJAef1;
#X obj 118 131 s DJAef2;
#X obj 173 134 s DJAef3;
#X obj 232 132 s DJAef4;
#X obj 289 133 s DJAef5;
#X obj 351 134 s DJAef6;
#X connect 0 0 1 0;
#X connect 1 0 2 0;
#X connect 1 1 3 0;
#X connect 1 2 4 0;
#X connect 1 3 5 0;
#X connect 1 4 6 0;
#X connect 1 5 7 0;
#X restore 481 65 pd FXamo;
#X obj 303 36 OSCroute /tempo;
#X obj 303 63 maxlib/scale 5 240 240 5;
#X obj 61 201 synth5 5;
#X obj 83 179 synth6 6;
#X obj 104 155 synth7 7;
#X obj 129 132 synth8 8;
#X obj -7 270 drum-machine1/sampler 2;
#X obj 303 88 int;
#X obj 234 137 master_clock;
#X obj 218 71 t b b;
#X obj -132 270 beatmachine-midi 2;
#N canvas 976 258 427 403 master_output 0;
#X obj 63 292 FX/st-limiter;
#X obj 63 120 FX/st-compressor;
#X obj 63 376 dac~;
#X obj 63 67 FX/st-bypass13~ masterCompressor;
#X obj 63 239 FX/st-bypass13~ masterLimiter;
#X obj 281 73 loadbang;
#X obj 281 129 s13 masterCompressor;
#X obj 281 154 s13 masterLimiter;
#N canvas 197 298 587 498 sum_buses 0;
#X obj 34 41 r~ 1-busR;
#X obj 98 41 r~ 2-busR;
#X obj 160 41 r~ 3-busR;
#X obj 226 41 r~ 4-busR;
#X obj 289 41 r~ 5-busR;
#X obj 353 41 r~ 6-busR;
#X obj 416 41 r~ 7-busR;
#X obj 480 41 r~ 8-busR;
#X obj 83 74 +~;
#X obj 144 91 +~;
#X obj 210 108 +~;
#X obj 274 125 +~;
#X obj 338 142 +~;
#X obj 401 159 +~;
#X obj 465 176 +~;
#X obj 84 290 +~;
#X obj 145 307 +~;
#X obj 211 324 +~;
#X obj 275 341 +~;
#X obj 339 358 +~;
#X obj 402 375 +~;
#X obj 466 392 +~;
#X obj 465 210 outlet~ R;
#X obj 373 427 outlet~ L;
#X obj 35 257 r~ 1-busL;
#X obj 99 257 r~ 2-busL;
#X obj 161 257 r~ 3-busL;
#X obj 227 257 r~ 4-busL;
#X obj 290 257 r~ 5-busL;
#X obj 354 257 r~ 6-busL;
#X obj 417 257 r~ 7-busL;
#X obj 481 257 r~ 8-busL;
#X connect 0 0 8 0;
#X connect 1 0 8 1;
#X connect 2 0 9 1;
#X connect 3 0 10 1;
#X connect 4 0 11 1;
#X connect 5 0 12 1;
#X connect 6 0 13 1;
#X connect 7 0 14 1;
#X connect 8 0 9 0;
#X connect 9 0 10 0;
#X connect 10 0 11 0;
#X connect 11 0 12 0;
#X connect 12 0 13 0;
#X connect 13 0 14 0;
#X connect 14 0 22 0;
#X connect 15 0 16 0;
#X connect 16 0 17 0;
#X connect 17 0 18 0;
#X connect 18 0 19 0;
#X connect 19 0 20 0;
#X connect 20 0 21 0;
#X connect 21 0 23 0;
#X connect 24 0 15 0;
#X connect 25 0 15 1;
#X connect 26 0 16 1;
#X connect 27 0 17 1;
#X connect 28 0 18 1;
#X connect 29 0 19 1;
#X connect 30 0 20 1;
#X connect 31 0 21 1;
#X restore 63 28 pd sum_buses;
#X msg 281 99 1;
#X obj 63 217 +~;
#X obj 233 218 +~;
#X obj 63 348 +~;
#X obj 93 348 +~;
#X connect 0 0 12 1;
#X connect 0 1 13 1;
#X connect 1 0 10 1;
#X connect 1 1 11 1;
#X connect 3 0 10 0;
#X connect 3 1 11 0;
#X connect 3 2 1 0;
#X connect 3 3 1 1;
#X connect 4 0 12 0;
#X connect 4 1 13 0;
#X connect 4 2 0 0;
#X connect 4 3 0 1;
#X connect 5 0 9 0;
#X connect 8 0 3 0;
#X connect 8 1 3 1;
#X connect 9 0 6 0;
#X connect 9 0 7 0;
#X connect 10 0 4 0;
#X connect 11 0 4 1;
#X connect 12 0 2 0;
#X connect 13 0 2 1;
#X restore 337 247 pd master_output;
#X obj 34 224 drum-machine1/drum-machine1 4;
#X obj 12 247 drum-machine1/sampler 3;
#X msg 252 95 120;
#X connect 0 0 24 0;
#X connect 1 0 2 0;
#X connect 1 0 13 0;
#X connect 1 0 15 0;
#X connect 2 0 5 0;
#X connect 2 1 25 0;
#X connect 2 2 12 0;
#X connect 2 3 7 0;
#X connect 2 4 8 0;
#X connect 2 5 11 0;
#X connect 2 6 10 0;
#X connect 2 7 9 0;
#X connect 3 0 23 1;
#X connect 13 0 14 0;
#X connect 15 0 16 0;
#X connect 16 0 22 0;
#X connect 22 0 3 0;
#X connect 24 0 23 0;
#X connect 24 1 29 0;
#X connect 29 0 3 0;
