#N canvas 1056 333 415 182 10;
#X obj 39 35 inlet start;
#X obj 130 35 inlet bpm;
#N canvas 579 883 450 300 bpm2ms/beat 0;
#X obj 57 35 inlet bpm;
#X obj 57 130 /;
#X msg 57 98 60000;
#X obj 57 66 t b f;
#X obj 57 164 outlet ms/beat;
#X connect 0 0 3 0;
#X connect 1 0 4 0;
#X connect 2 0 1 0;
#X connect 3 0 2 0;
#X connect 3 1 1 1;
#X restore 130 61 pd bpm2ms/beat;
#X obj 129 86 / 16;
#X obj 39 106 metro 31.25;
#X text 120 108 The master tempo emits 16 bangs per beat;
#X obj 39 141 s master_clock;
#X connect 0 0 4 0;
#X connect 1 0 2 0;
#X connect 2 0 3 0;
#X connect 3 0 4 1;
#X connect 4 0 6 0;
