#N canvas 816 754 389 222 10;
#X obj 44 58 counter;
#X obj 44 112 == 0;
#X floatatom 44 86 5 0 0 0 - - -;
#X obj 111 113 ==;
#X obj 130 63 loadbang;
#X obj 44 140 bool2bang;
#X obj 112 140 bool2bang;
#X obj 44 26 r master_clock;
#X text 146 22 \$1 is the number of steps per beat;
#X text 145 38 \$1 must be a factor of 16;
#X obj 130 84 expr 16 / \$1 - 1;
#X obj 44 171 outlet slave_clock;
#X connect 0 0 2 0;
#X connect 1 0 5 0;
#X connect 2 0 1 0;
#X connect 2 0 3 0;
#X connect 3 0 6 0;
#X connect 4 0 10 0;
#X connect 5 0 11 0;
#X connect 6 0 0 2;
#X connect 7 0 0 0;
#X connect 10 0 3 1;
