#N canvas 539 31 685 649 12;
#X declare -lib mrpeach;
#X declare -lib cyclone;
#X declare -lib cyclone;
#X declare -lib cyclone;
#X declare -lib cyclone;
#X declare -lib cyclone;
#X declare -lib cyclone;
#X declare -lib cyclone;
#X declare -lib cyclone;
#X declare -lib cyclone;
#X declare -lib cyclone;
#X declare -lib cyclone;
#X declare -lib cyclone;
#X declare -lib cyclone;
#X declare -lib cyclone;
#X declare -lib cyclone;
#X declare -lib cyclone;
#X declare -lib cyclone;
#X declare -lib cyclone;
#X declare -lib cyclone;
#X declare -lib cyclone;
#X declare -lib cyclone;
#X declare -lib cyclone;
#X declare -lib cyclone;
#X declare -lib cyclone;
#X declare -lib cyclone;
#X declare -lib cyclone;
#X declare -lib cyclone;
#X declare -lib cyclone;
#X declare -lib cyclone;
#X declare -lib cyclone;
#X declare -lib cyclone;
#X declare -lib cyclone;
#X declare -lib cyclone;
#X declare -lib cyclone;
#X obj 1 -39 cnv 20 400 300 empty empty inputs 20 12 0 14 -233017 -66577
0;
#X obj 13 124 vsl 15 128 0 1 0 0 \$0-in1Vol \$0-in1Volset 1 0 -8 0
8 -262144 -1 -1 12700 1;
#X msg 451 193 \; pd dsp 1;
#X msg 451 234 \; pd dsp 0;
#N canvas 0 22 466 316 cpu 0;
#X obj 124 253 outlet;
#X obj 118 168 cputime;
#X obj 118 28 loadbang;
#X obj 118 112 metro 1000;
#X msg 118 56 1;
#X floatatom 118 84 0 0 0 0 - - -;
#X obj 118 140 t b b;
#X obj 118 228 * 0.1;
#X obj 118 197 int;
#X text 163 84 <-- on/off;
#X connect 1 0 8 0;
#X connect 2 0 4 0;
#X connect 3 0 6 0;
#X connect 4 0 5 0;
#X connect 5 0 3 0;
#X connect 6 0 1 0;
#X connect 6 1 1 1;
#X connect 7 0 0 0;
#X connect 8 0 7 0;
#X restore 458 304 pd cpu;
#X obj 1 282 cnv 15 400 200 empty empty sends 20 12 0 14 -195568 -66577
0;
#X obj 1 -80 cnv 15 400 40 empty empty 4_channel_stereo_mixer 20 12
0 14 -195568 -66577 0;
#X obj 13 66 vsl 15 30 0 1 0 0 \$0-in1send1 \$0-in1send1set send1 0
-8 0 8 -262144 -1 -1 0 1;
#X obj 14 14 vsl 15 30 0 1 0 0 \$0-in1send2 \$0-in1send2set send2 0
-8 0 8 -262144 -1 -1 0 1;
#X obj 459 326 nbx 5 14 -1e+37 1e+37 0 0 empty empty empty 0 -6 0 10
-258699 -1 -1 20 256;
#X obj 1 261 cnv 15 400 20 empty empty empty 20 12 0 14 -166441 -66577
0;
#X text 5 260 synth1;
#X obj 732 -45 loadometer;
#X obj 510 578 dac~;
#X obj 593 -22 notein;
#X text 646 -18 MIDI in;
#X obj 617 9 mtof;
#X obj 668 9 / 127;
#X obj 838 443 s \$0-OSC;
#X obj 797 9 r \$0-OSC;
#X obj 604 42 polywavesynth example 32 1;
#X text 882 334 Play a note via OSC;
#X text 838 290 Change oscillator carrier wave to pulse via OSC;
#X text 905 273 OSC ADDRESSING EXAMPLES;
#X obj 866 396 pipe 200;
#X obj 858 375 t a b;
#X text 691 24 amp.;
#X obj 857 332 bng 15 250 50 0 empty empty empty 17 7 0 10 -262144
-1 -1;
#X msg 839 310 /example/osc/carrier/wave 3;
#X floatatom 853 177 5 -100 100 0 - - -;
#X obj 853 198 / 100;
#N canvas 454 179 217 230 pitchbend 0;
#X obj 24 22 nbx 2 14 0 99 0 1 empty empty semitones 32 8 0 10 -232576
-1 -1 4 256;
#X text 2 21 +/-;
#X obj 4 47 bendin;
#X obj 5 89 / 8192;
#X obj 5 125 * 1200;
#X obj 56 48 * 100;
#X text 47 123 convert to cents;
#X obj 4 68 - 8192;
#X obj 5 182 s \$0-OSC;
#X msg 5 153 /*/global/pitchbend \$1;
#X obj 125 15 inlet;
#X text 54 10 Range \, in;
#X connect 0 0 5 0;
#X connect 2 0 7 0;
#X connect 3 0 4 0;
#X connect 4 0 9 0;
#X connect 5 0 4 1;
#X connect 7 0 3 0;
#X connect 9 0 8 0;
#X connect 10 0 4 0;
#X coords 0 -1 1 1 110 40 1 0 0;
#X restore 853 219 pd pitchbend;
#X obj 1078 170 bng 20 250 50 0 empty empty AllNotesOff 0 -6 0 10 -262144
-1 -1;
#X obj 1078 224 s \$0-OSC;
#X msg 1078 198 /*/global/allnotesoff 1;
#X msg 857 352 /example/note/amp 1 \, /example/note/freq 110;
#X msg 866 419 /example/note/amp 0 \, /example/note/freq 110;
#X obj 655 -176 100;
#X obj 632 -196 loadbang;
#X obj 742 -214 / 60;
#X obj 742 -193 / 16;
#X obj 742 -235 * 1000;
#X obj 601 -147 makenote 100 100;
#X msg 734 16 bang;
#X obj 586 -285 inlet;
#X obj -166 155 maxlib/scale 0 127 0 1;
#N canvas 1 0 595 803 playPadNotes 0;
#X msg 51 57 60;
#X msg 92 57 62;
#X msg 136 56 64;
#X text 53 27 C4;
#X text 96 26 D4;
#X text 137 27 E4;
#X text 179 25 F4;
#X text 219 26 G4;
#X text 258 26 A4;
#X text 303 25 B4;
#X text 343 25 C5;
#X text 384 25 D5;
#X msg 176 56 65;
#X msg 216 56 67;
#X msg 254 55 69;
#X msg 299 55 71;
#X msg 342 55 72;
#X msg 381 54 74;
#X obj -19 -248 receive13 \$1-pad1;
#X obj 47 -216 receive13 \$1-pad2;
#X obj 73 -188 receive13 \$1-pad3;
#X obj 138 -156 receive13 \$1-pad4;
#X obj 173 -120 receive13 \$1-pad5;
#X obj 238 -88 receive13 \$1-pad6;
#X obj 281 -60 receive13 \$1-pad7;
#X obj 330 -28 receive13 \$1-pad8;
#X obj 369 1 receive13 \$1-pad9;
#X obj 178 251 outlet;
#X obj 460 107 tgl 15 0 empty empty empty 17 7 0 10 -262144 -1 -1 0
1;
#X obj 177 223 spigot;
#X obj 178 190 pipe 5;
#X connect 0 0 30 0;
#X connect 1 0 30 0;
#X connect 2 0 30 0;
#X connect 12 0 30 0;
#X connect 13 0 30 0;
#X connect 14 0 30 0;
#X connect 15 0 30 0;
#X connect 16 0 30 0;
#X connect 17 0 30 0;
#X connect 18 0 0 0;
#X connect 18 0 28 0;
#X connect 19 0 1 0;
#X connect 19 0 28 0;
#X connect 20 0 2 0;
#X connect 20 0 28 0;
#X connect 21 0 12 0;
#X connect 21 0 28 0;
#X connect 22 0 13 0;
#X connect 22 0 28 0;
#X connect 23 0 14 0;
#X connect 23 0 28 0;
#X connect 24 0 15 0;
#X connect 24 0 28 0;
#X connect 25 0 16 0;
#X connect 25 0 28 0;
#X connect 26 0 17 0;
#X connect 26 0 28 0;
#X connect 28 0 29 1;
#X connect 29 0 27 0;
#X connect 30 0 29 0;
#X restore 742 -256 pd playPadNotes;
#X obj 884 608 receive13 \$1-mute;
#X obj -169 108 receive13 \$1-vol;
#X obj 822 147 vsl 15 128 -100 100 0 0 empty empty empty 0 -9 0 10
-262144 -1 -1 0 1;
#N canvas 0 24 1280 743 effects 0;
#X obj 86 -31 spigot;
#X obj 172 -32 receive13 \$1-se1;
#X obj 343 -23 spigot;
#X obj 53 160 spigot;
#X obj 317 175 spigot;
#X obj 594 183 spigot;
#X obj 814 187 spigot;
#X obj 420 -43 receive13 \$1-se2;
#X obj 131 140 receive13 \$1-se3;
#X obj 369 152 receive13 \$1-se4;
#X obj 248 237 pack f f f f;
#X obj 189 312 s \$0-adsr;
#X obj 88 -63 receive13 \$1-ef1;
#X obj 315 -63 receive13 \$1-ef2;
#X obj 48 108 receive13 \$1-ef3;
#X obj 318 120 receive13 \$1-ef4;
#X msg 170 209 bang;
#X obj 408 301 unpack f f f f;
#X obj 391 343 * 5000;
#X obj 411 365 * 5000;
#X obj 447 389 * 5000;
#X obj 470 421 * 5000;
#X floatatom 325 432 5 0 0 0 - - -;
#X floatatom 357 472 5 0 0 0 - - -;
#X floatatom 405 501 5 0 0 0 - - -;
#X floatatom 470 522 5 0 0 0 - - -;
#X obj 662 152 receive13 \$1-se5;
#X obj 915 178 receive13 \$1-se6;
#X obj 590 125 receive13 \$1-ef5;
#X obj 814 153 receive13 \$1-ef6;
#X obj 108 19 s \$0-ressonance;
#X obj 331 40 s \$0-mod;
#X obj 404 9 * 2;
#X connect 0 0 30 0;
#X connect 1 0 0 1;
#X connect 2 0 32 0;
#X connect 3 0 10 0;
#X connect 3 0 16 0;
#X connect 4 0 10 1;
#X connect 4 0 16 0;
#X connect 5 0 10 2;
#X connect 5 0 16 0;
#X connect 6 0 10 3;
#X connect 6 0 16 0;
#X connect 7 0 2 1;
#X connect 8 0 3 1;
#X connect 9 0 4 1;
#X connect 10 0 11 0;
#X connect 10 0 17 0;
#X connect 12 0 0 0;
#X connect 13 0 2 0;
#X connect 14 0 3 0;
#X connect 15 0 4 0;
#X connect 16 0 10 0;
#X connect 17 0 18 0;
#X connect 17 1 19 0;
#X connect 17 2 20 0;
#X connect 17 3 21 0;
#X connect 18 0 22 0;
#X connect 19 0 23 0;
#X connect 20 0 24 0;
#X connect 21 0 25 0;
#X connect 26 0 5 1;
#X connect 27 0 6 1;
#X connect 28 0 5 0;
#X connect 29 0 6 0;
#X connect 32 0 31 0;
#X restore 29 -171 pd effects;
#X text 636 24 freq.;
#X obj -134 221 loadbang;
#X msg -99 263 1;
#X obj 684 -281 receive13 \$1-On/Off;
#N canvas 0 30 1278 683 octave+/- 0;
#X obj -274 -158 receive13 \$1-tempo;
#X obj -141 -74 vsl 15 128 -4 4 0 0 empty empty empty 0 -9 0 10 -262144
-1 -1 0 1;
#X floatatom -7 61 5 0 0 0 - - -;
#X obj -31 27 int;
#X obj 72 100 * 12;
#X floatatom 377 104 5 0 0 0 - - -;
#X obj 174 -82 inlet;
#X floatatom 230 4 5 0 0 0 - - -;
#X obj 242 173 +;
#X floatatom 242 217 5 0 0 0 - - -;
#X obj 443 325 outlet;
#X obj -186 -111 maxlib/scale 0 200 -4 4;
#X connect 0 0 11 0;
#X connect 1 0 3 0;
#X connect 2 0 4 0;
#X connect 3 0 2 0;
#X connect 4 0 5 0;
#X connect 5 0 8 1;
#X connect 6 0 7 0;
#X connect 7 0 8 0;
#X connect 8 0 9 0;
#X connect 9 0 10 0;
#X connect 11 0 1 0;
#X restore 464 -168 pd octave+/-;
#X obj 596 -254 sequencer2 \$1;
#X obj 505 128 r \$0-adsr;
#X obj 239 1 autoscale 1 10000;
#X obj 880 530 receive \$0-in1Vol;
#X obj 236 -31 receive13 \$1-accX;
#X obj 417 54 spigot;
#X obj 438 -32 receive13 \$1-accE;
#X floatatom 480 13 5 0 0 0 - - -;
#X obj 634 -284 inlet;
#N canvas 0 30 1278 683 sendOSCSynth 0;
#X obj 618 264 loadbang;
#X obj 428 528 mrpeach/udpsend;
#X obj 515 456 mrpeach/packOSC;
#X msg 710 266 bang;
#X obj 152 166 bng 15 250 50 0 empty empty empty 17 7 0 10 -262144
-1 -1;
#X msg 529 319 connect 127.0.0.1 9000;
#X msg 156 324 send /\$1/bump;
#X obj 140 73 inlet;
#X obj 151 240 f \$1;
#X connect 0 0 5 0;
#X connect 2 0 1 0;
#X connect 3 0 5 0;
#X connect 4 0 8 0;
#X connect 5 0 1 0;
#X connect 6 0 2 0;
#X connect 7 0 4 0;
#X connect 8 0 6 0;
#X restore 380 -208 pd sendOSCSynth;
#X obj 884 575 receive13 \$1-pos;
#N canvas 0 24 1280 743 fxRack 0;
#X obj 173 533 outlet~;
#X obj 313 531 outlet~;
#X obj 285 47 inlet~;
#X obj 126 45 inlet~;
#X obj 358 80 receive13 \$1-pos;
#X obj 614 231 tgl 15 0 empty empty empty 17 7 0 10 -262144 -1 -1 0
1;
#X obj 614 267 tgl 15 0 empty empty empty 17 7 0 10 -262144 -1 -1 0
1;
#X obj 640 331 hsl 128 15 0 1 0 0 empty empty empty -2 -8 0 10 -262144
-1 -1 0 1;
#X obj 613 331 tgl 15 0 empty empty empty 17 7 0 10 -262144 -1 -1 0
1;
#X obj 613 300 tgl 15 0 empty empty empty 17 7 0 10 -262144 -1 -1 0
1;
#X obj 642 300 hsl 128 15 0 1024 0 0 empty empty empty -2 -8 0 10 -262144
-1 -1 0 1;
#X obj 642 267 hsl 128 15 0 10 0 0 empty empty empty -2 -8 0 10 -262144
-1 -1 0 1;
#X obj 642 231 hsl 128 15 0 500 0 0 empty empty empty -2 -8 0 10 -262144
-1 -1 0 1;
#X obj 641 366 hsl 128 15 127 0 0 0 empty empty empty -2 -8 0 10 -262144
-1 -1 0 1;
#X obj 615 369 tgl 15 0 empty empty empty 17 7 0 10 -262144 -1 -1 0
1;
#X obj 54 235 FX/apdist~-help;
#X obj 173 173 drum-machine1/catalanpan;
#X obj 273 239 FX/apdist~-help;
#X obj 273 273 FX/GuitarExtended-Phaser;
#X obj 273 304 FX/Guitar_specdelay~-main;
#X obj 221 355 FX/reberb;
#X obj 164 400 FX/filterSvf~;
#X obj 299 395 FX/filterSvf~;
#X obj 54 305 FX/Guitar_specdelay~-main;
#X obj 55 274 FX/GuitarExtended-Phaser;
#N canvas 0 0 450 300 beatMangleR 0;
#X obj 89 97 FX/beatmangle3;
#X obj -3 62 inlet~;
#X obj 212 37 inlet;
#X obj 274 47 inlet;
#X obj 328 49 inlet;
#X obj 107 265 outlet~;
#X obj 13 210 spigot~;
#X obj 155 215 spigot~;
#X obj 52 185 tgl 15 0 empty empty empty 17 7 0 10 -262144 -1 -1 0
1;
#X obj 194 190 tgl 15 0 empty empty empty 17 7 0 10 -262144 -1 -1 0
1;
#X obj 193 158 tgl 15 0 empty empty empty 17 7 0 10 -262144 -1 -1 0
1;
#X connect 0 0 7 0;
#X connect 1 0 0 0;
#X connect 1 0 6 0;
#X connect 2 0 0 1;
#X connect 2 0 10 0;
#X connect 3 0 0 2;
#X connect 4 0 0 3;
#X connect 6 0 5 0;
#X connect 7 1 5 0;
#X connect 8 0 6 1;
#X connect 9 0 7 1;
#X connect 10 0 9 0;
#X connect 10 0 8 0;
#X restore 341 454 pd beatMangleR;
#X obj 642 397 hsl 128 15 0 7 0 0 empty empty empty -2 -8 0 10 -262144
-1 -1 0 1;
#X obj 612 395 tgl 15 0 empty empty empty 17 7 0 10 -262144 -1 -1 0
1;
#X obj 642 419 hsl 128 15 0 7 0 0 empty empty empty -2 -8 0 10 -262144
-1 -1 0 1;
#N canvas 513 247 1270 714 recFX 0;
#X obj 100 -51 receive13 \$1-DJef1;
#X obj 102 49 receive13 \$1-DJse1;
#X obj 241 -52 receive13 \$1-DJef2;
#X obj 254 48 receive13 \$1-DJse2;
#X obj 388 -49 receive13 \$1-DJef3;
#X obj 402 48 receive13 \$1-DJse3;
#X obj 535 -48 receive13 \$1-DJef4;
#X obj 545 48 receive13 \$1-DJse4;
#X obj 678 -49 receive13 \$1-DJef5;
#X obj 691 48 receive13 \$1-DJse5;
#X obj 819 -50 receive13 \$1-DJef6;
#X obj 835 48 receive13 \$1-DJse6;
#X obj 113 -12 outlet;
#X obj 245 -11 outlet;
#X obj 390 -5 outlet;
#X obj 536 -9 outlet;
#X obj 681 -8 outlet;
#X obj 817 -5 outlet;
#X connect 0 0 12 0;
#X connect 2 0 13 0;
#X connect 4 0 14 0;
#X connect 6 0 15 0;
#X connect 8 0 16 0;
#X connect 10 0 17 0;
#X restore 621 132 pd recFX;
#N canvas 0 24 1280 743 recFXAm 0;
#X obj 107 92 outlet;
#X obj 230 88 outlet;
#X obj 375 94 outlet;
#X obj 521 90 outlet;
#X obj 666 91 outlet;
#X obj 800 94 outlet;
#X obj 107 10 r DJAef1;
#X obj 234 6 r DJAef2;
#X obj 378 9 r DJAef3;
#X obj 528 10 r DJAef4;
#X obj 672 9 r DJAef5;
#X obj 804 8 r DJAef6;
#X obj 107 53 * 500;
#X obj 226 49 * 10;
#X obj 374 51 * 1024;
#X obj 533 55 * 1;
#X obj 668 59 * 127;
#X obj 803 57 * 7;
#X connect 6 0 12 0;
#X connect 7 0 13 0;
#X connect 8 0 14 0;
#X connect 9 0 15 0;
#X connect 10 0 16 0;
#X connect 11 0 17 0;
#X connect 12 0 0 0;
#X connect 13 0 1 0;
#X connect 14 0 2 0;
#X connect 15 0 3 0;
#X connect 16 0 4 0;
#X connect 17 0 5 0;
#X restore 748 153 pd recFXAm;
#X connect 2 0 16 1;
#X connect 3 0 16 0;
#X connect 4 0 16 2;
#X connect 5 0 15 1;
#X connect 5 0 17 1;
#X connect 6 0 18 1;
#X connect 6 0 24 1;
#X connect 7 0 20 4;
#X connect 8 0 20 3;
#X connect 8 0 20 2;
#X connect 9 0 19 1;
#X connect 9 0 23 1;
#X connect 10 0 19 2;
#X connect 10 0 23 2;
#X connect 11 0 18 2;
#X connect 11 0 24 2;
#X connect 12 0 15 2;
#X connect 12 0 17 2;
#X connect 13 0 21 2;
#X connect 13 0 22 2;
#X connect 14 0 21 1;
#X connect 14 0 22 1;
#X connect 15 0 24 0;
#X connect 16 0 15 0;
#X connect 16 1 17 0;
#X connect 17 0 18 0;
#X connect 18 0 19 0;
#X connect 19 0 20 1;
#X connect 20 0 21 0;
#X connect 20 1 22 0;
#X connect 22 0 25 0;
#X connect 23 0 20 0;
#X connect 24 0 23 0;
#X connect 25 0 1 0;
#X connect 26 0 25 2;
#X connect 27 0 25 1;
#X connect 28 0 25 3;
#X connect 29 0 5 0;
#X connect 29 1 6 0;
#X connect 29 2 9 0;
#X connect 29 3 8 0;
#X connect 29 4 14 0;
#X connect 29 5 27 0;
#X connect 30 0 12 0;
#X connect 30 1 11 0;
#X connect 30 2 10 0;
#X connect 30 3 7 0;
#X connect 30 4 13 0;
#X connect 30 5 26 0;
#X restore 536 483 pd fxRack;
#X obj 1343 -63 loadbang;
#X msg 1354 -4 \; pd dsp 1;
#X obj 1168 72 sssadpanel;
#X msg 1354 32 \; pd dsp 0;
#X obj 1305 -32 t b b;
#X obj 1113 -163 delay 1000;
#X obj 1283 -113 bng 15 250 50 0 empty empty empty 17 7 0 10 -262144
-1 -1;
#X obj 1117 -112 delay 1000;
#X msg 1117 -89 example_presets/6;
#X text 1207 49 comment;
#X obj 1116 -57 delay 1000;
#X obj 1120 -6 delay 1000;
#X msg 1116 -32 example_presets/7;
#X msg 1120 17 example_presets/8;
#X obj 1102 -325 int \$1;
#X obj 1283 -509 t b;
#X floatatom 1239 -284 5 0 0 0 - - -;
#X msg 1102 -300 \$1;
#X obj 1099 -352 bng 15 250 50 0 empty empty empty 17 7 0 10 -262144
-1 -1;
#X obj 1068 -413 receive13 \$1-cPresets;
#X obj 950 -237 select 5 6 7 8;
#X obj 1042 -186 bng 15 250 50 0 empty empty empty 17 7 0 10 -262144
-1 -1;
#X obj 1043 -126 bng 15 250 50 0 empty empty empty 17 7 0 10 -262144
-1 -1;
#X obj 1041 -72 bng 15 250 50 0 empty empty empty 17 7 0 10 -262144
-1 -1;
#X obj 1042 -12 bng 15 250 50 0 empty empty empty 17 7 0 10 -262144
-1 -1;
#X msg 1113 -140 example_presets/5;
#X obj 842 46 r \$0-ressonance;
#X obj 842 72 r \$0-mod;
#X connect 4 0 9 0;
#X connect 14 0 16 0;
#X connect 14 1 17 0;
#X connect 16 0 20 2;
#X connect 17 0 20 3;
#X connect 19 0 20 5;
#X connect 20 0 67 0;
#X connect 20 1 67 1;
#X connect 24 0 36 0;
#X connect 25 0 18 0;
#X connect 25 1 24 0;
#X connect 27 0 35 0;
#X connect 28 0 18 0;
#X connect 29 0 30 0;
#X connect 30 0 31 0;
#X connect 32 0 34 0;
#X connect 34 0 33 0;
#X connect 35 0 25 0;
#X connect 36 0 18 0;
#X connect 37 0 42 1;
#X connect 38 0 37 0;
#X connect 39 0 40 0;
#X connect 40 0 42 2;
#X connect 41 0 39 1;
#X connect 42 0 16 0;
#X connect 42 1 17 0;
#X connect 43 0 20 4;
#X connect 44 0 56 0;
#X connect 45 0 1 0;
#X connect 46 0 41 0;
#X connect 46 0 55 0;
#X connect 48 0 45 0;
#X connect 49 0 29 0;
#X connect 52 0 53 0;
#X connect 53 0 1 0;
#X connect 54 0 56 2;
#X connect 55 0 42 0;
#X connect 56 0 41 0;
#X connect 56 0 55 0;
#X connect 56 0 65 0;
#X connect 57 0 20 0;
#X connect 58 0 61 0;
#X connect 60 0 58 0;
#X connect 61 0 20 1;
#X connect 62 0 61 1;
#X connect 62 0 63 0;
#X connect 64 0 56 1;
#X connect 67 0 13 0;
#X connect 67 1 13 1;
#X connect 68 0 72 0;
#X connect 72 1 69 0;
#X connect 73 0 93 0;
#X connect 74 0 72 0;
#X connect 75 0 76 0;
#X connect 76 0 70 0;
#X connect 78 0 80 0;
#X connect 79 0 81 0;
#X connect 80 0 70 0;
#X connect 81 0 70 0;
#X connect 82 0 85 0;
#X connect 84 0 88 0;
#X connect 85 0 84 0;
#X connect 86 0 82 0;
#X connect 87 0 86 0;
#X connect 88 0 89 0;
#X connect 88 1 90 0;
#X connect 88 2 91 0;
#X connect 88 3 92 0;
#X connect 89 0 73 0;
#X connect 90 0 75 0;
#X connect 91 0 78 0;
#X connect 92 0 79 0;
#X connect 93 0 70 0;
#X connect 94 0 20 7;
#X connect 95 0 20 6;
