#N canvas 576 22 704 794 10;
#X declare -lib cyclone;
#X declare -lib cyclone;
#X declare -lib mrpeach;
#X declare -lib cyclone;
#X declare -lib cyclone;
#X declare -lib cyclone;
#X declare -lib cyclone;
#X declare -lib cyclone;
#X declare -lib cyclone;
#X declare -lib cyclone;
#X declare -lib cyclone;
#X obj 155 23 loadometer;
#X obj 27 50 notein;
#X text 69 50 MIDI in;
#X obj 27 77 mtof;
#X obj 91 77 / 127;
#X text 14 -1 Uses MIDI for demonstration purposes \, but that can
easily be changed!;
#X text 18 469 Phil Stone - http://pkstonemusic.com;
#X obj 261 511 s \$0-OSC;
#X obj 220 77 r \$0-OSC;
#X text 305 402 Play a note via OSC;
#X text 261 358 Change oscillator carrier wave to pulse via OSC;
#X text 328 341 OSC ADDRESSING EXAMPLES;
#X obj 289 464 pipe 200;
#X obj 281 443 t a b;
#X text 98 92 amp.;
#X text 31 93 freq.;
#X obj 280 400 bng 15 250 50 0 empty empty empty 17 7 0 10 -262144
-1 -1;
#X msg 280 420 /example/note/amp 1 \, /example/note/freq 440;
#X msg 289 487 /example/note/amp 0 \, /example/note/freq 440;
#X msg 262 378 /example/osc/carrier/wave 3;
#X floatatom 276 245 5 -100 100 0 - - -;
#X obj 276 266 / 100;
#N canvas 454 179 217 230 pitchbend 0;
#X obj 24 22 nbx 2 14 0 99 0 1 empty empty semitones 32 8 0 10 -232576
-1 -1 4 256;
#X text 2 21 +/-;
#X obj 4 47 bendin;
#X obj 5 89 / 8192;
#X obj 5 125 * 1200;
#X obj 56 48 * 100;
#X text 47 123 convert to cents;
#X obj 4 68 - 8192;
#X obj 5 182 s \$0-OSC;
#X msg 5 153 /*/global/pitchbend \$1;
#X obj 125 15 inlet;
#X text 54 10 Range \, in;
#X connect 0 0 5 0;
#X connect 2 0 7 0;
#X connect 3 0 4 0;
#X connect 4 0 9 0;
#X connect 5 0 4 1;
#X connect 7 0 3 0;
#X connect 9 0 8 0;
#X connect 10 0 4 0;
#X coords 0 -1 1 1 110 40 1 0 0;
#X restore 276 287 pd pitchbend;
#X obj 494 79 loadbang;
#X msg 522 125 \; pd dsp 1;
#X obj 321 154 sssadpanel;
#X text 326 129 Save and load presets:;
#X msg 522 161 \; pd dsp 0;
#X obj 494 101 t b b;
#X obj 411 256 bng 20 250 50 0 empty empty AllNotesOff 0 -6 0 10 -262144
-1 -1;
#X obj 411 310 s \$0-OSC;
#X msg 411 284 /*/global/allnotesoff 1;
#N canvas 525 396 450 300 kstm_volume 0;
#X obj -139 121 vsl 15 128 0 1 0 0 \$0-in1Vol \$0-in1Volset synthVol
0 -8 0 8 -262144 -1 -1 12700 1;
#X obj -137 66 maxlib/scale 0 127 0 1;
#X obj -136 27 receive13 \$1-vol;
#X obj -65 123 loadbang;
#X msg -103 129 1;
#X connect 1 0 0 0;
#X connect 2 0 1 0;
#X connect 3 0 4 0;
#X connect 4 0 0 0;
#X restore 34 511 pd kstm_volume;
#N canvas 640 22 640 752 kstm_load_Preset 0;
#X msg -172 332 example_presets/6;
#X msg -173 389 example_presets/7;
#X msg -169 438 example_presets/8;
#X obj -187 96 int \$1;
#X floatatom -50 137 5 0 0 0 - - -;
#X msg -187 121 \$1;
#X obj -190 69 bng 15 250 50 0 empty empty empty 17 7 0 10 -262144
-1 -1;
#X obj -221 8 receive13 \$1-cPresets;
#X obj -339 184 select 5 6 7 8;
#X obj -247 235 bng 15 250 50 0 empty empty empty 17 7 0 10 -262144
-1 -1;
#X obj -246 295 bng 15 250 50 0 empty empty empty 17 7 0 10 -262144
-1 -1;
#X obj -248 349 bng 15 250 50 0 empty empty empty 17 7 0 10 -262144
-1 -1;
#X obj -247 409 bng 15 250 50 0 empty empty empty 17 7 0 10 -262144
-1 -1;
#X msg -176 281 example_presets/5;
#X obj -144 495 outlet;
#X obj -176 258 delay 100;
#X obj -172 309 delay 100;
#X obj -173 364 delay 100;
#X obj -169 414 delay 100;
#X connect 0 0 14 0;
#X connect 1 0 14 0;
#X connect 2 0 14 0;
#X connect 3 0 5 0;
#X connect 4 0 8 0;
#X connect 5 0 4 0;
#X connect 6 0 3 0;
#X connect 7 0 6 0;
#X connect 8 0 9 0;
#X connect 8 1 10 0;
#X connect 8 2 11 0;
#X connect 8 3 12 0;
#X connect 9 0 15 0;
#X connect 10 0 16 0;
#X connect 11 0 17 0;
#X connect 12 0 18 0;
#X connect 13 0 14 0;
#X connect 15 0 13 0;
#X connect 16 0 0 0;
#X connect 17 0 1 0;
#X connect 18 0 2 0;
#X restore 333 86 pd kstm_load_Preset;
#X obj -76 80 r \$0-adsr;
#N canvas 815 114 450 300 accelerometer 0;
#X obj -74 -53 autoscale 1 10000;
#X obj -77 -85 receive13 \$1-accX;
#X obj -71 -2 spigot;
#X obj -19 -21 receive13 \$1-accE;
#X obj -70 45 outlet;
#X connect 0 0 2 0;
#X connect 1 0 0 0;
#X connect 2 0 4 0;
#X connect 3 0 2 1;
#X restore -89 17 pd accelerometer;
#N canvas 677 109 450 300 sequencer 0;
#X obj 236 -74 100;
#X obj 213 -94 loadbang;
#X obj 323 -112 / 60;
#X obj 323 -91 / 16;
#X obj 323 -133 * 1000;
#X obj 182 -45 makenote 100 100;
#X obj 167 -183 inlet;
#N canvas 1 22 595 803 playPadNotes 0;
#X msg 51 57 60;
#X msg 92 57 62;
#X msg 136 56 64;
#X text 53 27 C4;
#X text 96 26 D4;
#X text 137 27 E4;
#X text 179 25 F4;
#X text 219 26 G4;
#X text 258 26 A4;
#X text 303 25 B4;
#X text 343 25 C5;
#X text 384 25 D5;
#X msg 176 56 65;
#X msg 216 56 67;
#X msg 254 55 69;
#X msg 299 55 71;
#X msg 342 55 72;
#X msg 381 54 74;
#X obj -19 -248 receive13 \$1-pad1;
#X obj 47 -216 receive13 \$1-pad2;
#X obj 73 -188 receive13 \$1-pad3;
#X obj 138 -156 receive13 \$1-pad4;
#X obj 173 -120 receive13 \$1-pad5;
#X obj 238 -88 receive13 \$1-pad6;
#X obj 281 -60 receive13 \$1-pad7;
#X obj 330 -28 receive13 \$1-pad8;
#X obj 369 1 receive13 \$1-pad9;
#X obj 178 251 outlet;
#X obj 460 107 tgl 15 0 empty empty empty 17 7 0 10 -262144 -1 -1 0
1;
#X obj 177 223 spigot;
#X obj 178 190 pipe 5;
#X connect 0 0 30 0;
#X connect 1 0 30 0;
#X connect 2 0 30 0;
#X connect 12 0 30 0;
#X connect 13 0 30 0;
#X connect 14 0 30 0;
#X connect 15 0 30 0;
#X connect 16 0 30 0;
#X connect 17 0 30 0;
#X connect 18 0 0 0;
#X connect 18 0 28 0;
#X connect 19 0 1 0;
#X connect 19 0 28 0;
#X connect 20 0 2 0;
#X connect 20 0 28 0;
#X connect 21 0 12 0;
#X connect 21 0 28 0;
#X connect 22 0 13 0;
#X connect 22 0 28 0;
#X connect 23 0 14 0;
#X connect 23 0 28 0;
#X connect 24 0 15 0;
#X connect 24 0 28 0;
#X connect 25 0 16 0;
#X connect 25 0 28 0;
#X connect 26 0 17 0;
#X connect 26 0 28 0;
#X connect 28 0 29 1;
#X connect 29 0 27 0;
#X connect 30 0 29 0;
#X restore 323 -154 pd playPadNotes;
#X obj 265 -179 receive13 \$1-On/Off;
#N canvas 0 30 1278 683 octave+/- 0;
#X obj -274 -158 receive13 \$1-tempo;
#X obj -141 -74 vsl 15 128 -4 4 0 0 empty empty empty 0 -9 0 10 -262144
-1 -1 0 1;
#X floatatom -7 61 5 0 0 0 - - -;
#X obj -31 27 int;
#X obj 72 100 * 12;
#X floatatom 377 104 5 0 0 0 - - -;
#X obj 174 -82 inlet;
#X floatatom 230 4 5 0 0 0 - - -;
#X obj 242 173 +;
#X floatatom 242 217 5 0 0 0 - - -;
#X obj 443 325 outlet;
#X obj -186 -111 maxlib/scale 0 200 -4 4;
#X floatatom -243 -87 5 0 0 0 - - -;
#X connect 0 0 11 0;
#X connect 0 0 12 0;
#X connect 1 0 3 0;
#X connect 2 0 4 0;
#X connect 3 0 2 0;
#X connect 4 0 5 0;
#X connect 5 0 8 1;
#X connect 6 0 7 0;
#X connect 7 0 8 0;
#X connect 8 0 9 0;
#X connect 9 0 10 0;
#X connect 11 0 1 0;
#X restore 45 -66 pd octave+/-;
#X obj 177 -152 sequencer2 \$1;
#X obj 215 -182 inlet;
#N canvas 0 30 1278 683 sendOSCSynth 0;
#X obj 618 264 loadbang;
#X obj 428 528 mrpeach/udpsend;
#X obj 515 456 mrpeach/packOSC;
#X msg 710 266 bang;
#X obj 152 166 bng 15 250 50 0 empty empty empty 17 7 0 10 -262144
-1 -1;
#X msg 529 319 connect 127.0.0.1 9000;
#X msg 156 324 send /\$1/bump;
#X obj 140 73 inlet;
#X obj 151 240 f \$1;
#X connect 0 0 5 0;
#X connect 2 0 1 0;
#X connect 3 0 5 0;
#X connect 4 0 8 0;
#X connect 5 0 1 0;
#X connect 6 0 2 0;
#X connect 7 0 4 0;
#X connect 8 0 6 0;
#X restore -39 -106 pd sendOSCSynth;
#X obj 88 50 outlet;
#X obj 203 48 outlet;
#X connect 0 0 5 1;
#X connect 1 0 0 0;
#X connect 2 0 3 0;
#X connect 3 0 5 2;
#X connect 4 0 2 1;
#X connect 5 0 13 0;
#X connect 5 1 14 0;
#X connect 6 0 10 0;
#X connect 7 0 4 0;
#X connect 7 0 9 0;
#X connect 8 0 10 2;
#X connect 9 0 5 0;
#X connect 10 0 4 0;
#X connect 10 0 9 0;
#X connect 10 0 12 0;
#X connect 11 0 10 1;
#X restore 60 -66 pd sequencer;
#X obj 27 -94 inlet start;
#X obj 124 -95 inlet tempo;
#X obj 105 451 dac~;
#X obj 246 107 r \$0-ressonance;
#X obj 246 133 r \$0-mod;
#X obj -99 358 r13 \$1-mute;
#X obj -92 414 r13 \$1-pos;
#X obj -97 388 r \$0-in1Vol;
#X obj 90 429 fxRack \$1;
#X obj 27 110 polywavesynth synth8 8 1;
#X connect 1 0 3 0;
#X connect 1 1 4 0;
#X connect 3 0 46 2;
#X connect 4 0 46 3;
#X connect 8 0 46 5;
#X connect 12 0 18 0;
#X connect 13 0 7 0;
#X connect 13 1 12 0;
#X connect 16 0 17 0;
#X connect 17 0 13 0;
#X connect 18 0 7 0;
#X connect 19 0 7 0;
#X connect 20 0 21 0;
#X connect 21 0 22 0;
#X connect 23 0 28 0;
#X connect 28 1 24 0;
#X connect 29 0 31 0;
#X connect 31 0 30 0;
#X connect 33 0 25 0;
#X connect 34 0 46 0;
#X connect 35 0 46 1;
#X connect 36 0 3 0;
#X connect 36 1 4 0;
#X connect 37 0 36 0;
#X connect 38 0 36 1;
#X connect 40 0 46 7;
#X connect 41 0 46 6;
#X connect 42 0 45 2;
#X connect 43 0 45 4;
#X connect 44 0 45 3;
#X connect 45 0 39 0;
#X connect 45 1 39 1;
#X connect 46 0 45 0;
#X connect 46 1 45 1;
