#N canvas 777 264 503 290 10;
#X obj 295 15 100;
#X obj 272 -5 loadbang;
#X obj 382 -23 / 60;
#X obj 382 -2 / 16;
#X obj 382 -44 * 1000;
#X obj 241 44 makenote 100 100;
#N canvas 248 22 595 803 playPadNotes 1;
#X msg 199 -227 60;
#X msg 198 -191 62;
#X msg 199 -159 64;
#X text 197 -244 C4;
#X text 198 -209 D4;
#X text 196 -175 E4;
#X text 197 -143 F4;
#X text 195 -110 G4;
#X text 195 -78 A4;
#X text 193 -47 B4;
#X text 191 -16 C5;
#X text 194 19 D5;
#X msg 198 -126 65;
#X msg 196 -93 67;
#X msg 195 -62 69;
#X msg 193 -30 71;
#X msg 194 1 72;
#X msg 195 35 74;
#X obj 25 -6 receive13 \$1-pad2;
#X obj 25 -96 receive13 \$1-pad5;
#X obj 24 -192 receive13 \$1-pad8;
#X obj 346 -65 outlet;
#X obj 345 -91 spigot;
#X obj 150 -226 t b f;
#X obj 145 -192 t b f;
#X obj 147 -162 t b f;
#X obj 148 -128 t b f;
#X obj 148 -97 t b f;
#X obj 147 -66 t b f;
#X obj 146 -35 t b f;
#X obj 147 -7 t b f;
#X obj 146 24 t b f;
#X obj 24 -225 receive13 \$1-pad7;
#X obj 23 -160 receive13 \$1-pad9;
#X obj 25 -127 receive13 \$1-pad4;
#X obj 25 -66 receive13 \$1-pad6;
#X obj 26 -36 receive13 \$1-pad1;
#X obj 25 27 receive13 \$1-pad3;
#X connect 0 0 22 0;
#X connect 1 0 22 0;
#X connect 2 0 22 0;
#X connect 12 0 22 0;
#X connect 13 0 22 0;
#X connect 14 0 22 0;
#X connect 15 0 22 0;
#X connect 16 0 22 0;
#X connect 17 0 22 0;
#X connect 18 0 30 0;
#X connect 19 0 27 0;
#X connect 20 0 24 0;
#X connect 22 0 21 0;
#X connect 23 0 0 0;
#X connect 23 1 22 1;
#X connect 24 0 1 0;
#X connect 24 1 22 1;
#X connect 25 0 2 0;
#X connect 25 1 22 1;
#X connect 26 0 12 0;
#X connect 26 1 22 1;
#X connect 27 0 13 0;
#X connect 27 1 22 1;
#X connect 28 0 14 0;
#X connect 28 1 22 1;
#X connect 29 0 15 0;
#X connect 29 1 22 1;
#X connect 30 0 16 0;
#X connect 30 1 22 1;
#X connect 31 0 17 0;
#X connect 31 1 22 1;
#X connect 32 0 23 0;
#X connect 33 0 25 0;
#X connect 34 0 26 0;
#X connect 35 0 28 0;
#X connect 36 0 29 0;
#X connect 37 0 31 0;
#X restore 382 -65 pd playPadNotes;
#X obj 236 -88 receive13 \$1-On/Off;
#N canvas 0 30 1278 683 octave+/- 0;
#X obj -274 -158 receive13 \$1-tempo;
#X obj -141 -74 vsl 15 128 -4 4 0 0 empty empty empty 0 -9 0 10 -262144
-1 -1 7560 1;
#X floatatom -7 61 5 0 0 0 - - -;
#X obj -31 27 int;
#X obj 72 100 * 12;
#X floatatom 377 104 5 0 0 0 - - -;
#X obj 174 -82 inlet;
#X floatatom 230 4 5 0 0 0 - - -;
#X obj 242 173 +;
#X floatatom 242 217 5 0 0 0 - - -;
#X obj 443 325 outlet;
#X obj -186 -111 maxlib/scale 0 200 -4 4;
#X floatatom -243 -87 5 0 0 0 - - -;
#X connect 0 0 11 0;
#X connect 0 0 12 0;
#X connect 1 0 3 0;
#X connect 2 0 4 0;
#X connect 3 0 2 0;
#X connect 4 0 5 0;
#X connect 5 0 8 1;
#X connect 6 0 7 0;
#X connect 7 0 8 0;
#X connect 8 0 9 0;
#X connect 9 0 10 0;
#X connect 11 0 1 0;
#X restore 104 23 pd octave+/-;
#X obj 236 -63 sequencer2 \$1;
#N canvas 0 30 1278 683 sendOSCSynth 0;
#X obj 618 264 loadbang;
#X obj 428 528 mrpeach/udpsend;
#X obj 515 456 mrpeach/packOSC;
#X msg 710 266 bang;
#X obj 152 166 bng 15 250 50 0 empty empty empty 17 7 0 10 -262144
-1 -1;
#X msg 529 319 connect 127.0.0.1 9000;
#X msg 156 324 send /\$1/bump;
#X obj 140 73 inlet;
#X obj 151 240 f \$1;
#X connect 0 0 5 0;
#X connect 2 0 1 0;
#X connect 3 0 5 0;
#X connect 4 0 8 0;
#X connect 5 0 1 0;
#X connect 6 0 2 0;
#X connect 7 0 4 0;
#X connect 8 0 6 0;
#X restore 20 -17 pd sendOSCSynth;
#X obj 147 139 outlet;
#X obj 262 137 outlet;
#X connect 0 0 5 1;
#X connect 1 0 0 0;
#X connect 2 0 3 0;
#X connect 3 0 5 2;
#X connect 4 0 2 1;
#X connect 5 0 11 0;
#X connect 5 1 12 0;
#X connect 6 0 4 0;
#X connect 6 0 8 0;
#X connect 7 0 9 0;
#X connect 8 0 5 0;
#X connect 9 0 4 0;
#X connect 9 0 8 0;
#X connect 9 0 10 0;
