#N canvas 852 500 698 608 10;
#X declare -lib mrpeach;
#X declare -lib cyclone;
#X declare -lib cyclone;
#X declare -lib cyclone;
#X declare -lib cyclone;
#X declare -lib cyclone;
#X declare -lib cyclone;
#X declare -lib cyclone;
#X declare -lib cyclone;
#X obj 155 23 loadometer;
#X obj 27 50 notein;
#X text 69 50 MIDI in;
#X obj 27 77 mtof;
#X obj 91 77 / 127;
#X text 14 -1 Uses MIDI for demonstration purposes \, but that can
easily be changed!;
#X text 18 469 Phil Stone - http://pkstonemusic.com;
#X obj 261 511 s \$0-OSC;
#X obj 220 77 r \$0-OSC;
#X text 305 402 Play a note via OSC;
#X text 261 358 Change oscillator carrier wave to pulse via OSC;
#X text 328 341 OSC ADDRESSING EXAMPLES;
#X obj 289 464 pipe 200;
#X obj 281 443 t a b;
#X text 98 92 amp.;
#X text 31 93 freq.;
#X obj 280 400 bng 15 250 50 0 empty empty empty 17 7 0 10 -262144
-1 -1;
#X msg 280 420 /example/note/amp 1 \, /example/note/freq 440;
#X msg 289 487 /example/note/amp 0 \, /example/note/freq 440;
#X msg 262 378 /example/osc/carrier/wave 3;
#X floatatom 276 245 5 -100 100 0 - - -;
#X obj 276 266 / 100;
#N canvas 454 179 217 230 pitchbend 0;
#X obj 24 22 nbx 2 14 0 99 0 1 empty empty semitones 32 8 0 10 -232576
-1 -1 4 256;
#X text 2 21 +/-;
#X obj 4 47 bendin;
#X obj 5 89 / 8192;
#X obj 5 125 * 1200;
#X obj 56 48 * 100;
#X text 47 123 convert to cents;
#X obj 4 68 - 8192;
#X obj 5 182 s \$0-OSC;
#X msg 5 153 /*/global/pitchbend \$1;
#X obj 125 15 inlet;
#X text 54 10 Range \, in;
#X connect 0 0 5 0;
#X connect 2 0 7 0;
#X connect 3 0 4 0;
#X connect 4 0 9 0;
#X connect 5 0 4 1;
#X connect 7 0 3 0;
#X connect 9 0 8 0;
#X connect 10 0 4 0;
#X coords 0 -1 1 1 110 40 1 0 0;
#X restore 276 287 pd pitchbend;
#X obj 494 79 loadbang;
#X msg 522 125 \; pd dsp 1;
#X obj 321 154 sssadpanel;
#X text 326 129 Save and load presets:;
#X msg 522 161 \; pd dsp 0;
#X obj 494 101 t b b;
#X obj 411 256 bng 20 250 50 0 empty empty AllNotesOff 0 -6 0 10 -262144
-1 -1;
#X obj 411 310 s \$0-OSC;
#X msg 411 284 /*/global/allnotesoff 1;
#N canvas 525 396 450 300 kstm_volume 0;
#X obj -139 121 vsl 15 128 0 1 0 0 \$0-in1Vol \$0-in1Volset synthVol
0 -8 0 8 -262144 -1 -1 12700 1;
#X obj -137 66 maxlib/scale 0 127 0 1;
#X obj -136 27 receive13 \$1-vol;
#X obj -65 123 loadbang;
#X msg -103 129 1;
#X connect 1 0 0 0;
#X connect 2 0 1 0;
#X connect 3 0 4 0;
#X connect 4 0 0 0;
#X restore 34 511 pd kstm_volume;
#N canvas 640 22 640 752 kstm_load_Preset 0;
#X msg -172 332 example_presets/6;
#X msg -173 389 example_presets/7;
#X msg -169 438 example_presets/8;
#X obj -187 96 int \$1;
#X floatatom -50 137 5 0 0 0 - - -;
#X msg -187 121 \$1;
#X obj -190 69 bng 15 250 50 0 empty empty empty 17 7 0 10 -262144
-1 -1;
#X obj -221 8 receive13 \$1-cPresets;
#X obj -339 184 select 5 6 7 8;
#X obj -247 235 bng 15 250 50 0 empty empty empty 17 7 0 10 -262144
-1 -1;
#X obj -246 295 bng 15 250 50 0 empty empty empty 17 7 0 10 -262144
-1 -1;
#X obj -248 349 bng 15 250 50 0 empty empty empty 17 7 0 10 -262144
-1 -1;
#X obj -247 409 bng 15 250 50 0 empty empty empty 17 7 0 10 -262144
-1 -1;
#X msg -176 281 example_presets/5;
#X obj -144 495 outlet;
#X obj -176 258 delay 100;
#X obj -172 309 delay 100;
#X obj -173 364 delay 100;
#X obj -169 414 delay 100;
#X connect 0 0 14 0;
#X connect 1 0 14 0;
#X connect 2 0 14 0;
#X connect 3 0 5 0;
#X connect 4 0 8 0;
#X connect 5 0 4 0;
#X connect 6 0 3 0;
#X connect 7 0 6 0;
#X connect 8 0 9 0;
#X connect 8 1 10 0;
#X connect 8 2 11 0;
#X connect 8 3 12 0;
#X connect 9 0 15 0;
#X connect 10 0 16 0;
#X connect 11 0 17 0;
#X connect 12 0 18 0;
#X connect 13 0 14 0;
#X connect 15 0 13 0;
#X connect 16 0 0 0;
#X connect 17 0 1 0;
#X connect 18 0 2 0;
#X restore 333 86 pd kstm_load_Preset;
#X obj -76 80 r \$0-adsr;
#N canvas 815 114 450 300 accelerometer 0;
#X obj -74 -53 autoscale 1 10000;
#X obj -77 -85 receive13 \$1-accX;
#X obj -71 -2 spigot;
#X obj -19 -21 receive13 \$1-accE;
#X obj -70 45 outlet;
#X connect 0 0 2 0;
#X connect 1 0 0 0;
#X connect 2 0 4 0;
#X connect 3 0 2 1;
#X restore -89 17 pd accelerometer;
#X obj 105 451 dac~;
#X obj 246 107 r \$0-ressonance;
#X obj 246 133 r \$0-mod;
#X obj -94 391 r13 \$1-mute;
#X obj -95 369 r \$0-in1Vol;
#X obj 27 110 polywavesynth synth5 8 1;
#X obj 29 -41 synth_sequencer \$1;
#X obj 90 429 FX/fxRack \$1;
#X connect 1 0 3 0;
#X connect 1 1 4 0;
#X connect 3 0 41 2;
#X connect 4 0 41 3;
#X connect 8 0 41 5;
#X connect 12 0 18 0;
#X connect 13 0 7 0;
#X connect 13 1 12 0;
#X connect 16 0 17 0;
#X connect 17 0 13 0;
#X connect 18 0 7 0;
#X connect 19 0 7 0;
#X connect 20 0 21 0;
#X connect 21 0 22 0;
#X connect 23 0 28 0;
#X connect 28 1 24 0;
#X connect 29 0 31 0;
#X connect 31 0 30 0;
#X connect 33 0 25 0;
#X connect 34 0 41 0;
#X connect 35 0 41 1;
#X connect 37 0 41 7;
#X connect 38 0 41 6;
#X connect 39 0 43 2;
#X connect 40 0 43 3;
#X connect 41 0 43 0;
#X connect 41 1 43 1;
#X connect 42 0 3 0;
#X connect 42 1 4 0;
#X connect 43 0 36 0;
#X connect 43 1 36 1;
